<svg xmlns="http://www.w3.org/2000/svg" width="368" height="748"><path fill="#fff" d="M4.006 0h360.091c.247 1.783.285 3.522.295 5.317-.719 6.882-.283 14.11-.273 21.04l.026 37.02-.014 95.735c-.009 15.629.298 31.301-.042 46.924l.035 238.779.003 69.832c-.002 11.594-.302 23.274.012 34.86l-.004 133.393-.005 36.704c-.013 6.707-.513 13.914.313 20.549l-49.65-.057c-7.934-.002-15.972.279-23.89-.036-4.117.511-8.6.192-12.759.185l-23.325-.034-93.153.024-28.035-.03c-4.714-.007-9.712-.349-14.388.118l-.231-.039c-14.043-.627-28.265-.159-42.335-.153l-72.692.093c-.162-5.758.004-11.52-.165-17.279.32-4.402.073-8.986.07-13.409L3.866 683.9l.031-64.311c.005-11.324-.245-22.688.027-34.006l-.042-427.404c-.36-31.596-.004-63.235.001-94.835l.009-40.152c.001-7.718-.173-15.48.114-23.192"/><path fill="#FEB7B2" d="M4.006 0h141.576c2.08.33 4.126.672 6.237.706.072 14.637-.221 29.266-.269 43.9-.047 14.199 1.264 31.652-2.064 45.222a61.25 61.25 0 0 1-15.799 28.577c-9.755 9.816-22.598 15.595-36.5 15.574-11.2-.016-21.503-3.833-30.415-10.53C54.169 140.89 36.8 153.631 15.25 157.147c-3.687.601-7.628.99-11.368 1.032-.36-31.596-.004-63.235.001-94.835l.009-40.152c.001-7.718-.173-15.48.114-23.192"/><path fill="#5A9BF7" d="M4.006 0h39.788l-.324 50.605c-.062 12.738-1.224 26.39 1.736 38.846a61 61 0 0 0 15.98 29.204c1.714 1.72 3.61 3.379 5.586 4.794C54.169 140.89 36.8 153.631 15.25 157.147c-3.687.601-7.628.99-11.368 1.032-.36-31.596-.004-63.235.001-94.835l.009-40.152c.001-7.718-.173-15.48.114-23.192M3.924 585.583c15.816-4.935 30.63-4.521 45.502 3.31 29.141 15.347 46.597 49.98 55.901 80.228 7.105 23.1 10.537 46.707 11.656 70.808H283.29c2.422 0 5.244-.283 7.613.131-4.117.511-8.6.192-12.759.185l-23.325-.034-93.153.024-28.035-.03c-4.714-.007-9.712-.349-14.388.118l-.231-.039c-14.043-.627-28.265-.159-42.335-.153l-72.692.093c-.162-5.758.004-11.52-.165-17.279.32-4.402.073-8.986.07-13.409L3.866 683.9l.031-64.311c.005-11.324-.245-22.688.027-34.006"/><path fill="#D3F8D2" d="m283.29 739.929-.018-60.579c-.129-20.52-1.68-45.192 2.424-65.079 4.52-21.909 16.054-44.564 35.17-57.075 13.35-8.738 27.772-10.896 43.273-7.689l-.004 133.393-.005 36.704c-.013 6.707-.513 13.914.313 20.549l-49.65-.057c-7.934-.002-15.972.279-23.89-.036-2.369-.414-5.191-.131-7.613-.131M337.783 0h26.314c.247 1.783.285 3.522.295 5.317-.719 6.882-.283 14.11-.273 21.04l.026 37.02-.014 95.735c-.009 15.629.298 31.301-.042 46.924-16.794-.677-33.81-10.111-45.454-21.801a88.2 88.2 0 0 1-16.887-23.717c-13.05-26.256-10.772-52.345-10.741-80.67 8.276-1.51 15.847-4.588 22.587-9.675 14.897-11.242 23.106-29.223 23.763-47.68.263-7.387-.602-15.185.426-22.493"/><path fill="#FEB7B2" d="M229.541 0h108.242c-1.028 7.308-.163 15.106-.426 22.493-.657 18.457-8.866 36.439-23.763 47.68-6.74 5.087-14.311 8.165-22.587 9.674-2.66.43-5.353.63-8.047.595-13.644-.04-26.485-6.02-36.023-15.644C227.726 45.415 229.41 24.888 229.541 0"/><defs><linearGradient id="a" x1="369.84" x2="288.028" y1="373.763" y2="374.498" gradientUnits="userSpaceOnUse"><stop offset="0" stop-opacity="0"/><stop offset="1" stop-opacity=".031"/></linearGradient></defs><path fill="url(#a)" d="m364.392 5.317.137-.196c.588-.878.737-1.63.911-2.652l-.32-.825-.194.411.321-.39.142.04.197.925-.043-.611-.292.771c.437.71 1.21 1.696 1.401 2.5.494 2.08-.695 5.53-.614 7.806.192 5.391.517 10.91.46 16.299-.05 4.761-.421 9.497-.393 14.273.034 5.693.532 11.446.479 17.133-.111 11.908-.783 23.832.117 35.714l-.095.138a10.5 10.5 0 0 0-.848 1.557c.138.622.247 1.253.503 1.838 1.004 2.288-.224 12.161-.26 15.327-.081 7.25.384 14.525.432 21.773.042 6.523-.222 13.053-.211 19.566.004 2.284.358 4.6.318 6.864-.025 1.43-.894 2.918-.841 4.293.039 1.031.727 1.083 1.014 1.868.269.735-.174 3.377-.217 4.258-.175 3.506-.187 7.015.204 10.509-.178.234-.756.843-.832 1.093-.509 1.678.689 7.758.761 9.933.146 4.393-.458 9.005-.755 13.401.181.321.802 1.163.835 1.476.093.875-.068 9.35-.253 10.063a8.8 8.8 0 0 1-.725 1.833c.277 2.729 2.066 2.439.189 5.344.338 1.91 1.181 3.534 1.008 5.507-.503.362-1.182.664-1.267 1.331-.105.834.472 2.327.786 3.114.962 2.41-.675 5.925-.646 8.526.014 1.264.665 2.474.771 3.733.148 1.753-.296 3.664-.301 5.448-.01 3.324.362 6.659.31 9.969-.025 1.567-.741 3.041-.776 4.551-.109 4.769.573 9.861.686 14.678.117 4.97-.41 10.002-.386 14.996.027 5.753.607 11.588.532 17.326l-.242 41.404c-.069 4.997-.458 9.996-.461 14.99-.004 6.465.343 12.974.476 19.441.059 2.884-.141 5.751.005 8.637.196 3.852-.199 7.606-.185 11.443.009 2.194.487 4.579.349 6.735-.11 1.742-1.569 3.081-.527 4.822.269.45.587.935.623 1.472.159 2.379-.229 4.914-.313 7.303-.086 2.467.111 5.018.318 7.478-.194.335-.89 1.264-.923 1.589-.166 1.638.795 7.516.827 9.94.056 4.333-.672 8.675-.675 13.009.189.319.724 1.015.8 1.348.134.579-.063 9.331-.253 10.062a8.7 8.7 0 0 1-.724 1.833c.288 2.817 2.065 2.424.166 5.458.441 1.715 1.186 3.242 1.029 5.038l-1.01.663c-.215 2.736 1.85 4.786-.177 7.06.235.769.558 1.297 1.039 1.938-.383 1.091-.987 2.466-1.048 3.617-.058 1.099 1.245 3.007 1.055 3.838-.089.386-.73.931-1.019 1.191.193.702.361 1.414.591 2.105.506 1.519-.292 3.58-.345 5.183-.053 1.609.334 3.231.387 4.844.009.262-.049.997.032 1.214.145.387 1.129.843.934 1.275-.425.943-1.303 1.168-1.414 2.322-.52 5.364.494 11.459.557 16.881.066 5.605-.604 11.21-.489 16.838q.703.942 1.367 1.912c-.382.406-.781.191-1.032.413-.438.388-.119 3.953-.096 4.689.643 20.941-.041 42.229-.193 63.207-.037 5.18-.019 10.408.185 15.583.063 1.583.398 3.162.418 4.738.015 1.2-.492 2.391-.53 3.614-.088 2.843.392 5.717.382 8.568-.024 6.203-.495 12.429-.645 18.612-.026 1.049.812 1.784.851 2.864.128 3.52-.559 7.035-.354 10.584.042.729.506 3.604.22 3.971-1.701 2.189.093 9.979.002 13.074-.105 3.543-1.067 8.455-.595 11.826.211 1.506.706 2.937.709 4.481.006 4.343-1.417 11.765-.201 15.62.279.885.512 1.664.198 2.574-1.129.751-2.582 1.964-3.842 2.404-2.512.878-23.575-1.169-29.503.127-1.073.235-2.86-.023-3.894-.406l-.394-.566q-.083.048-.169.093c-2.524 1.259-15.035.631-18.343.241-.379-.044-.227-.048-.609.08l-.075.204-.544-.625-.285.892-.574-.049-.175-.981a84 84 0 0 0-3.929 1.232c-.505-.31-.768-.582-1.129-1.052-.852-1.108-2.174-1.395-3.487-1.612l-.136.085c-2.558 1.572-7.234.651-10.244.467.566-.369 1.209-.617 1.823-.895l.05-.474c-1.241-.08-2.396-.158-3.577-.571l-.257-.092.766-.622c6.874.965 73.228.891 76.203-.947l.061-.909c-.826-6.635-.326-13.842-.313-20.549l.005-36.704.004-133.393c-.314-11.586-.014-23.266-.012-34.86l-.003-69.832-.035-238.779c.34-15.623.033-31.295.042-46.924l.014-95.735-.026-37.02c-.01-6.93-.446-14.158.273-21.04"/><path d="m364.443 740.153-.061.909c-2.975 1.838-69.329 1.912-76.203.947-2.49.518-4.941-.076-7.29.457l-.731 1.291-1.249.281-.407-.567.253-.82-.342-.355-1.981.148-1.592-.219c-3.127-.673-12.718-.188-16.21.184l-.573.173c-2.136-.061-4.217-.144-6.335-.459l-.819.096c-4.622-.181-9.24.131-13.882-.095-2.86.063-5.761.035-8.607.332-2.67-.301-5.407-.358-8.091-.502 2.033-.397 4.018-.567 6.08-.698-1.284-.062-2.567-.194-3.847-.307-1.391-.565-19.075-.635-20.671-.058-.2.072-.399.198-.575.316l.007.973c-3.731.378-21.802-.645-23.088.027-4.165.514-8.543.322-12.725.056-2.971-.221-5.447.052-8.433-.672l.25-.045c-2.769-1.443-8.718-.586-11.654-.311.451.073.75.194 1.154.391l-.671.682-3.998.14q-.506.047-1.013.052c-2.737.009-15.083.327-16.37-.972l.115-.205c-1.059-.944-4.014.056-5.641-1 4.676-.467 9.674-.125 14.388-.118l28.035.03 93.153-.024 23.325.034c4.159.007 8.642.326 12.759-.185 7.918.315 15.956.034 23.89.036zM3.378 740.776c.548-5.711-.93-12.293.442-17.831.17 5.759.003 11.521.165 17.279l72.692-.093c14.07-.006 28.292-.474 42.335.153l-.491.882c.626 1.081.679 1.323.513 2.561-.522.002-1.22-.033-1.659-.328-1.889-1.27-4.362-1.237-6.563-1.211-5.306.158-10.679.256-15.988.137-7.244-.163-14.584-.654-21.817.135q-2.302-.087-4.6-.245c-3.468-.249-6.8.254-10.243.263-2.882-.903-7.137-.164-10.117.006-6.22-.109-12.603-.837-18.806-.3-1.867.162-4.335 1.768-5.885 1.713-2.275-.081-2.53-3.856-6.54-1.19l-.735 1.488c-1.39-.074-2.868-.246-4.242 0q-.099.02-.197.04l-1.114-.812.536.222.566-.336-.002-.753c-1.897-.787-3.549-1.401-5.635-1.346-.515.014-1.473.202-1.942.101-.133-.028-.542-.431-.673-.535"/><defs><linearGradient id="b" x1="257.574" x2="257.542" y1="746.72" y2="742.73" gradientUnits="userSpaceOnUse"><stop offset="0" stop-color="#010101" stop-opacity="0"/><stop offset="1" stop-opacity=".031"/></linearGradient></defs><path fill="url(#b)" d="M237.021 742.124c4.642.226 9.26-.086 13.882.095-1.129.253-1.891.281-2.771 1.05l-.141.585c1.193.687 1.909.374 3.254.216 1.101.105 2.294.101 3.4.031 1.655-.106 2.353-.33 3.412-1.519l.573-.173c2.117.13 5.079-.436 7.021.285l-.001.371-.977.576-.375.212c3.002 1.932 18.237.017 22.666.823-2.832 2.566-17.959 1.465-21.934 1.496-2.515.019-4.981.354-7.505.228-7.097-.353-14.124.003-21.215-.051-2.538-.019-4.382-.653-6.944.034.226-.435.525-.89.628-1.369.604-.572 1.1-1.09 1.957-1.222.755-.117 1.403-.297 2.127-.528-.817-.599-1.982-.507-2.986-.607 1.991-.029 4.005.048 5.929-.533"/><defs><linearGradient id="c" x1="158.272" x2="158.236" y1="746.704" y2="742.739" gradientUnits="userSpaceOnUse"><stop offset="0" stop-color="#000001" stop-opacity="0"/><stop offset="1" stop-opacity=".035"/></linearGradient></defs><path fill="url(#c)" d="M146.15 742.308c2.071.019 2.426.004 3.963 1.514 3.692 1.247 9.737.528 13.505-.31l-.082-.232-.908-.228.004-.349 2.872-.44c4.182.266 8.56.458 12.725-.056 2.454.952 2.189 2.052 5.534 2.145-1.832 1.682-5.632 2.586-8.107 2.443-4.851-.281-3.207-2.57-8.957-.002-.934-.256-1.869-1.012-2.779-1.12-4.422-.526-26.968 1.871-29.695.221-.196-.118-.504-.624-.664-.822 2.079-1.105 4.387-.841 6.625-1.157 1.108-.156 1.336-.648 1.966-1.467z"/><defs><linearGradient id="d" x1="83.355" x2="95.216" y1="734.797" y2="751.041" gradientUnits="userSpaceOnUse"><stop offset="0" stop-opacity=".086"/><stop offset="1" stop-opacity=".129"/></linearGradient></defs><path fill="url(#d)" d="M73.007 742.46c7.233-.789 14.573-.298 21.817-.135 5.309.119 10.682.021 15.988-.137l-2.05.435c-.166-.026-11.035 1.526-12.118 1.713-1.039-.223-22.093-.333-23.21-.15-.247-.384-.623-.726-.933-1.063z"/><path d="m16.081 744.195.736-1.488c4.01-2.666 4.264 1.109 6.539 1.19 1.55.055 4.018-1.551 5.885-1.713 6.203-.537 12.586.191 18.806.3l-1.463.512-.087.191c-.812.505-1.52.745-2.432.972-1.3.603-19.734.554-22.01.318-1.58-.431-4.255-.147-5.974-.282M222.556 740.949c1.28.113 2.563.245 3.847.307-2.062.131-4.047.301-6.08.698 2.684.144 5.421.201 8.091.502-.878.198-2.103.242-2.698.916.787.603 2.772.555 3.781.445.73-.079.864-.178 1.29-.748l.305-.412c1.004.1 2.169.008 2.986.607-.724.231-1.372.411-2.127.528-.857.132-1.353.65-1.957 1.222-5.011-2.46-14.624.989-17.596-.98-.352-.234-.722-.422-1.063-.675l.356-.625c-3.771-.22-8.45 2.76-12.074.976l.94-.177-.135-.291-2.408-.677c1.289.051 2.793.258 4.024-.163 6.321-.965 13.733.197 20.305-.462l-3.726-.694z"/><defs><linearGradient id="e" x1="156.539" x2="155.95" y1="741.621" y2="744.683" gradientUnits="userSpaceOnUse"><stop offset="0" stop-opacity=".063"/><stop offset="1" stop-opacity=".11"/></linearGradient></defs><path fill="url(#e)" d="m146.15 742.308.671-.682c-.404-.197-.703-.318-1.154-.391 2.936-.275 8.885-1.132 11.654.311l-.25.045c2.986-.24 5.462-.451 8.433-.672l-2.872.44-.004.349.908.228.082.232c-3.768.838-9.813 1.557-13.505.31-1.537-1.51-1.892-1.495-3.963-1.514"/><path d="M122.111 743.959c.738-1.124 1.465-1.804 2.658-2.431 1.287 1.299 13.633.981 16.37.972q.507-.005 1.013-.052c-.63.819-.858 1.311-1.966 1.467-2.238.316-4.546.052-6.625 1.157-2.388-2.037-8.349.051-11.45-1.113M22.054 744.477c-.68.272-1.355.547-2.095.591-4.489.264-13.241.976-16.72-2.015-.299-.976-.13-1.323.139-2.277.13.104.54.507.673.535.47.101 1.427-.087 1.942-.101 2.086-.055 3.738.559 5.636 1.346l.001.753-.566.336-.536-.222 1.114.812q.098-.02.197-.04c1.374-.246 2.852-.074 4.242 0 1.72.135 4.394-.149 5.973.282M201.317 742.18l-.007-.973c.176-.118.375-.244.575-.316 1.596-.577 19.28-.507 20.671.058l-3.939.297 3.726.694c-6.572.659-13.984-.503-20.305.462zM96.644 744.336c1.083-.187 11.952-1.739 12.118-1.713 1.123 1.292 2.012 1.348 3.68 1.464 2.189.152 4.38-.204 6.56-.11 1.127-.328 1.795-.676 2.936-.117.06.029.115.066.173.099-6.823 1.353-13.217.282-20.091.403-1.599.027-2.415.016-3.817.916-.326.209-.449.477-.793.236-.453-.315-.441-.811-.766-1.178"/><path d="M178.229 742.207c1.286-.672 19.357.351 23.088-.027l.721.222c-1.231.421-2.735.214-4.024.163-3.098-.124-11.926.326-14.251 1.787-3.345-.093-3.08-1.193-5.534-2.145M278.909 744.038c2.062.937 4.94-.038 7.074-.484.33-.372.593-.664 1.081-.82q.173-.054.349-.103l.257.092c1.181.413 2.336.491 3.577.571l-.05.474c-.614.278-1.257.526-1.823.895l-.433.296-1.674-.665-.303.382c-4.429-.806-19.664 1.109-22.666-.823l.375-.212c1.167.284 4.801.902 5.818.305 1.698-.31 3.721-.057 5.474-.141.954.013 2.039-.088 2.944.233M58.164 742.478c3.443-.009 6.775-.512 10.243-.263.476.991.628 1.409 1.558 2.05-1.445-.003-2.957.086-4.39-.082-1.873-.64-3.979-.182-5.93-.445-1.188-.161-1.397-.111-2.126-1.055z"/><path d="M46.959 744.519c2.914-1.786 7.224-2.076 10.56-1.836.729.944.938.894 2.127 1.055 1.95.263 4.056-.195 5.93.445-5.904 1.221-12.57-.681-18.617.336M258.63 742.409c3.492-.372 13.083-.857 16.21-.184l-.241.059c-1.369.314-2.612-.063-3.833.617l-.275 1.045c-1.017.597-4.651-.021-5.818-.305l.977-.576.001-.371c-1.942-.721-4.904-.155-7.021-.285"/><defs><linearGradient id="f" x1="112.939" x2="113.085" y1="742.178" y2="743.626" gradientUnits="userSpaceOnUse"><stop offset="0" stop-opacity=".118"/><stop offset="1" stop-opacity=".153"/></linearGradient></defs><path fill="url(#f)" d="M110.812 742.188c2.201-.026 4.674-.059 6.563 1.211.439.295 1.137.33 1.659.328l-.032.25c-2.18-.094-4.371.262-6.56.11-1.668-.116-2.557-.172-3.68-1.464z"/><defs><linearGradient id="g" x1="121.393" x2="119.724" y1="740.187" y2="742.621" gradientUnits="userSpaceOnUse"><stop offset="0" stop-opacity=".067"/><stop offset="1" stop-opacity=".122"/></linearGradient></defs><path fill="url(#g)" d="m119.012 740.284.231.039c1.627 1.056 4.582.056 5.641 1l-.115.205c-1.193.627-1.92 1.307-2.658 2.431-.058-.033-.113-.07-.173-.099-1.141-.559-1.809-.211-2.936.117l.032-.25c.166-1.238.113-1.48-.513-2.561z"/><defs><linearGradient id="h" x1="282.503" x2="283.663" y1="741.829" y2="744.162" gradientUnits="userSpaceOnUse"><stop offset="0" stop-opacity=".035"/><stop offset="1" stop-opacity=".102"/></linearGradient></defs><path fill="url(#h)" d="m278.909 744.038 1.249-.281.731-1.291c2.349-.533 4.8.061 7.29-.457l-.766.622q-.176.05-.349.103c-.488.156-.751.448-1.081.82-2.134.446-5.012 1.421-7.074.484"/><path d="M48.047 742.484c2.98-.17 7.235-.909 10.117-.006l-.645.205c-3.336-.24-7.646.05-10.56 1.836-.942.374-1.923-.111-2.894-.36.912-.227 1.62-.467 2.432-.972l.087-.191z"/><defs><linearGradient id="i" x1="254.688" x2="253.848" y1="742.062" y2="744.435" gradientUnits="userSpaceOnUse"><stop offset="0" stop-opacity=".051"/><stop offset="1" stop-opacity=".118"/></linearGradient></defs><path fill="url(#i)" d="M251.722 742.123c2.118.315 4.199.398 6.335.459-1.059 1.189-1.757 1.413-3.412 1.519-1.106.07-2.299.074-3.4-.031.109-.705.476-1.127.477-1.947"/><defs><linearGradient id="j" x1="227.961" x2="228.041" y1="742.541" y2="743.428" gradientUnits="userSpaceOnUse"><stop offset="0" stop-opacity=".09"/><stop offset="1" stop-opacity=".125"/></linearGradient></defs><path fill="url(#j)" d="M228.414 742.456c2.846-.297 5.747-.269 8.607-.332-1.924.581-3.938.504-5.929.533l-.305.412c-.426.57-.56.669-1.29.748-1.009.11-2.994.158-3.781-.445.595-.674 1.82-.718 2.698-.916"/><defs><linearGradient id="k" x1="273.136" x2="273.418" y1="742.282" y2="743.637" gradientUnits="userSpaceOnUse"><stop offset="0" stop-opacity=".031"/><stop offset="1" stop-opacity=".078"/></linearGradient></defs><path fill="url(#k)" d="m274.84 742.225 1.592.219-.467 1.361c-1.753.084-3.776-.169-5.474.141l.275-1.045c1.221-.68 2.464-.303 3.833-.617z"/><path d="M68.407 742.215q2.298.158 4.6.245l-.506.663c.31.337.686.679.933 1.063-1.177.135-2.294.305-3.47.079-.93-.641-1.08-1.059-1.557-2.05"/><defs><linearGradient id="l" x1="249.269" x2="249.986" y1="742.121" y2="743.942" gradientUnits="userSpaceOnUse"><stop offset="0" stop-opacity=".02"/><stop offset="1" stop-opacity=".078"/></linearGradient></defs><path fill="url(#l)" d="m250.903 742.219.819-.096c-.001.82-.368 1.242-.477 1.947-1.345.158-2.061.471-3.254-.216l.141-.585c.88-.769 1.642-.797 2.771-1.05"/><defs><linearGradient id="m" x1="276.905" x2="276.986" y1="742.436" y2="743.297" gradientUnits="userSpaceOnUse"><stop offset="0" stop-opacity=".059"/><stop offset="1" stop-opacity=".098"/></linearGradient></defs><path fill="url(#m)" d="m276.432 742.444 1.981-.148.342.355-.253.82.407.567c-.905-.321-1.99-.22-2.944-.233z"/></svg>