<svg xmlns="http://www.w3.org/2000/svg" width="258" height="235"><path fill="#1D4895" d="M139.498 77.114c5.646-4.586 10.947-9.843 16.316-14.766 2.068-1.895 4.101-4.143 6.424-5.72.665-.452 1.49-.852 2.32-.735.922.13 2.173 1.332 2.873 1.922 3.515 2.965 6.837 6.174 10.241 9.266l19.893 18.025c2.958 2.664 12.52 10.264 14.333 13.074.731 1.133 1.243 2.591.936 3.948-.242 1.072-1.043 1.974-1.967 2.532-1.662 1.005-3.794.868-5.595.411.079 16.928.314 33.896-.073 50.818 2.285-.009 4.623.401 6.867.813 4.538.832 15.991 3.467 18.696 7.532.425.639.672 1.358.479 2.125-.324 1.29-1.644 2.245-2.72 2.898-6.657 4.04-18.646 5.932-26.43 6.648-7.426.682-14.954.405-22.403.39l-32.889-.013-50.989.004c-18.477.013-37.765 1.04-55.83-3.474-4.85-1.212-10.082-2.817-12.798-7.329 3.692-6.895 12.129-6.684 18.701-8.91-.15-.789-.281-1.715-.683-2.418-1.676-2.935-8.368-7.411-11.177-10.041-3.65-3.419-6.231-7.244-6.369-12.379-.215-8.001 4.872-22.592 10.479-28.442 2.116-2.209 4.954-4 8.095-4.036 3.388-.039 6.36 1.544 8.714 3.873 6.792 6.72 9.828 19.559 9.873 28.829.05 10.173-9.114 15.206-15.391 21.707-.67.693-1.131 1.465-1.105 2.457 1.562.534 5.107-.496 6.785-.731 3.738-.525 7.57-.834 11.338-1.078 2.266-.146 4.618-.13 6.85-.515l.268-.558c-.442-1.881-3.837-2.452-5.031-4.019l-.104-.139a9.3 9.3 0 0 1-1.317-2.329c-1.956-5.095-.47-11.906 1.732-16.685.891-1.932 2.266-4.381 4.383-5.119.963-.335 1.965-.225 2.868.228 2.724 1.366 4.633 5.645 5.546 8.388.457-2.248.08-4.906.042-7.213a498 498 0 0 1-.037-10.919c-2.908.091-7.927.83-10.24-1.257-.616-.557-1.073-1.485-1.084-2.323-.019-1.491 1.29-2.838 2.285-3.813 4.978-4.878 10.59-9.36 15.827-13.974 5.48-4.828 10.865-10.022 16.564-14.576.976-.78 2.35-1.919 3.574-2.198 3.112-.708 7.188-.192 10.391-.16 6.812.07 13.733.233 20.539-.02"/><defs><linearGradient id="a" x1="136.148" x2="108.853" y1="193" y2="83.682" gradientUnits="userSpaceOnUse"><stop offset="0" stop-color="#56AC54"/><stop offset="1" stop-color="#679C73"/></linearGradient></defs><path fill="url(#a)" d="M45.883 156.573c-.15-.789-.281-1.715-.683-2.418-1.676-2.935-8.368-7.411-11.177-10.041-3.65-3.419-6.231-7.244-6.369-12.379-.215-8.001 4.872-22.592 10.479-28.442 2.116-2.209 4.954-4 8.095-4.036 3.388-.039 6.36 1.544 8.714 3.873 6.792 6.72 9.828 19.559 9.873 28.829.05 10.173-9.114 15.206-15.391 21.707-.67.693-1.131 1.465-1.105 2.457 1.562.534 5.107-.496 6.785-.731 3.738-.525 7.57-.834 11.338-1.078 2.266-.146 4.618-.13 6.85-.515l.268-.558c-.442-1.881-3.837-2.452-5.031-4.019l-.104-.139a9.3 9.3 0 0 1-1.317-2.329c-1.956-5.095-.47-11.906 1.732-16.685.891-1.932 2.266-4.381 4.383-5.119.963-.335 1.965-.225 2.868.228 2.724 1.366 4.633 5.645 5.546 8.388.1 3.816-.311 9.779.175 13.293.239 2.447-.05 4.915-.05 7.367.072.781.146 1.521.048 2.302a41 41 0 0 1 .006 3.273c.177 1.328.216 3.008 1.357 3.905.828.651 1.665.84 2.702.876 8.14.281 16.436-.085 24.591-.087l54.36.003 27.25.007c3.71.004 7.976.489 11.611-.047.414-.062.785-.216 1.029-.566.418-.602.42-1.669.348-2.379-.056-.92-.018-1.859-.018-2.781-.042-.97.035-1.881.153-2.843 2.285-.009 4.623.401 6.867.813 4.538.832 15.991 3.467 18.696 7.532.425.639.672 1.358.479 2.125-.324 1.29-1.644 2.245-2.72 2.898-6.657 4.04-18.646 5.932-26.43 6.648-7.426.682-14.954.405-22.403.39l-32.889-.013-50.989.004c-18.477.013-37.765 1.04-55.83-3.474-4.85-1.212-10.082-2.817-12.798-7.329 3.692-6.895 12.129-6.684 18.701-8.91"/><defs><linearGradient id="b" x1="130.186" x2="128.537" y1="178.001" y2="155.892" gradientUnits="userSpaceOnUse"><stop offset="0" stop-color="#A7D885"/><stop offset="1" stop-color="#CCE6B7"/></linearGradient></defs><path fill="url(#b)" d="m75.889 158.877.086.884c1.353.908 4.225.091 5.841.04.177 1.328.216 3.008 1.357 3.905.828.651 1.665.84 2.702.876 8.14.281 16.436-.085 24.591-.087l54.36.003 27.25.007c3.71.004 7.976.489 11.611-.047.414-.062.785-.216 1.029-.566.418-.602.42-1.669.348-2.379 1.02.58 3.156.629 4.373.845 4.141.735 13.484 2.271 16.841 4.573-4.483 4.03-20.395 5.865-26.669 6.405-9.921.854-19.856.762-29.803.762l-34.324-.008-39.695.003c-9.237.003-18.505.162-27.73-.333-8.51-.457-28.35-1.888-35.377-6.594a8 8 0 0 1 .365-.38c2.602-2.498 9.039-3.559 12.468-3.523-.075.819-.154 1.647-.034 2.465.12.824.44 1.656 1.122 2.167.461-.061.55-.05.866-.424 1.324-1.566.855-4.699.738-6.616.1.424.246.827.392 1.237 2.032.613 19.097-2.586 24.641-1.878l.15.126c.538.428 1.016.452 1.65.359.593-.649.648-.964.85-1.822"/><path fill="#FEFEFE" d="M48.205 160.855c.05-.693-.042-1.184.412-1.725 6.338-1.426 18.075-2.458 24.598-2.405l.023 3.489c-5.544-.708-22.61 2.491-24.641 1.878-.146-.41-.293-.813-.392-1.237M205.046 158.732c3.79.17 20.114 3.822 22.591 6.362.151.155.251.312.334.51-.315.721-.987 1.002-1.693 1.327-3.357-2.302-12.7-3.838-16.841-4.573-1.217-.216-3.353-.265-4.373-.845-.056-.92-.018-1.859-.018-2.781M30.298 165.667c4.208-4.12 9.673-4.82 15.222-5.843l-.007 3.439c-3.43-.036-9.866 1.025-12.468 3.523a8 8 0 0 0-.365.38c-.822-.448-1.599-.986-2.382-1.499M75.974 154.115q2.894.106 5.789.111c.071.781.145 1.521.047 2.302a41 41 0 0 1 .006 3.273c-1.616.051-4.489.868-5.84-.04l-.087-.884c.106-.775.076-1.594.091-2.377.114-.753.014-1.62-.006-2.385"/><path fill="#64A270" d="M75.974 154.115q2.894.106 5.789.111c.071.781.145 1.521.047 2.302-1.94-.048-3.888-.021-5.83-.028.114-.753.014-1.62-.006-2.385"/><path fill="#FEFEFE" d="M75.974 154.115c-.009-.5-.105-1.431.15-1.862.764-1.289 3.034-2.243 4.148-3.317.6-.58 1.078-1.383 1.54-2.077.239 2.447-.05 4.915-.05 7.367q-2.895-.005-5.788-.111"/><path fill="#BCE9B9" d="M31.25 135.073c-1.651-8.035 1.786-19.263 6.077-26.038 1.794-2.833 4.488-6.062 7.929-6.792 2.009-.426 3.905.153 5.576 1.282 6.153 4.156 8.747 12.896 10.059 19.771 1.102 3.942 1.795 9.061.204 12.942-2.359 5.789-8.254 10.853-12.927 14.818.4-7.097-.003-14.323.19-21.442-.228-.423-.278-.758-.78-.872-.49-.112-1.17.062-1.567.35-.286.207-.42.457-.476.809-.433 2.739-.024 5.94-.026 8.722-.002 3.722-.536 7.877.074 11.543-4.49-3.893-9.653-7.296-13.174-12.145-.539-.971-.86-1.889-1.159-2.948"/><path fill="#FEFEFE" d="M31.25 135.073c-1.651-8.035 1.786-19.263 6.077-26.038 1.794-2.833 4.488-6.062 7.929-6.792 2.009-.426 3.905.153 5.576 1.282 6.153 4.156 8.747 12.896 10.059 19.771l-.522.148c-1.247-.942-1.799-3.739-2.388-5.149-1.737-4.154-5.776-12.916-11.411-12.065-2.66.401-4.792 2.743-6.285 4.829-4.16 5.808-8.09 15.988-8.08 23.183-.346.545-.35.632-.955.831"/><path fill="#9CDA97" d="M48.357 129.614c.38 2.217.194 4.635.184 6.88-.017 4.025-.072 8.054-.04 12.079 1.709-1.532 3.423-3.062 5.007-4.725 2.328-2.444 4.575-6.041 7.587-7.61-2.359 5.789-8.254 10.853-12.927 14.818.4-7.097-.003-14.323.19-21.442"/><path fill="#E8FEE1" d="M32.206 134.242c.172 1.016.82 2.776.276 3.679-.021.035-.049.066-.073.1-.539-.971-.86-1.889-1.159-2.948.605-.199.609-.286.956-.831"/><path fill="#BCE9B9" d="M70.375 133.994c.466-1.877 1.413-4.84 2.917-6.119.585-.498.917-.516 1.668-.481 1.587 2.25 2.774 4.46 3.723 7.047-.425.997-1.246 2.366-2.314 2.766a4 4 0 0 1-.734.185c-.819.095-1.416.157-2.083.672-.524.714-.576 1.317-.649 2.181-1.174.104-2.626-.512-3.756-.836.32-1.811.562-3.694 1.228-5.415"/><path fill="#FEFEFE" d="M70.375 133.994c.466-1.877 1.413-4.84 2.917-6.119.585-.498.917-.516 1.668-.481-.609 1.377-3.005 5.88-4.132 6.53z"/><defs><linearGradient id="c" x1="75.178" x2="80.212" y1="138.736" y2="143.102" gradientUnits="userSpaceOnUse"><stop offset="0" stop-color="#9FD097"/><stop offset="1" stop-color="#73AF7E"/></linearGradient></defs><path fill="url(#c)" d="M78.683 134.441c.883 3.559 1.073 6.926.971 10.577-.503 1.149-1.507 2.659-2.65 3.245l-.58-.065c-.462-.637-.259-1.593-.2-2.34.193-2.801.273-5.773-.59-8.466a4 4 0 0 0 .735-.185c1.068-.4 1.89-1.769 2.314-2.766"/><path fill="#9CDA97" d="M76.223 145.858c1.183-.175 2.197-.773 3.431-.84-.503 1.149-1.507 2.659-2.65 3.245l-.58-.065c-.462-.637-.259-1.593-.2-2.34M69.147 139.409c1.13.324 2.582.94 3.756.836.8 1.675.305 7.101.386 9.193-.871-.525-1.724-1.081-2.366-1.885-1.823-2.283-2.093-5.341-1.776-8.144"/><path fill="#FEFEFE" d="M164.402 58.691c2.727 3.435 6.719 6.313 9.999 9.24l24.121 21.643c3.494 3.121 7.649 6.091 10.743 9.581.573.647.816.942.91 1.806-.409 1.179-1.461 1.745-2.476 2.367-1.23-.76-3.425-2.499-4.884-2.241-.681 1.671-.561 54.745-.428 60.996-11.438.188-22.947.222-34.385-.008-.739.087-1.5.045-2.244.037-2.223.299-4.613.15-6.861.153L146 162.223c-5.756-.01-14.356.506-19.772-.147l-.019-7.125c-.034-17.153-.323-34.371.127-51.518.018-.806.156-1.748-.365-2.418-.5-.203-.565-.277-1.09-.075-1.705.659-3.065 3.22-5.214 2.357-.623-.25-1.292-.913-1.507-1.547-.138-.403-.069-.617-.006-1.03 2.478-3.514 6.373-6.361 9.593-9.19q4.484-3.99 8.92-8.034L153.65 68.11c3.521-3.189 6.962-6.551 10.752-9.419"/><path fill="#E2EBFD" d="M164.402 58.691c2.727 3.435 6.719 6.313 9.999 9.24l24.121 21.643c3.494 3.121 7.649 6.091 10.743 9.581.573.647.816.942.91 1.806-.409 1.179-1.461 1.745-2.476 2.367-1.23-.76-3.425-2.499-4.884-2.241-.681 1.671-.561 54.745-.428 60.996-11.438.188-22.947.222-34.385-.008.142-2.585-.124-5.193.168-7.77.019.043.031.09.057.129.037.058.307.343.363.363 1.33.459 29.531-.273 33.566.025l-.017-52.346c-4.081-2.613-10.53-9.281-14.417-12.812-7.558-6.865-16.168-14.077-23.309-21.252-4.549 3.173-8.479 7.11-12.588 10.814L136.707 92.62c-3.256 2.907-6.394 6.296-10.18 8.494.01.027.025.052.03.08.108.618.147 1.725-.221 2.239.018-.806.156-1.748-.365-2.418-.5-.203-.565-.277-1.09-.075-1.705.659-3.065 3.22-5.214 2.357-.623-.25-1.292-.913-1.507-1.547-.138-.403-.069-.617-.006-1.03 2.478-3.514 6.373-6.361 9.593-9.19q4.484-3.99 8.92-8.034L153.65 68.11c3.521-3.189 6.962-6.551 10.752-9.419"/><path fill="#FEFEFE" d="M143.292 130.731c1.47-.601 2.754-.948 4.336-1.087 3.329-.293 6.79.24 10.136.259 2.461.013 4.942-.382 7.399-.291.723.027 1.513.116 2.188.393.234.096.358.225.518.414 1.058 3.742.324 8.865.273 12.767q-.036 5.56.028 11.119c-.292 2.577-.026 5.185-.168 7.77-.739.087-1.5.045-2.244.037-2.223.299-4.613.15-6.861.153L146 162.223c-5.756-.01-14.356.506-19.772-.147l-.019-7.125c2.392-.563 14.146-.409 16.738-.025l-.023-13.684c-.008-2.443-.197-5.021.104-7.443.075-1.019.114-2.057.264-3.068"/><path fill="#78AFEF" d="M143.292 130.731c1.47-.601 2.754-.948 4.336-1.087 3.329-.293 6.79.24 10.136.259 2.461.013 4.942-.382 7.399-.291.723.027 1.513.116 2.188.393.234.096.358.225.518.414 1.058 3.742.324 8.865.273 12.767q-.036 5.56.028 11.119c-.292 2.577-.026 5.185-.168 7.77-.739.087-1.5.045-2.244.037-.28-9.946-.025-19.974-.022-29.93-2.698-.032-18.589-.407-19.897.296q.17 14.768-.002 29.534c6.57.067 13.394-.435 19.921.1-2.223.299-4.613.15-6.861.153L146 162.223c-5.756-.01-14.356.506-19.772-.147l-.019-7.125c2.392-.563 14.146-.409 16.738-.025l-.023-13.684c-.008-2.443-.197-5.021.104-7.443.075-1.019.114-2.057.264-3.068"/><path fill="#E2EBFD" d="M143.028 133.799c.495 2.633.222 5.76.22 8.453-.004 6.568-.221 13.184-.047 19.747-5.592-.002-11.408-.327-16.973.077l-.019-7.125c2.392-.563 14.146-.409 16.738-.025l-.023-13.684c-.008-2.443-.197-5.021.104-7.443"/><path fill="#3B77C5" d="M148.997 143.363c.668.13 1.311.389 1.807.874.437.429.537.889.542 1.473.006.845-.772 1.473-1.323 2.021a2.5 2.5 0 0 1-1.493-.624 1.88 1.88 0 0 1-.624-1.327c-.056-1.024.439-1.687 1.091-2.417"/><path fill="#78AFEF" d="M155.573 89.372c3.855-.02 18.813-.81 21.31 1.035.801 2.097.723 17.595 0 19.664-.651.434-1.502.23-2.24.163-7.407-.083-14.836.296-22.24-.063-1.254-6.505-.771-14.053-.106-20.622z"/><path fill="#E2EBFD" d="M169.029 101.124c1.816.027 3.637.087 5.448-.071q.045 3.455.031 6.91l-3.133.018-5.638.015a247 247 0 0 1-.039-6.777zM165.584 91.996l8.928-.021-.036 6.828c-2.921.04-5.842.013-8.763.08q.003-3.444-.129-6.887M158.024 101.118c1.682-.046 3.389.043 5.073.069.043 2.263.03 4.498-.07 6.76l-2.652.033-5.634.02-.083-6.795zM154.567 92.01l8.568-.03q.018 3.407-.111 6.814-4.16.034-8.32.132.02-3.46-.137-6.916"/><path fill="#78AFEF" d="M176.441 129.378c6.646.001 13.405-.389 20.033-.016.127 1.054.186 2.11.223 3.171.068 2.002.536 14.468-.417 15.389-1.012.977-3.547.621-4.843.587-6.352-.038-12.999.478-19.305-.071-.979-4.716-.336-13.679-.292-18.881q2.3-.112 4.601-.179"/><path fill="#E2EBFD" d="m185.205 132.241 8.809-.005-.023 5.743c-2.927.091-5.857-.004-8.784-.065zM185.235 140.364c2.918-.016 5.837.036 8.754-.036l.027 5.583c-2.738.474-6.051.11-8.841.098zM174.467 132.249l8.225-.053-.003 5.769-8.198.016zM174.452 140.303l8.192.043.046 5.64c-2.723.09-5.475.012-8.201.016z"/><path fill="#FEFEFE" d="m84.661 115.344 26.409-.046c4.158.004 8.469.261 12.609.031.124 13.132.383 26.423.011 39.547l-.039 7.238c-12.973.151-26.046.239-39.014-.061.058-2.335.019-4.686.027-7.022-.09-13.168-.526-26.536-.003-39.687"/><path fill="#E2EBFD" d="M84.664 155.031c1.891-.455 36.958-.578 39.026-.155l-.039 7.238c-12.973.151-26.046.239-39.014-.061.058-2.335.019-4.686.027-7.022"/><path fill="#78AFEF" d="M98.742 128.884c5.61-.141 12.133-.702 17.657.468 1.356 5.07.8 14.108.166 19.411-2.294.296-4.631.221-6.94.219-5.877.004-11.878.26-17.738-.161-.911-6.353-.486-13.131-.095-19.515 2.282-.416 4.636-.376 6.95-.422"/><path fill="#E2EBFD" d="m98.882 131.618 3.888.01-.009 6.347-4.823-.002-3.895-.035-.033-6.216zM108.384 131.625c1.911.001 3.816-.002 5.725-.095-.101 2.012.563 4.16-.307 6.032-.708.539-1.313.394-2.177.405l-6.092.002-.058-6.355zM94.049 140.336c2.932-.034 5.839-.046 8.767.136.154 1.932.113 3.867.095 5.802l-8.862-.006c.034-1.975.001-3.956 0-5.932M105.51 140.341q4.259.013 8.518-.034c.098 2.009.086 3.985.008 5.996l-8.518-.037z"/><path fill="#AAC2EA" d="M108.66 80.025a1568 1568 0 0 1 27.585.042c-3.743 3.902-7.917 7.546-11.989 11.105-2.337 2.042-6.387 4.771-8.061 7.28-1.05 1.575-.878 2.789-.547 4.533.805 1.09 1.639 2.011 2.798 2.735 1.715.17 3.342.182 5.063.085l.076 7.187-31.434-.006c-5.22-.013-10.6.259-15.8-.113-.928-.066-2.354-.063-3.017-.72-.053-.772.376-1.36.865-1.922.178-.205.372-.394.57-.58 2.033-2.213 6.483-5.387 8.994-7.603l16.362-14.708c2.626-2.37 5.462-5.582 8.535-7.315"/><path fill="#78AFEF" d="M115.648 102.985c.805 1.09 1.639 2.011 2.798 2.735 1.715.17 3.342.182 5.063.085l.076 7.187-31.434-.006c-5.22-.013-10.6.259-15.8-.113-.928-.066-2.354-.063-3.017-.72-.053-.772.376-1.36.865-1.922.178-.205.372-.394.57-.58.1.056.106.063.226.112 1.314.548 5.246-.207 6.527-.768a8 8 0 0 0 2.374-.258c1.868.234 4.165-.298 6.031-.558a185 185 0 0 0 15.781-2.798c3.326-.749 6.593-1.748 9.94-2.396"/><path fill="#FEFEFE" d="M81.522 108.995c-.243-.289-.526-.59-.627-.961-.146-.532-.017-.984.244-1.459.801-1.461 10.839-10.047 12.514-11.216.626-.436 1.423-.834 2.17-1 .626-.138.923-.098 1.457.235l.13.618c-.675 2.89-10.845 10.723-13.514 13.525a8 8 0 0 1-2.374.258M110.8 81.22c.36.051.714.236 1.05.377.281.352.511.499.435.978-.361 2.277-9.802 9.91-12.094 11.46-.26-.037-.523-.077-.767-.176-.596-.243-.682-.304-.935-.89.021-.33.073-.651.207-.955 1.16-2.626 9.349-9.704 12.104-10.795"/></svg>