<svg xmlns="http://www.w3.org/2000/svg" width="512" height="512" viewBox="0 0 512 512"><path fill="#FCCBBC" d="m222.29 154.358.17.119c1.823 1.335 3.139 3.31 4.839 4.795 6.146 5.369 14.63 11.287 23.209 10.162 6.783-.89 10.773-7.867 15.348-9.309.633 2.379 1.62 4.787 2.679 7.008 1.591 2.561 10.58 14.809 12.88 15.894l.197-.046c4.686-2.031 27.935 6.205 33.878 8.566 2.784 1.105 6.951 2.61 8.521 5.333-1.985 7.948-4.949 15.624-6.345 23.716-1.011 5.865-1.334 11.849-2.105 17.75-1.044 7.991-2.523 15.925-3.427 23.933-.551 4.88-.593 9.977-1.43 14.791-.703 3.964-.663 8.379-.997 12.412a571 571 0 0 0-1.696 33.176c-.116 6.938-.201 13.877.461 20.793.566 5.911 1.653 11.824 2.552 17.693.441 2.879 1.089 5.911 1.112 8.828.018 2.394-1.29 3.84-2.834 5.503 3.489 3.313 6.96 8.2 9.111 12.492 1.033 1.949 1.934 3.924 2.798 5.952.477 1.179 1.078 3.5 2.056 4.249 3.511.788 7.613-.093 11.252.237.762-.131 1.66-.022 2.443-.014 3.421.036 5.073-.576 8.026-2.288.639-.605 1.723-1.031 2.506-1.442 10.136-5.323 28.616-7.809 40.158-8.918 1.636-.157 3.251.009 4.886-.095l.249-.017 12.294 3.431c4.518 1.547 12.442 3.155 16.301 5.124l.429.028c.658.734 1.385 1.455 1.9 2.299 3.312 5.577 7.828 16.836 7.011 23.196-.372 7.076-3.934 13.094-9.106 17.79-11.061 10.043-29.063 12.674-43.449 14.213-6.428 1.608-13.038 2.545-19.544 3.785-4.973.948-9.891 2.171-14.877 3.052-11.862 2.096-23.871 3.69-35.792 5.421-8.06 1.171-16.061 2.69-24.118 3.852a339 339 0 0 1-22.925 2.339c-12.754.851-25.567.185-38.338.661-9.176.343-32.316 2.304-40.029-2.292-4.151-2.473-4.18-3.642-9.414-4.421-10.449-1.935-20.725-4.439-31.256-6.009-10.118-1.622-20.578-3.34-30.476-6.01-6.929-1.868-13.647-4.425-20.514-6.496-2.298-.179-4.633-.419-6.908-.799-2.8-.468-5.58-1.138-8.189-2.275-5.52-2.405-12.142-7.562-15.623-12.495-3.595-5.095-5.299-11.255-4.149-17.443 1.304-7.012 6.593-13.904 12.654-17.552 1.494-.899 3.415-1.223 4.796-2.235q.174-.13.346-.264c-1.977.177-4.133.944-6.064 1.426-5.147 1.285-9.917 2.07-15.246 1.676-4.95-.366-9.097-2.188-12.289-6.059-3.397-4.122-5.906-11.005-5.28-16.38.425-3.662 1.816-6.107 4.942-8.022.84-.515 1.867-1.027 2.537-1.755.839-.91 1.203-2.464 2.21-3.169.352-.247.553-.259.988-.239 2.511.113 3.943 3.043 6.084 3.981 1.395.61 3.149.669 4.624 1.118 3.047.928 6.01 2.354 9.15 2.937 4.253.789 12.29 1.349 16.272-.548 4.804-2.288 9.286-9.21 13.095-13.187 2.665-2.783 5.54-5.406 8.384-8.005 3.566-3.258 7.294-6.596 11.18-9.462 2.136-1.576 4.432-2.947 6.611-4.468 2.425-1.693 4.567-3.32 5.239-6.357 1.002-4.533.535-9.454.613-14.068.069-4.109.502-8.173.651-12.27s-.057-8.138.338-12.235c.653-6.777 1.794-13.604 3.695-20.149 1.007-3.466 2.529-6.8 3.22-10.352.992-5.104.846-10.561 1.293-15.74.208-2.401.702-4.812 1.127-7.182.786-4.382 1.74-8.792 3.264-12.985 2.716-7.474 9.048-18.669 15.706-23.136 2.631-1.765 5.296-2.435 8.405-1.822.184-.294.367-.579.569-.861 3.468-4.84 30.8-13.461 37.75-14.628 2.24-.376 3.699-.219 5.571 1.117 1.31-1.938 2.963-2.6 4.912-3.708 4.566-2.593 6.151-8.273 7.829-12.923 1.016-3.094.958-7.449 1.099-10.718M98.691 388.625l1.93.139c12.444-2.206 46.419 5.247 60.36 8.108 1.622-1.656 2.901-3.87 4.252-5.762 3.709-5.192 7.556-10.598 12.541-14.651l-.116-.215q-.093-.181-.188-.361c-1.715-3.205-1.874-6.831-1.849-10.395.03-4.143.672-8.271 1.155-12.381.785-6.678 1.629-13.401 2.146-20.104.819-10.624.15-21.124.379-31.738.061-2.813.023-5.626.112-8.438.106-3.336.561-7.175-.05-10.461-2.141 19.226-7.336 35.995-15.506 53.489-2.796 5.989-5.727 12.028-9.691 17.35-3.975 5.338-9.344 10.405-14.525 14.557-9.781 7.84-21.233 13.26-32.827 17.859-2.682 1.064-5.453 1.918-8.123 3.004m-48.903-12.311c.656.401 1.257.84 2.031.961.516-.648.496-1.44.616-2.249-.12-1.563-.858-2.315-2.027-3.317-1.094-.938-2.273-1.731-3.208-2.843.095 1.978-.136 5.129 1.422 6.554.357.327.767.621 1.166.894"/><path fill="#BCE9B8" d="m222.29 154.358.17.119c1.823 1.335 3.139 3.31 4.839 4.795 6.146 5.369 14.63 11.287 23.209 10.162 6.783-.89 10.773-7.867 15.348-9.309.633 2.379 1.62 4.787 2.679 7.008 1.591 2.561 10.58 14.809 12.88 15.894l.197-.046c4.686-2.031 27.935 6.205 33.878 8.566 2.784 1.105 6.951 2.61 8.521 5.333-1.985 7.948-4.949 15.624-6.345 23.716-1.011 5.865-1.334 11.849-2.105 17.75-1.044 7.991-2.523 15.925-3.427 23.933-.551 4.88-.593 9.977-1.43 14.791-.703 3.964-.663 8.379-.997 12.412a571 571 0 0 0-1.696 33.176c-.116 6.938-.201 13.877.461 20.793.566 5.911 1.653 11.824 2.552 17.693.441 2.879 1.089 5.911 1.112 8.828.018 2.394-1.29 3.84-2.834 5.503-3.36 1.201-6.775 2.154-10.195 3.165-6.594 1.704-13.013 4.002-19.651 5.582-12.453 2.965-25.122 3.79-37.871 4.253-4.942.18-9.847.785-14.792.375-7.74-.114-16.065-1.072-23.433-3.503-4.675-.401-13.386-3.38-18.321-4.807-2.581-.977-5.147-2.298-7.265-4.081l-.116-.215q-.093-.181-.188-.361c-1.715-3.205-1.874-6.831-1.849-10.395.03-4.143.672-8.271 1.155-12.381.785-6.678 1.629-13.401 2.146-20.104.819-10.624.15-21.124.379-31.738.061-2.813.023-5.626.112-8.438.106-3.336.561-7.175-.05-10.461-.474-1.772-.234-10.033-.599-13.036-1.755-14.422-4.042-28.735-6.35-43.074-1.128-3.536-1.451-7.382-2.414-10.981-1.38-5.152-4.407-10.824-5.351-15.704-.216-1.121-.088-2.351-.089-3.492.184-.294.367-.579.569-.861 3.468-4.84 30.8-13.461 37.75-14.628 2.24-.376 3.699-.219 5.571 1.117 1.31-1.938 2.963-2.6 4.912-3.708 4.566-2.593 6.151-8.273 7.829-12.923 1.016-3.094.958-7.449 1.099-10.718"/><path fill="#9AD795" d="M281.612 182.981c4.686-2.031 27.935 6.205 33.878 8.566 2.784 1.105 6.951 2.61 8.521 5.333-1.985 7.948-4.949 15.624-6.345 23.716-1.011 5.865-1.334 11.849-2.105 17.75-1.044 7.991-2.523 15.925-3.427 23.933-.551 4.88-.593 9.977-1.43 14.791-.703 3.964-.663 8.379-.997 12.412a571 571 0 0 0-1.696 33.176c-.116 6.938-.201 13.877.461 20.793.566 5.911 1.653 11.824 2.552 17.693.441 2.879 1.089 5.911 1.112 8.828.018 2.394-1.29 3.84-2.834 5.503-3.36 1.201-6.775 2.154-10.195 3.165-6.594 1.704-13.013 4.002-19.651 5.582-12.453 2.965-25.122 3.79-37.871 4.253-4.942.18-9.847.785-14.792.375 13.797-2.474 52.599-13.6 62.591-21.94 6.842-5.711 8.151-13.247 8.927-21.565-4.368 4.356-9.389 9.67-14.99 12.345-2.161 1.032-4.521 1.647-6.751 2.531 2.109-2.233 3.307-5.148 5.403-7.426 5.088-5.531 14.305-10.727 16.378-18.161-1.555 1.296-2.847 3.057-4.178 4.585-3.188 3.66-6.727 7.678-10.691 10.484-2.642 1.87-5.862 2.715-8.66 4.348l-.376.221c2.303-3.055 3.767-6.63 6.258-9.555 4.802-5.638 12.385-11.666 16-17.875.175-3.75-.192-7.624-.272-11.381a474 474 0 0 1 .088-18.655c.299-12.869 1.404-25.568 3-38.338 1.172-9.374 2.473-18.743 4.988-27.868 2.58-9.359 6.315-18.266 9.525-27.402-6.712-12.75-29.219-15.611-32.421-20.217"/><path fill="#FCCBBC" d="m222.29 154.358.17.119c1.823 1.335 3.139 3.31 4.839 4.795 6.146 5.369 14.63 11.287 23.209 10.162 6.783-.89 10.773-7.867 15.348-9.309.633 2.379 1.62 4.787 2.679 7.008 1.591 2.561 10.58 14.809 12.88 15.894-2.089 1.924-6.695 3.961-8.217 5.744a75.2 75.2 0 0 1-17.852 7.439c-8.049 2.254-22.753 1.979-30.436-1.548-2.751-1.263-6.514-4.393-9.594-6.113-2.533-2.039-4.775-4.358-6.866-6.842 1.31-1.938 2.963-2.6 4.912-3.708 4.566-2.593 6.151-8.273 7.829-12.923 1.016-3.094.958-7.449 1.099-10.718"/><path fill="#FEABA3" d="m222.29 154.358.17.119c1.823 1.335 3.139 3.31 4.839 4.795 6.146 5.369 14.63 11.287 23.209 10.162 6.783-.89 10.773-7.867 15.348-9.309.633 2.379 1.62 4.787 2.679 7.008-1.696.293-6.041 4.895-7.905 6.152-3.867 2.609-8.567 3.778-13.16 4.198-10.495.959-16.06-1.912-22.945-9.715-1.039-1.178-1.728-2.37-3.334-2.692 1.016-3.094.958-7.449 1.099-10.718"/><path fill="#9AD795" d="M172.414 226.256c2.203 4.144 3.596 9.055 5.186 13.483 2.596 7.227 5.221 14.362 6.889 21.874 2.31 10.397 2.807 20.941 3.321 31.545.536 11.049.922 22.108.327 33.161-.438 8.139-3.048 21.925-1.292 29.34 2.596 10.962 10.384 20.515 16.515 29.688-4.675-.401-13.386-3.38-18.321-4.807-2.581-.977-5.147-2.298-7.265-4.081l-.116-.215q-.093-.181-.188-.361c-1.715-3.205-1.874-6.831-1.849-10.395.03-4.143.672-8.271 1.155-12.381.785-6.678 1.629-13.401 2.146-20.104.819-10.624.15-21.124.379-31.738.061-2.813.023-5.626.112-8.438.106-3.336.561-7.175-.05-10.461-.474-1.772-.234-10.033-.599-13.036-1.755-14.422-4.042-28.735-6.35-43.074M273.198 188.771c.029.665-.211 1.233-.505 1.819-2.863 5.718-8.941 9.492-14.848 11.365-10.642 3.372-21.529 1.856-31.307-3.275-3.726-1.955-9.904-5.922-11.222-10.131 3.08 1.72 6.843 4.85 9.594 6.113 7.683 3.527 22.387 3.802 30.436 1.548a75.2 75.2 0 0 0 17.852-7.439"/><path fill="#FCCBBC" d="m392.787 385.631 12.294 3.431c4.518 1.547 12.442 3.155 16.301 5.124l.429.028c.658.734 1.385 1.455 1.9 2.299 3.312 5.577 7.828 16.836 7.011 23.196-.372 7.076-3.934 13.094-9.106 17.79-11.061 10.043-29.063 12.674-43.449 14.213-6.428 1.608-13.038 2.545-19.544 3.785-4.973.948-9.891 2.171-14.877 3.052-11.862 2.096-23.871 3.69-35.792 5.421-8.06 1.171-16.061 2.69-24.118 3.852a339 339 0 0 1-22.925 2.339c-12.754.851-25.567.185-38.338.661-9.176.343-32.316 2.304-40.029-2.292-4.151-2.473-4.18-3.642-9.414-4.421.2-.276.292-.42.5-.659 1.899-2.171 15.579-3.514 18.995-3.675 3.744-.176 7.541.11 11.27-.262 7.604-.76 16.283-5.688 22.04-10.522 2.023-1.699 3.806-3.71 5.655-5.594 1.061-1.081 2.253-1.994 3.217-3.17 1.85-.939 4.248-1.471 6.296-1.819 3.075-.522 6.167-.746 9.276-.427 6.299.645 12.127 2.844 18.556 1.729 11.062-1.919 22.458-11.343 31.721-17.616 6.046-4.094 12.167-8.138 18.484-11.803 5.072-2.944 10.17-5.829 15.514-8.251 3.891-1.763 7.928-3.177 11.809-4.953l-.197-.264c-.967.192-1.931.579-2.869.885.777-.462 1.254-.739 1.591-1.605.639-.605 1.723-1.031 2.506-1.442 10.136-5.323 28.616-7.809 40.158-8.918 1.636-.157 3.251.009 4.886-.095z"/><path fill="#A0BAE9" d="M426.584 419.442c.201.984.577 2.232 1.438 2.843.3.213.522.092.859.046.57-.409 1.179-.705 1.296-1.449.041-.262.064-.527.09-.791l.455-.382c-.372 7.076-3.934 13.094-9.106 17.79-11.061 10.043-29.063 12.674-43.449 14.213 3.283-2.157 8.412-2.846 12.163-4.008 4.781-1.481 9.557-3.16 14.043-5.393 8.253-4.107 19.232-13.942 22.211-22.869"/><defs><linearGradient id="a" x1="411.136" x2="426.472" y1="407.664" y2="402.345" gradientUnits="userSpaceOnUse"><stop offset="0" stop-color="#C1BBCE"/><stop offset="1" stop-color="#A1BCEA"/></linearGradient></defs><path fill="url(#a)" d="M405.081 389.062c4.518 1.547 12.442 3.155 16.301 5.124l.429.028c.658.734 1.385 1.455 1.9 2.299 3.312 5.577 7.828 16.836 7.011 23.196l-.455.382c-.026.264-.049.529-.09.791-.117.744-.726 1.04-1.296 1.449-.337.046-.559.167-.859-.046-.861-.611-1.237-1.859-1.438-2.843.205-.946.426-1.901.549-2.861.764-5.983-2.368-12.287-5.975-16.862-3.377-4.284-10.951-9.715-16.445-10.379z"/><path fill="#A0BAE9" d="m421.382 394.186.429.028c.658.734 1.385 1.455 1.9 2.299-1.363-.105-1.898-.62-2.839-1.552l.001-.483z"/><defs><linearGradient id="b" x1="372.471" x2="374.577" y1="387.558" y2="396.284" gradientUnits="userSpaceOnUse"><stop offset="0" stop-color="#9ABAF1"/><stop offset="1" stop-color="#CDBEC5"/></linearGradient></defs><path fill="url(#b)" d="m392.787 385.631 12.294 3.431-.368.278c-14.103-4.483-34.474.409-48.445 4.564-3.298.981-6.518 2.188-9.805 3.183l-.197-.264c-.967.192-1.931.579-2.869.885.777-.462 1.254-.739 1.591-1.605.639-.605 1.723-1.031 2.506-1.442 10.136-5.323 28.616-7.809 40.158-8.918 1.636-.157 3.251.009 4.886-.095z"/><path fill="#A0BAE9" d="M299.107 378.64c3.42-1.011 6.835-1.964 10.195-3.165 3.489 3.313 6.96 8.2 9.111 12.492 1.033 1.949 1.934 3.924 2.798 5.952.477 1.179 1.078 3.5 2.056 4.249 3.511.788 7.613-.093 11.252.237.762-.131 1.66-.022 2.443-.014 3.421.036 5.073-.576 8.026-2.288-.337.866-.814 1.143-1.591 1.605.938-.306 1.902-.693 2.869-.885l.197.264c-3.881 1.776-7.918 3.19-11.809 4.953-5.344 2.422-10.442 5.307-15.514 8.251-6.317 3.665-12.438 7.709-18.484 11.803-9.263 6.273-20.659 15.697-31.721 17.616-6.429 1.115-12.257-1.084-18.556-1.729-3.109-.319-6.201-.095-9.276.427-2.048.348-4.446.88-6.296 1.819-4.184 1.249-8.034 3.618-12.226 4.7a47 47 0 0 1-6.884-3.115c-7.191-4.109-13.872-9.102-20.907-13.468-8.065-5.006-16.481-9.479-24.796-14.053-7.128-3.92-14.219-7.921-21.603-11.347a133.7 133.7 0 0 0-55.884-12.813c2.059-.486 4.153-.915 6.184-1.506l1.93.139c12.444-2.206 46.419 5.247 60.36 8.108 1.622-1.656 2.901-3.87 4.252-5.762 3.709-5.192 7.556-10.598 12.541-14.651 2.118 1.783 4.684 3.104 7.265 4.081 4.935 1.427 13.646 4.406 18.321 4.807 7.368 2.431 15.693 3.389 23.433 3.503 4.945.41 9.85-.195 14.792-.375 12.749-.463 25.418-1.288 37.871-4.253 6.638-1.58 13.057-3.878 19.651-5.582"/><path fill="#E1EBFE" d="M299.107 378.64c3.42-1.011 6.835-1.964 10.195-3.165 3.489 3.313 6.96 8.2 9.111 12.492 1.033 1.949 1.934 3.924 2.798 5.952.477 1.179 1.078 3.5 2.056 4.249 3.511.788 7.613-.093 11.252.237-.128.47-.24.933-.514 1.343-1.129 1.69-3.432 2.739-5.315 3.292-4.04 1.187-8.684 1.21-12.883 1.56-5.486.456-11.014 1.023-16.517 1.144-2.966.066-6.313-.339-9.227.117-5.085.797-9.016 4.34-14.158 5.452q.697-1.157 1.44-2.285c6.851-10.269 15.937-11.823 27.159-14.129-2.876-5.072-4.197-10.618-5.397-16.259"/><path fill="#A0BAE9" d="M318.413 387.967c1.033 1.949 1.934 3.924 2.798 5.952-.613-.106-1.223-.18-1.679-.628-1.268-1.243-1.127-3.672-1.119-5.324"/><path fill="#E1EBFE" d="M177.774 376.459c2.118 1.783 4.684 3.104 7.265 4.081-1.978 5.58-6.828 20.278-12.156 22.713-1.895.866-3.837.7-5.738-.047-1.823-.717-3.552-1.711-5.411-2.333-3.763-1.258-7.914-1.965-11.788-2.886-11.743-2.79-23.414-5.142-35.381-6.776-2.948-.403-10.413-.9-12.754-1.65-.57-.183-.784-.384-1.19-.797 12.444-2.206 46.419 5.247 60.36 8.108 1.622-1.656 2.901-3.87 4.252-5.762 3.709-5.192 7.556-10.598 12.541-14.651"/><path fill="#FEABA3" d="M234.807 440.227c-.964 1.176-2.156 2.089-3.217 3.17-1.849 1.884-3.632 3.895-5.655 5.594-5.757 4.834-14.436 9.762-22.04 10.522-3.729.372-7.526.086-11.27.262-3.416.161-17.096 1.504-18.995 3.675-.208.239-.3.383-.5.659-10.449-1.935-20.725-4.439-31.256-6.009 6.576-1.74 13.626-.972 20.385-1.787 5.12-.618 10.097-1.969 15.139-3.008 4.865-1.003 9.825-1.651 14.65-2.834 6.378-1.563 17.627-5.807 23.649-8.659a47 47 0 0 0 6.884 3.115c4.192-1.082 8.042-3.451 12.226-4.7"/><path fill="#A0BAE9" d="m73.811 392.531 1.032-.045.15.266c-1.39 1.125-3.01 1.894-4.394 3.018-4.945 4.022-8.891 9.91-9.53 16.342-.668 6.732 1.686 12.254 5.957 17.357a46.1 46.1 0 0 0 15.727 12.105c2.711 1.276 5.627 2.369 8.131 4.02-2.298-.179-4.633-.419-6.908-.799-2.8-.468-5.58-1.138-8.189-2.275-5.52-2.405-12.142-7.562-15.623-12.495-3.595-5.095-5.299-11.255-4.149-17.443 1.304-7.012 6.593-13.904 12.654-17.552 1.494-.899 3.415-1.223 4.796-2.235q.174-.13.346-.264"/><path fill="#FEABA3" d="M52.435 375.026c6.416-.838 17.96-1.623 23.396 2.47.548.412.85.781.962 1.466-.338.532-.625.838-1.253 1.03-2.332.712-7.963-.278-10.751-.31-3.225-.036-6.446.544-9.667.459-1.742-.046-3.578-.227-5.266-.667-.578-.514-.722-.629-.972-1.351.124-.805.419-1.192.904-1.809.656.401 1.257.84 2.031.961.516-.648.496-1.44.616-2.249"/><path fill="#FCCBBC" d="M324.011 196.88c7.29 1.158 14.367 8.969 18.485 14.671 9.876 13.671 9.967 28.222 10.328 44.31.082 3.639-.23 7.307.276 10.915.803 5.724 3.186 10.599 4.523 16.118 1.657 6.84 1.621 14.23 1.831 21.244.217 7.198.075 14.279-.553 21.452-.085.974-.535 4.17.045 4.983 1.207 1.693 6.056 3.536 8.038 4.726 3.159 1.896 6.178 4.393 8.993 6.767 9.301 7.842 22.637 25.302 33.165 29.886 4.777-.77 14.968-1.062 18.665-2.968 2.69-1.388 4.989-3.712 7.512-5.398 1.309-.876 4.096-2.627 5.717-1.797.979.501 1.206 1.884 1.875 2.675 3.557 4.206 7.058 6.592 8.053 12.698.701 4.304-1.373 8.865-3.886 12.264-2.443 3.303-6.162 5.256-10.192 5.803-5.06.687-10.1-.124-15.075-1.015l-.429-.028c-3.859-1.969-11.783-3.577-16.301-5.124l-12.294-3.431c-3.69-1.75-7.925-2.679-11.768-4.078-13.745-5.003-30.671-11.444-41.721-21.168-4.457-3.922-6.479-8.421-9.334-13.484-2.541-4.506-5.354-8.749-7.407-13.527-3.908-9.095-5.891-18.916-7.793-28.581-1.818-9.239-3.451-18.31-4.06-27.723.837-4.814.879-9.911 1.43-14.791.904-8.008 2.383-15.942 3.427-23.933.771-5.901 1.094-11.885 2.105-17.75 1.396-8.092 4.36-15.768 6.345-23.716M427.76 378.712l-.236.363c1.328 1.217 5.463 1.955 7.288 2.257 1.35-.702 2.6-1.719 3.622-2.848 2.718-3.004 2.058-6.297 1.9-9.96-2.757 4.517-7.631 8.333-12.574 10.188"/><path fill="#FEABA3" d="m434.812 381.332-.319.188a13 13 0 0 1-.885 1.522 2 2 0 0 1-.959.27c-2.07.084-16.363-.828-17.255-1.671-.205-.598-.281-.669-.09-1.261a3.6 3.6 0 0 1 1.186-.876c2.942-1.389 7.954-2.07 10.981-.907q.145.057.289.115l-.236.363c1.328 1.217 5.463 1.955 7.288 2.257"/><path fill="#FCCBBC" d="M208.08 110.429c-.624-4.693-1.984-9.281-2.551-13.97-1.178-9.758.694-23.872 6.785-31.907 4.854-6.403 11.01-10.34 18.223-13.575 2.137-.959 4.143-1.993 6.49-2.34 6.86-1.013 13.818 2.816 20.147 4.796 2.952.924 6.632 1.299 9.121 3.197 1.754 1.339 2.935 3.279 4.627 4.67 4.665 3.837 11.86 5.446 12.689 12.573.231 1.987-.165 3.814-.556 5.749 3.081 5.156 4.256 11.337 2.758 17.237-.551 2.169-1.491 4.228-2.16 6.362-.852 2.722-1.394 5.464-2.533 8.099 2.385 3.419 2.645 8.563 1.939 12.566-.645 3.661-2.14 6.934-4.821 9.543-.936.911-2.104 1.808-2.617 3.031l-.091.265c-.7 2.099-1.087 4.284-1.678 6.415-1.606 5.796-4.084 12.311-7.996 16.985-4.575 1.442-8.565 8.419-15.348 9.309-8.579 1.125-17.063-4.793-23.209-10.162-1.7-1.485-3.016-3.46-4.839-4.795l-.17-.119a65 65 0 0 1-4.337-8.071c-1.568-3.531-2.704-7.047-4.965-10.218-2.45-3.118-5.75-5.427-7.823-8.883a13.76 13.76 0 0 1-1.529-10.535c.747-2.795 1.905-4.771 4.444-6.222"/><path fill="#5B3B2F" d="M208.08 110.429c-.624-4.693-1.984-9.281-2.551-13.97-1.178-9.758.694-23.872 6.785-31.907 4.854-6.403 11.01-10.34 18.223-13.575 2.137-.959 4.143-1.993 6.49-2.34 6.86-1.013 13.818 2.816 20.147 4.796 2.952.924 6.632 1.299 9.121 3.197 1.754 1.339 2.935 3.279 4.627 4.67 4.665 3.837 11.86 5.446 12.689 12.573.231 1.987-.165 3.814-.556 5.749 3.081 5.156 4.256 11.337 2.758 17.237-.551 2.169-1.491 4.228-2.16 6.362-.852 2.722-1.394 5.464-2.533 8.099-1.607 3.082-2.725 6.035-5.727 8.059q-.03-.12-.057-.24c-.743-3.347-.665-7.084-.919-10.507-.676-9.138-3.412-18.717-9.879-25.522-12.885 2.006-19.244.55-31.291-3.83-3.662-1.332-7.229-2.907-11.118-3.395-.504-.063-1.006-.141-1.509-.21-3.931 7.822-7.889 17.949-8.653 26.704-.48 5.503.027 11.616.533 17.127-.124.112-.227.253-.371.337-.522.305-.894.18-1.396-.007-1.676-2.197-1.771-6.401-2.555-9.079z"/><path fill="#FEABA3" d="M212.988 136.069c-2.45-3.118-5.75-5.427-7.823-8.883a13.76 13.76 0 0 1-1.529-10.535c.747-2.795 1.905-4.771 4.444-6.222l.098.328c.784 2.678.879 6.882 2.555 9.079.502.187.874.312 1.396.007.144-.084.247-.225.371-.337.537 4.513 1.376 12.25.488 16.563M275.393 119.379c3.002-2.024 4.12-4.977 5.727-8.059 2.385 3.419 2.645 8.563 1.939 12.566-.645 3.661-2.14 6.934-4.821 9.543-.936.911-2.104 1.808-2.617 3.031-.657-5.757.095-11.373-.228-17.081"/><path fill="#5B3B2F" d="M224.423 101.852c3.035-.353 10.749-.317 13.205 1.769.503.427.558.703.595 1.336-.195.422-.305.668-.681.964-.657.517-6.824-1.198-8.232-1.331-3.419-.266-12.25 1.087-14.715.018l.043-.36c2.752-1.777 6.596-2.067 9.785-2.396M254.831 101.587c4.163-.16 9.57.643 13.46 2.166.989.387 2.186.825 2.623 1.835l-.301.289c-1.622.27-3.113-.113-4.669-.535-6.439-1.817-9.404.687-14.992.627-.514-.388-.663-.695-.915-1.281.028-.417.044-.751.305-1.102.996-1.342 2.955-1.763 4.489-1.999"/><path fill="#FEABA3" d="M245.893 129.113c.67.043 1.118.099 1.706.445.726.426 1.267.944 1.45 1.8.195.917-.207 1.959-.772 2.676-.851 1.08-1.992 1.265-3.282 1.444-1.233-.205-2.447-.313-3.227-1.392.014-1.712 2.913-3.124 3.934-4.675q.097-.149.191-.298"/><path fill="#5B3B2F" d="M253.936 112.901c2.564.219 5.033 1.076 7.631 1.158 1.485.047 3.369-.996 4.689-.677.104.725-.215 1.034-.549 1.661-1.871 1.241-4.344 1.53-6.553 1.576-1.45.03-3.668-.098-4.703-1.282-.609-.696-.512-1.568-.515-2.436M221.823 112.646c1.7.101 3.254 1.249 4.982 1.363 2.1.137 5.215-1.473 7.025-.431.181.694.015.867-.247 1.517-.543.343-1.09.67-1.683.921-2.102.889-4.578 1.163-6.725.254-1.745-.738-2.68-1.896-3.352-3.624"/></svg>