<?xml version="1.0" encoding="utf-8" ?><svg xmlns="http://www.w3.org/2000/svg" xmlns:xlink="http://www.w3.org/1999/xlink" width="200" height="200" viewBox="0 0 200 200"><path fill="#082D8F" d="M32.5919 41.857C40.8118 41.4191 49.2357 41.8331 57.4812 41.8285L107.884 41.8084L148.459 41.8397C155.004 41.843 161.799 41.3868 168.311 41.8868C170.213 42.0328 171.55 42.4424 173.048 43.6671C175.334 45.537 175.757 47.1691 176.046 50.0498C176.56 55.1546 176.146 60.6229 176.142 65.7743L176.124 97.3718L176.152 132.466C176.16 138.251 176.553 144.292 176.091 150.043C175.925 152.106 175.582 153.791 174.22 155.427C172.435 157.572 170.094 158.153 167.443 158.391C157.899 158.615 148.302 158.407 138.752 158.404L82.06 158.372L47.9536 158.351C42.6324 158.355 37.0988 158.796 31.8042 158.382C29.9016 158.233 28.2694 157.709 26.7572 156.5C24.8253 154.957 24.1346 152.55 23.8791 150.171C23.3977 145.686 23.7777 140.811 23.7883 136.294L23.8191 108.834L23.8463 68.9072C23.8601 62.8965 23.4532 56.625 23.8843 50.644C24.0318 48.5982 24.3401 46.4878 25.6922 44.8625C27.4714 42.7236 29.9596 42.1309 32.5919 41.857Z"/><path fill="#FAFAFC" d="M26.1217 151.754C25.7996 150.831 25.7983 149.844 25.7749 148.877C25.6027 141.764 25.7525 134.617 25.7533 127.5L25.7512 87.23L25.7537 63.3399C25.7544 59.1633 25.4983 54.7824 25.8794 50.6298C26.0673 48.5832 26.5805 46.7274 28.2525 45.3735C29.5051 44.3591 31.0817 44.0376 32.6464 43.9003C36.4758 43.5644 40.5169 43.8465 44.3686 43.8468L67.7332 43.8317L89.3315 43.8018C93.048 43.7958 97.0211 43.5048 100.709 43.9006L149.193 43.8277C152.745 43.8228 166.735 43.3059 169.126 44.1397C170.785 44.5609 172.237 45.0919 173.154 46.6608C173.954 48.0275 174.169 49.879 174.243 51.4342C174.56 58.0764 174.27 64.8613 174.261 71.5174L174.267 109.218L174.27 136.526C174.27 140.659 174.827 148.288 173.788 152.064C173.398 153.481 172.251 154.93 170.971 155.65C169.349 156.563 167.175 156.456 165.365 156.486C158.654 156.598 151.93 156.355 145.217 156.333L94.4782 156.255C79.2609 156.389 64.0431 156.443 48.8252 156.418C44.8245 156.423 32.655 156.941 29.7176 156.037C28.5229 155.669 27.1446 154.314 26.5813 153.187C26.3576 152.739 26.1913 152.25 26.1217 151.754Z"/><path fill="#ADC5E7" d="M100.709 43.9006L149.193 43.8277C152.745 43.8228 166.735 43.3059 169.126 44.1397C170.785 44.5609 172.237 45.0919 173.154 46.6608C173.954 48.0275 174.169 49.879 174.243 51.4342C174.56 58.0764 174.27 64.8613 174.261 71.5174L174.267 109.218L174.27 136.526C174.27 140.659 174.827 148.288 173.788 152.064C173.398 153.481 172.251 154.93 170.971 155.65C169.349 156.563 167.175 156.456 165.365 156.486C158.654 156.598 151.93 156.355 145.217 156.333L94.4782 156.255C79.2609 156.389 64.0431 156.443 48.8252 156.418C44.8245 156.423 32.655 156.941 29.7176 156.037C28.5229 155.669 27.1446 154.314 26.5813 153.187C26.3576 152.739 26.1913 152.25 26.1217 151.754C31.1656 151.364 36.5508 151.735 41.636 151.707C53.1558 151.615 64.6761 151.597 76.1962 151.653C78.5444 151.664 87.9029 152.118 89.4409 151.738C88.9763 150.434 88.5374 149.122 88.1245 147.801C88.8642 147.994 89.3368 147.414 90.0655 147.48C94.0949 147.608 98.1427 147.532 102.175 147.521C104.749 147.515 107.427 147.654 109.987 147.425C110.626 147.203 111.237 147.41 111.872 147.556L144.598 147.568C150.716 147.581 157.116 147.976 163.197 147.407C163.763 142.511 163.373 137.202 163.365 132.258L163.337 103.86L163.348 71.3731C163.365 65.8932 164.025 56.722 162.87 51.5831C159.568 50.6252 144.489 51.1642 140.027 51.1576C131.941 51.1455 123.623 50.7238 115.562 51.2091C110.862 50.8375 105.965 51.0695 101.249 51.1432C102.293 50.1824 102.955 49.3025 103.497 48.0011L103.215 46.532C102.659 45.6722 102.112 45.0959 101.157 44.6967L100.78 44.4879L100.709 43.9006Z"/><path fill="#7C8FB8" d="M169.126 44.1397C170.785 44.5609 172.237 45.0919 173.154 46.6608C173.954 48.0275 174.169 49.879 174.243 51.4342C174.56 58.0764 174.27 64.8613 174.261 71.5174L174.267 109.218L174.27 136.526C174.27 140.659 174.827 148.288 173.788 152.064C173.398 153.481 172.251 154.93 170.971 155.65C169.349 156.563 167.175 156.456 165.365 156.486C158.654 156.598 151.93 156.355 145.217 156.333L94.4782 156.255C79.2609 156.389 64.0431 156.443 48.8252 156.418C44.8245 156.423 32.655 156.941 29.7176 156.037C28.5229 155.669 27.1446 154.314 26.5813 153.187C26.3576 152.739 26.1913 152.25 26.1217 151.754C31.1656 151.364 36.5508 151.735 41.636 151.707C53.1558 151.615 64.6761 151.597 76.1962 151.653C78.5444 151.664 87.9029 152.118 89.4409 151.738C88.9763 150.434 88.5374 149.122 88.1245 147.801C88.8642 147.994 89.3368 147.414 90.0655 147.48C94.0949 147.608 98.1427 147.532 102.175 147.521C104.749 147.515 107.427 147.654 109.987 147.425C110.626 147.203 111.237 147.41 111.872 147.556C111.659 149.065 111.137 150.48 110.643 151.914C115.372 151.378 120.435 151.705 125.203 151.697L152.216 151.714C156.237 151.732 160.598 152.097 164.584 151.627C165.834 151.48 166.858 151.269 167.805 150.367C168.691 149.523 169.343 148.514 169.501 147.286C169.96 143.724 169.727 139.989 169.721 136.398L169.711 118.353L169.734 73.4205C169.733 65.0001 169.584 56.5541 169.771 48.1379C169.687 46.825 169.345 45.4423 169.126 44.1397Z"/><path fill="#ADC5E7" d="M109.987 147.425C110.626 147.203 111.237 147.41 111.872 147.556C111.659 149.065 111.137 150.48 110.643 151.914C110.331 152.886 109.676 153.923 109.209 154.839C103.399 155.394 97.0254 155.135 91.1817 154.952C90.4792 153.907 89.931 152.898 89.4409 151.738C88.9763 150.434 88.5374 149.122 88.1245 147.801C88.8642 147.994 89.3368 147.414 90.0655 147.48C94.0949 147.608 98.1427 147.532 102.175 147.521C104.749 147.515 107.427 147.654 109.987 147.425Z"/><path fill="#0C378D" d="M109.987 147.425C110.626 147.203 111.237 147.41 111.872 147.556C111.659 149.065 111.137 150.48 110.643 151.914C110.331 152.886 109.676 153.923 109.209 154.839C103.399 155.394 97.0254 155.135 91.1817 154.952C90.4792 153.907 89.931 152.898 89.4409 151.738C88.9763 150.434 88.5374 149.122 88.1245 147.801C88.8642 147.994 89.3368 147.414 90.0655 147.48C90.5818 149.333 91.4891 151.06 91.9867 152.911C97.3472 152.916 102.824 152.703 108.172 153.004L109.987 147.425Z"/><path fill="#E6E5E6" d="M92.1435 155.373C95.2315 154.809 103.814 155.128 107.11 155.48L106.313 155.508C107.046 155.822 108.041 155.734 108.833 155.754C107.362 156.304 92.5442 156.219 90.8013 155.84C91.2427 155.741 91.6113 155.62 92.0199 155.431L92.1435 155.373Z"/><path fill="#BCE8B8" d="M100.709 43.9006L149.193 43.8277C152.745 43.8228 166.735 43.3059 169.126 44.1397C169.345 45.4423 169.687 46.825 169.771 48.1379C164.391 47.9444 158.933 48.2292 153.543 48.2125L119.411 48.0166C114.136 48.0113 108.761 48.2573 103.497 48.0011L103.215 46.532C102.659 45.6722 102.112 45.0959 101.157 44.6967L100.78 44.4879L100.709 43.9006Z"/><path fill="#ADC5E7" d="M26.1217 151.754C25.7996 150.831 25.7983 149.844 25.7749 148.877C25.6027 141.764 25.7525 134.617 25.7533 127.5L25.7512 87.23L25.7537 63.3399C25.7544 59.1633 25.4983 54.7824 25.8794 50.6298C26.0673 48.5832 26.5805 46.7274 28.2525 45.3735C29.5051 44.3591 31.0817 44.0376 32.6464 43.9003C36.4758 43.5644 40.5169 43.8465 44.3686 43.8468L67.7332 43.8317L89.3315 43.8018C93.048 43.7958 97.0211 43.5048 100.709 43.9006L100.78 44.4879L101.157 44.6967C102.112 45.0959 102.659 45.6722 103.215 46.532L103.497 48.0011C102.955 49.3025 102.293 50.1824 101.249 51.1432C100.396 51.1531 99.5084 50.9202 98.6711 51.0801C94.1946 51.684 87.713 51.2196 82.9412 51.2144L49.7902 51.1985C46.409 51.1985 40.1613 50.6106 37.1546 51.6928C36.2669 53.5274 36.8381 71.2446 36.8433 74.9389L36.892 126.025C36.8818 129.432 36.4495 145.07 36.9363 146.669C37.0014 146.883 37.1231 147.072 37.2605 147.246C37.574 147.379 37.8977 147.544 38.2359 147.591C43.0227 147.485 87.2164 147.186 88.1245 147.801C88.5374 149.122 88.9763 150.434 89.4409 151.738C87.9029 152.118 78.5444 151.664 76.1962 151.653C64.6761 151.597 53.1558 151.615 41.636 151.707C36.5508 151.735 31.1656 151.364 26.1217 151.754Z"/><path fill="#082D8F" d="M100.78 44.4879L101.157 44.6967C102.112 45.0959 102.659 45.6722 103.215 46.532L103.497 48.0011C102.955 49.3025 102.293 50.1824 101.249 51.1432C100.396 51.1531 99.5084 50.9202 98.6711 51.0801C98.2633 50.7919 97.8833 50.4796 97.5373 50.1182C96.8057 49.3542 96.4562 48.4222 96.4934 47.3618C96.5211 46.5753 96.873 45.8544 97.4575 45.3309C98.4725 44.4216 99.5012 44.4059 100.78 44.4879Z"/><path fill="#FAFAFC" d="M100.144 46.1204C100.738 46.222 101.217 46.6606 101.372 47.2428C101.547 47.903 101.266 48.5997 100.682 48.9537C100.098 49.3077 99.3502 49.2343 98.846 48.7735C98.3418 48.3127 98.2017 47.5747 98.5018 46.9611C98.802 46.3476 99.4706 46.0052 100.144 46.1204Z"/><path fill="#0C378D" d="M101.157 44.6967C102.112 45.0959 102.659 45.6722 103.215 46.532C102.682 47.1039 102.587 47.4115 101.788 47.4712L101.372 47.2428C101.217 46.6606 100.738 46.222 100.144 46.1204C99.7553 45.9723 99.5917 45.807 99.3487 45.4736C99.8949 44.9423 100.438 44.8922 101.157 44.6967Z"/><path fill="#082D8F" d="M115.562 51.2091C123.623 50.7238 131.941 51.1455 140.027 51.1576C144.489 51.1642 159.568 50.6252 162.87 51.5831C164.025 56.722 163.365 65.8932 163.348 71.3731L163.337 103.86L163.365 132.258C163.373 137.202 163.763 142.511 163.197 147.407C157.116 147.976 150.716 147.581 144.598 147.568L111.872 147.556C111.237 147.41 110.626 147.203 109.987 147.425C107.427 147.654 104.749 147.515 102.175 147.521C98.1427 147.532 94.0949 147.608 90.0655 147.48C89.3368 147.414 88.8642 147.994 88.1245 147.801C87.2164 147.186 43.0227 147.485 38.2359 147.591C38.4324 146.942 38.6555 146.372 38.9748 145.774C44.2465 145.496 49.6329 145.717 54.9153 145.717L85.4577 145.718C110.726 145.718 136.036 145.358 161.297 145.748C161.513 141.579 161.357 137.43 161.341 133.258L161.356 113.769L161.369 53.1899C148.059 53.0252 134.743 53.2073 121.431 53.1617C121.26 53.0078 120.998 52.9189 120.767 52.904C117.397 52.6861 113.885 52.8918 110.5 52.8896C106.663 52.8871 102.861 52.6793 99.0335 52.4321C104.595 50.9983 109.985 51.8777 115.562 51.2091Z"/><path fill="#0C378D" d="M98.6711 51.0801C99.5084 50.9202 100.396 51.1531 101.249 51.1432C105.965 51.0695 110.862 50.8375 115.562 51.2091C109.985 51.8777 104.595 50.9983 99.0335 52.4321C102.861 52.6793 106.663 52.8871 110.5 52.8896C113.885 52.8918 117.397 52.6861 120.767 52.904C120.998 52.9189 121.26 53.0078 121.431 53.1617L65.0475 53.2265C56.3047 53.2313 47.5442 53.0945 38.8038 53.2133C38.7865 62.4022 38.4227 144.692 38.9748 145.774C38.6555 146.372 38.4324 146.942 38.2359 147.591C37.8977 147.544 37.574 147.379 37.2605 147.246C37.1231 147.072 37.0014 146.883 36.9363 146.669C36.4495 145.07 36.8818 129.432 36.892 126.025L36.8433 74.9389C36.8381 71.2446 36.2669 53.5274 37.1546 51.6928C40.1613 50.6106 46.409 51.1985 49.7902 51.1985L82.9412 51.2144C87.713 51.2196 94.1946 51.684 98.6711 51.0801Z"/><path fill="#4DA246" d="M83.9442 141.347C83.562 141.31 83.0428 141.305 82.7077 141.112C82.3257 140.891 82.2704 140.507 82.1997 140.101C81.5633 136.451 82.097 126.878 82.1009 122.588C82.1092 113.303 81.6309 103.873 82.0346 94.6088C82.0751 93.6794 82.1153 92.3075 82.6713 91.5318C83.7206 91.4725 84.767 91.8226 85.7561 92.1349C89.6292 93.3581 127.527 106.501 128.482 107.218C129.306 107.836 129.089 108.682 129.195 109.582C131.463 110.49 148.271 109.078 152.828 109.7C154.646 109.949 155.141 110.529 156.2 111.912C156.507 119.624 156.286 127.563 156.26 135.287C156.255 136.654 156.251 139.503 155.112 140.447C154.485 140.965 153.296 141.036 152.511 141.088C149.038 141.317 145.359 140.975 141.859 140.99C136.457 141.015 130.67 141.477 125.306 140.902C122.07 141.377 97.3589 141.842 95.1304 140.802C94.3339 141.316 93.8392 141.269 92.9127 141.104C90.6125 141.19 85.8262 140.865 83.9442 141.347Z"/><path fill="#FAFAFC" d="M84.0746 93.9163C94.298 97.715 104.994 100.578 115.043 104.781C109.046 113.795 103.89 123.403 97.722 132.305C95.0684 131.39 87.4191 131.977 84.2942 132.018L84.3556 115.721C84.3642 112.487 84.5258 109.132 84.2083 105.915C84.0543 101.937 84.4477 97.8706 84.0746 93.9163Z"/><path fill="#FAFAFC" d="M117.08 105.347C120.701 106.793 124.35 108.168 128.025 109.471C126.957 109.631 124.832 109.598 124.178 110.508C123.141 111.952 123.751 129.18 123.71 131.982C123.632 134.744 122.97 138.529 125.066 140.681C125.142 140.759 125.225 140.83 125.306 140.902C122.07 141.377 97.3589 141.842 95.1304 140.802C96.5749 137.723 98.754 134.406 100.801 131.685C106.222 122.96 112.052 114.296 117.08 105.347Z"/><path fill="#E6E5E6" d="M95.1304 140.802C96.5749 137.723 98.754 134.406 100.801 131.685C101.415 131.943 122.81 132.267 123.608 132.024C123.643 132.014 123.676 131.996 123.71 131.982C123.632 134.744 122.97 138.529 125.066 140.681C125.142 140.759 125.225 140.83 125.306 140.902C122.07 141.377 97.3589 141.842 95.1304 140.802Z"/><path fill="#E6E5E6" d="M83.9442 141.347C84.1987 138.24 84.0286 135.021 84.0312 131.902C84.0384 123.294 83.7058 114.501 84.2083 105.915C84.5258 109.132 84.3642 112.487 84.3556 115.721L84.2942 132.018C87.4191 131.977 95.0684 131.39 97.722 132.305C96.2003 135.132 93.5998 137.968 92.9127 141.104C90.6125 141.19 85.8262 140.865 83.9442 141.347Z"/><path fill="#BCE8B8" d="M125.691 111.735L149.423 111.751C150.507 111.719 152.76 111.412 153.625 112.18C154.721 113.152 154.147 129.937 154.124 132.136C154.11 133.493 154.419 137.845 153.552 138.731C153.009 139.286 151.176 139.228 150.424 139.186C150.105 139.167 149.786 139.134 149.47 139.086C142.347 138.739 132.35 140.037 125.8 138.939C125.484 135.347 125.607 131.677 125.613 128.072L125.691 111.735Z"/><path fill="#0C378D" d="M148.883 130.693C146.486 134.9 141.534 136.935 136.872 135.631C132.209 134.327 129.032 130.018 129.166 125.178C129.299 120.338 132.709 116.21 137.436 115.165C142.163 114.12 146.995 116.425 149.157 120.757C150.729 123.907 150.626 127.634 148.883 130.693Z"/><path fill="#FAFAFC" d="M139.059 116.909C143.78 116.542 147.904 120.073 148.268 124.795C148.632 129.516 145.098 133.638 140.376 133.998C135.659 134.359 131.542 130.829 131.178 126.112C130.815 121.395 134.342 117.276 139.059 116.909Z"/><path fill="#0C378D" d="M135.927 127.113C137.923 127.039 140.575 126.613 142.482 127.153C143.209 127.359 143.508 127.66 143.879 128.291C143.989 129.618 143.217 130.642 142.469 131.657C141.724 132.116 141.005 132.561 140.108 132.623C138.89 132.707 137.362 132.06 136.468 131.242C135.887 130.709 135.348 129.892 135.338 129.079C135.33 128.349 135.412 127.659 135.927 127.113Z"/><path fill="#E6E5E6" d="M137.463 129.074C138.487 129.007 139.68 128.824 140.69 128.964C141.208 129.035 141.337 129.072 141.649 129.486L141.318 130.229C141.186 130.324 141.051 130.415 140.914 130.502C140.195 130.957 139.694 130.928 138.9 130.757C138.245 130.254 137.875 129.787 137.463 129.074Z"/><path fill="#9AD897" d="M149.423 111.751C150.507 111.719 152.76 111.412 153.625 112.18C154.721 113.152 154.147 129.937 154.124 132.136C154.11 133.493 154.419 137.845 153.552 138.731C153.009 139.286 151.176 139.228 150.424 139.186C150.105 139.167 149.786 139.134 149.47 139.086C149.467 137.04 149.936 132.386 148.883 130.693C150.626 127.634 150.729 123.907 149.157 120.757C149.84 119.709 149.434 113.277 149.423 111.751Z"/><path fill="#FAFAFC" d="M46.009 141.107C45.2162 140.978 44.8962 141.043 44.3386 140.442C43.8279 137.494 44.1353 134.209 44.1712 131.216C44.21 127.143 44.2277 123.069 44.2244 118.995C44.2324 114.133 44.2814 109.266 44.2292 104.404C44.2053 102.181 43.9356 99.8652 44.058 97.6558C44.1051 96.8056 44.3026 95.8789 44.8168 95.1817C45.4532 94.3189 46.5027 93.9562 47.5289 93.8263C50.2177 93.4858 53.364 93.9566 56.1189 93.9637C61.0585 93.9764 66.1823 93.5929 71.0979 93.88C72.1146 93.9394 73.0933 94.074 74.025 94.508C74.755 95.4421 74.882 96.8714 74.9532 98.0263C75.1355 100.981 74.9253 104.045 74.8925 107.007C74.8555 111.84 74.8488 116.674 74.8726 121.507C74.8784 124.758 74.8068 128.025 74.8776 131.273C74.9344 133.882 75.2393 136.701 74.9317 139.284C74.8657 139.838 74.7207 140.357 74.4949 140.867C73.9485 141.269 73.7333 141.238 73.0715 141.291C71.2253 140.973 68.8807 141.242 66.992 141.248L54.0721 141.29C51.4082 141.296 48.6513 141.449 46.009 141.107Z"/><path fill="#E6E5E6" d="M72.6446 132.018C72.637 131.182 72.432 129.764 72.916 129.066C73.0152 133.133 72.7543 137.236 73.0715 141.291C71.2253 140.973 68.8807 141.242 66.992 141.248L54.0721 141.29C51.4082 141.296 48.6513 141.449 46.009 141.107C46.376 137.059 46.0286 132.682 46.0561 128.603C46.4111 129.684 46.32 130.947 46.3418 132.077C55.094 131.843 63.8904 131.921 72.6446 132.018Z"/><path fill="#4DA246" d="M46.009 141.107C45.2162 140.978 44.8962 141.043 44.3386 140.442C43.8279 137.494 44.1353 134.209 44.1712 131.216C44.21 127.143 44.2277 123.069 44.2244 118.995C44.2324 114.133 44.2814 109.266 44.2292 104.404C44.2053 102.181 43.9356 99.8652 44.058 97.6558C44.1051 96.8056 44.3026 95.8789 44.8168 95.1817C45.4532 94.3189 46.5027 93.9562 47.5289 93.8263C50.2177 93.4858 53.364 93.9566 56.1189 93.9637C61.0585 93.9764 66.1823 93.5929 71.0979 93.88C72.1146 93.9394 73.0933 94.074 74.025 94.508C74.755 95.4421 74.882 96.8714 74.9532 98.0263C75.1355 100.981 74.9253 104.045 74.8925 107.007C74.8555 111.84 74.8488 116.674 74.8726 121.507C74.8784 124.758 74.8068 128.025 74.8776 131.273C74.9344 133.882 75.2393 136.701 74.9317 139.284C74.8657 139.838 74.7207 140.357 74.4949 140.867C73.9485 141.269 73.7333 141.238 73.0715 141.291C72.7543 137.236 73.0152 133.133 72.916 129.066L72.9524 107.941C72.9517 104.109 73.2924 99.8767 72.6605 96.1023C67.585 95.6141 62.3728 95.826 57.2739 95.8181C53.62 95.8124 49.8047 95.5273 46.1844 96.0141C45.6218 101.706 45.9831 107.704 45.997 113.425C46.0092 118.438 45.7309 123.62 46.0561 128.603C46.0286 132.682 46.376 137.059 46.009 141.107Z"/><path fill="#4DA246" d="M46.1305 56.2966C50.4175 55.9074 54.9296 56.2223 59.2403 56.2076C63.5963 56.1927 70.2358 55.6191 74.3968 56.461C74.9142 56.5657 75.593 56.7066 75.8802 57.1799C76.349 57.9524 76.4289 59.5676 76.4835 60.4663C76.7759 65.2755 76.5094 70.2308 76.5184 75.054C76.5239 77.9661 76.9969 83.929 76.3637 86.5986C76.1036 87.6953 75.3412 88.2311 74.4207 88.7752C71.4052 89.1551 46.8353 89.3232 45.1888 88.299C44.5527 87.173 44.349 85.6959 44.245 84.4206C44.0235 81.7058 43.9544 59.5844 44.3072 58.2832C44.5826 57.2672 45.2499 56.7837 46.1305 56.2966Z"/><path fill="#BCE8B8" d="M46.6867 58.2884L63.9284 58.2456C67.3388 58.2383 70.8698 58.0332 74.2561 58.4302L74.273 58.6052C74.7535 63.9024 74.4844 69.4217 74.498 74.7436C74.5071 78.2947 74.8313 82.1928 74.4064 85.6987C74.3566 86.1098 74.2123 86.4179 73.9463 86.7332C70.2795 87.065 48.8932 87.454 46.8082 86.3804C46.6226 86.0521 46.4788 85.7129 46.3985 85.3428C45.6534 81.9091 46.3092 76.2804 46.3117 72.5926C46.3146 68.3246 45.988 63.9806 46.2594 59.7263C46.2948 59.1708 46.3765 58.7603 46.6867 58.2884Z"/><path fill="#FAFAFC" d="M56.4318 68.1596C57.6224 65.7488 58.7376 63.5457 60.582 61.5514C60.6032 61.5284 60.6249 61.5061 60.6464 61.4834C62.3608 63.5646 63.5612 65.7597 64.7724 68.1558C66.6524 68.4266 69.7882 68.5075 71.2016 69.8617C71.4034 70.5323 71.4246 70.7734 71.0717 71.3947C70.146 73.0245 68.3265 74.4719 67.0555 75.8597C67.4823 77.7369 68.2893 81.0197 67.2532 82.7595C66.7789 82.9643 66.6716 82.9621 66.1555 82.8987C64.1687 82.4638 62.2878 81.3229 60.5126 80.3614L56.922 82.1707C55.8116 82.5346 54.6767 82.9764 53.5334 83.2127C53.4233 80.7296 53.5998 78.3351 53.9386 75.8763C52.8447 74.4489 49.7004 71.9837 49.6031 70.2281C50.0247 69.4795 50.5512 69.2407 51.3739 69.0001C52.9839 68.5293 54.7699 68.3873 56.4318 68.1596Z"/><path fill="#082D8F" d="M56.4318 68.1596C57.6224 65.7488 58.7376 63.5457 60.582 61.5514C60.6032 61.5284 60.6249 61.5061 60.6464 61.4834C62.3608 63.5646 63.5612 65.7597 64.7724 68.1558C66.6524 68.4266 69.7882 68.5075 71.2016 69.8617C71.4034 70.5323 71.4246 70.7734 71.0717 71.3947C70.146 73.0245 68.3265 74.4719 67.0555 75.8597C67.4823 77.7369 68.2893 81.0197 67.2532 82.7595C66.7789 82.9643 66.6716 82.9621 66.1555 82.8987C66.0258 82.2765 65.9569 81.6396 65.8724 81.0097C65.67 79.0633 65.4275 77.1213 65.1451 75.1849L69.7042 70.6045C67.528 70.5124 65.4308 70.3219 63.3579 69.6159C62.3215 67.9452 61.4633 66.164 60.5717 64.4132C59.65 66.2187 58.8271 68.1511 57.5645 69.7484C55.4866 70.4358 53.3824 70.5562 51.2098 70.619C52.9726 72.0002 54.5053 73.5409 56.0063 75.1938C55.7942 77.1252 55.5694 79.0118 55.1262 80.9081C56.2411 80.2936 57.3423 79.7293 58.5196 79.2429C58.0768 80.357 56.9281 80.3944 56.4586 81.5422L56.922 82.1707C55.8116 82.5346 54.6767 82.9764 53.5334 83.2127C53.4233 80.7296 53.5998 78.3351 53.9386 75.8763C52.8447 74.4489 49.7004 71.9837 49.6031 70.2281C50.0247 69.4795 50.5512 69.2407 51.3739 69.0001C52.9839 68.5293 54.7699 68.3873 56.4318 68.1596Z"/><path fill="#0C378D" d="M58.5196 79.2429C59.2718 78.8141 59.8572 78.4353 60.7409 78.5709C60.7854 78.5777 60.8301 78.5833 60.8745 78.5904C62.5977 78.865 64.2809 80.2703 65.8724 81.0097C65.9569 81.6396 66.0258 82.2765 66.1555 82.8987C64.1687 82.4638 62.2878 81.3229 60.5126 80.3614L56.922 82.1707L56.4586 81.5422C56.9281 80.3944 58.0768 80.357 58.5196 79.2429Z"/><path fill="#4DA246" d="M101.338 55.8067C102.021 56.0552 102.254 56.0601 102.677 56.6708C102.752 59.0481 94.8121 79.8279 93.5198 83.3841C97.2877 84.3411 101.01 85.8087 104.687 87.069L123.179 93.4474C123.378 84.9507 123.257 76.4305 123.255 67.9305C123.255 65.0156 122.749 59.4814 123.477 56.8468C123.821 56.4642 123.903 56.262 124.432 56.1943C124.512 56.2469 124.549 56.2674 124.625 56.3379C126.016 57.6253 125.317 68.5948 125.286 70.8437L125.313 85.7012C125.34 88.7458 125.663 92.1417 125.183 95.1359C125.104 95.628 125.111 95.6317 124.716 95.9157C122.466 95.9462 84.2983 82.7678 82.977 81.7264C82.8093 81.1673 82.8077 81.0591 82.9513 80.4931C83.069 80.4231 83.062 80.4233 83.2047 80.3595C84.86 79.6192 89.8361 82.0062 91.5203 82.6494L97.0332 66.9562C98.3327 63.2319 99.4612 59.2818 101.338 55.8067Z"/><path fill="#4DA246" d="M133.348 56.0763C133.685 56.0866 134.689 56.1051 134.915 56.3628C135.29 56.7905 135.257 57.479 135.282 58.0231C135.554 63.9644 135.295 70.0356 135.283 75.9881C135.27 83.1489 135.458 90.3268 135.332 97.4838C138.838 98.8354 142.356 100.158 145.884 101.45C147.512 102.038 151.603 103.932 153.23 103.169C154.547 99.8887 153.986 72.1152 153.95 66.3686C153.932 63.3922 153.477 59.578 154.159 56.6925C154.657 56.2668 154.749 56.2896 155.373 56.2837C155.952 56.7333 155.864 56.9811 155.972 57.6875C155.907 63.5439 156.453 101.596 155.628 103.43C155.245 104.281 154.446 104.988 153.568 105.289C150.416 106.37 136.422 100.465 133.12 98.8971C133.459 88.909 133.173 78.8378 133.159 68.8421C133.153 64.7477 132.726 60.1078 133.348 56.0763Z"/></svg>