<svg xmlns="http://www.w3.org/2000/svg" width="512" height="512"><path fill="#1A428C" d="m370.125 447.773-184.806.035-56.555-.017-18.274.037c-3.513.007-7.18.194-10.678-.147-2.181-.212-4.358-1.45-5.909-2.96-2.357-2.294-2.931-4.865-2.981-8.017-.148-9.312-.017-18.645-.019-27.959l-.013-54.22-.156-151.649.01-88.493-.027-26.683c-.013-4.926-.302-10.065.105-14.968a8.77 8.77 0 0 1 2.617-5.598c1.268-1.258 2.835-2.336 4.594-2.751 4.048-.955 11.728-.404 16.162-.411l29.108-.097 179.519-.017 61.681.009q8.61.012 17.219-.076c3.415-.026 6.964-.225 10.367.053 2.21.181 4.183.986 5.808 2.515 2.146 2.021 3.431 4.634 3.56 7.582.34 7.8.187 15.688.202 23.498l-.002 41.843-.038 124.087q.188 57.075-.22 114.15l.091 39.272c.003 6.691.312 13.575-.146 20.245-.181 2.644-1.013 5.25-2.885 7.195-1.548 1.61-3.69 2.875-5.899 3.288-4.445.83-10.197.275-14.75.264zm14.53-376.564c-8.501-.154-17.021 0-25.524-.001l-49.216.007-123.654.013-52.823.028-12.474-.018c-2.15-.002-4.686-.242-6.776.206-2.597-.11-13.233-.967-14.796.343-1.823 1.527-1.212 6.355-1.19 8.491.008.781.025 1.561.008 2.343-.453 4.53-.163 9.319-.166 13.883-.004 6.015-.189 12.09.001 18.098-.404 14.195-.049 28.499-.069 42.705l-.017 86.938.069 39.37c.002 4.514-.486 13.684.18 17.755l.004 4.332a74 74 0 0 0 3.23-.144q.265.033.532.05c2.16.133 10.795.743 12.244-.507.56-.341 1.08-.719 1.606-1.109.53-.311.992-.643 1.475-1.018 2.99-1.834 5.834-3.78 8.956-5.405 13.101-6.817 27.798-9.824 42.445-10.482.35-5.18 1.995-10.079 4.369-14.675 6.302-12.204 14.71-17.884 27.511-21.926 3.65-.931 7.532-1.623 11.044-2.979-3.97.333-7.984.257-11.967.277l-14.006.008c-8.857-.002-16.758.218-23.521-6.52-3.031-3.02-5.666-7.622-6.453-11.846-.77-4.13-.455-8.594-.455-12.783l.005-18.867-.024-65.406c.046-6.812 2.31-13.718 7.289-18.55 3.299-3.203 8.139-5.676 12.688-6.384 6.292-.981 15.853-.366 22.522-.343l40.505.091 67.06-.013c9.692-.012 19.434-.219 29.122-.007 6.519.143 12.455 2.735 16.946 7.516 2.76 2.938 5.094 7.12 5.805 11.111.845 4.748.456 10.012.466 14.829q.034 13.871-.075 27.743l-.098 37.202c-.005 6 .252 12.072.013 18.061-.278 6.96-2.973 13.54-8.182 18.281-2.84 2.585-6.35 4.311-10.078 5.186-4.251.999-8.69.847-13.028.844-7.427-.007-15.159-.463-22.536.2 13.005 3.077 26.373 9.212 33.635 20.972 3.457 5.598 5.461 11.352 5.527 17.947 21.196 1.296 37.449 4.478 54.687 17.885.39.379.719.559 1.26.676 2.579.56 12.245.062 15.539.046l-.22-159.75-.074-46.809c-.012-7.808.3-15.775-.087-23.569-.038-.754-.113-3.268-.682-3.676-.729-.523-1.822-.68-2.697-.768-2.969-.3-6.154-.03-9.144-.032-5.538-.005-11.19-.206-16.711.15m-199.276 43.495c-6.756-.055-12.88-.286-18.069 4.759-4.9 4.765-4.776 10.448-4.809 16.825l-.069 55.3c-.012 11.048-.327 22.189.07 33.227a15.88 15.88 0 0 0 4.631 11.164c1.963 1.938 4.56 3.4 7.269 3.934 5.387 1.061 13.484.411 19.233.39q18.072-.177 36.139.205c-8.114-4.257-10.765-7.31-17.066-13.607-5.263-6.356-9.054-12.782-12.074-20.478-2.249.154-4.471.119-6.652-.519-3.305-.966-6.065-3.019-7.695-6.088a13.2 13.2 0 0 1-1.383-4.416c-.755-5.508-.251-21.073.52-26.507a78 78 0 0 1 2.909-12.495c4.625-14.647 14.464-28.117 27.32-36.587 3.086-2.033 6.334-3.45 9.59-5.137-8.449.113-16.918.063-25.368.006-4.849-.033-9.647-.233-14.496.023m152.176.1c-3.781-.86-14.81-.306-19.472-.3-10.84.013-21.758-.271-32.585.032a68.43 68.43 0 0 1 36.601 36.97 66.6 66.6 0 0 1 3.983 13.099c1.313 6.803 2.74 26.748.146 32.867a14.67 14.67 0 0 1-8.142 7.931c-2.323.895-4.709 1.086-7.175 1.158-2.762 7.677-6.084 14.116-11.288 20.458-5.453 5.762-10.496 10.04-17.682 13.499l36.019-.09c6.024-.022 12.372.38 18.342-.29a13.7 13.7 0 0 0 5.058-1.544c3.841-2.016 6.762-5.69 7.998-9.843 1.327-4.463.644-17.557.639-22.705l-.029-35.734-.016-26.571c.002-4.708.233-9.523-.051-14.216-.154-2.534-.593-4.989-1.832-7.23-2.296-4.156-6.114-6.218-10.514-7.49m-85.312.117c-2.871.174-5.745.4-8.57.966-16.792 3.446-31.051 12.317-40.56 26.77-5.941 9.031-10.156 20.095-11.097 30.9-.32 3.675-.164 7.357-.162 11.04.001 3.212-.37 6.992.288 10.127.29 1.38.92 2.595 2.127 3.377 1.404.909 2.901 1.006 4.515 1.125-1.617-3.823-.851-19.928-.832-25.123 1.948-3.55 5.114-5.856 8.075-8.492 3.509-1.825 7.085-3.411 10.981-4.223 10.228-2.13 18.609-.065 28.337-6.068 4.19-2.585 5.968-5.97 9.246-8.463.563-.428 1.902-1.25 2.664-.993 1.101.373 4.065 4.262 5.056 5.291a27.4 27.4 0 0 0 5.622 4.428c8.659 5.249 17.798 4.372 27.397 5.54.95.352 2.235.418 3.246.669 4.347 1.077 8.188 2.768 11.151 6.242 1.544 1.81 2.73 3.901 3.305 6.222 1.163 4.698.542 19.831.14 25.356 2.072-.636 4.009-1.337 5.416-3.096.733-.917 1.19-2.013 1.414-3.159.49-2.503.24-5.22.243-7.766.007-4.721.079-9.411-.379-14.118-1.611-16.581-10.077-31.172-22.885-41.652-12.223-10.003-28.812-16.455-44.738-14.9m-32.3 53.234c-5.769 1.129-11.182 3.778-14.698 8.612-.027 5.869-.513 12.681.075 18.441 1.089 10.66 7.156 21.644 14.627 29.164a35 35 0 0 0 2.51 2.307c7.715 7.303 18.958 11.448 29.369 12.69.043.013.084.034.128.042 10.621 1.84 23.168-2.394 32.043-8.036 10.756-6.839 18.605-18.543 21.313-30.95.99-4.538 1.557-18.351.772-23.074-.236-1.414-.71-2.743-1.519-3.933-2.205-3.247-5.99-4.407-9.64-5.12-3.743-.779-7.704-.65-11.512-.865-10.639-.6-18.857-4.808-27.046-11.4-7.26 6.122-14.896 10.145-24.482 11.135-3.977.41-7.974.427-11.94.987m16.695 90.02c-1.66-2.614-2.86-5.182-3.93-8.084-6.544 1.237-13.04 2.93-19.49 4.587-12.733 3.272-23.504 5.299-31.429 16.911-2.54 3.723-3.982 7.622-5.134 11.954-.21.792-.666 1.969-.531 2.782.038.233.047.267.255.358.544.24 1.383.065 1.971.018l134.938.044 22.852.008c-.799-5.565-2.554-10.79-5.872-15.375-8.057-11.135-19.865-13.82-32.315-17.137-6.295-1.677-12.443-3.323-18.881-4.374-1.404 4.155-3.452 7.756-6.45 10.967a27 27 0 0 1-2.728 2.469c-4.923 3.822-11.346 5.293-17.473 4.425-6.329-.897-11.976-4.473-15.782-9.553m96.755 35.863-96.114-.03-38.901-.11c-18.283-.113-36.186-1.044-53.868 4.472-1.789.503-3.568 1-5.317 1.632-7.496 2.775-14.011 6.319-20.47 11.024-.336 4.22-.263 8.514-.16 12.745l-.097 61.731c-.012 10.971-.311 22.027.08 32.987l-.024 12.923.002 9.227 274.729.145.199-129.806c-7.702-7.661-19.721-12.015-30.233-14.082-9.918-2.247-19.699-2.68-29.826-2.858m-235.13 18.771c-.354 15.857.016 31.814.006 47.682-.011 19.049-.338 38.156.022 57.198-.077 5.426-.16 10.892-.025 16.317-.012.413-.055.845 0 1.252-.06 1.232-.456 3.414.434 4.398.296.327.702.517 1.086.715 2.296.488 4.85.282 7.182.179 1.492-.028 3.007.062 4.5.096-.126-.952-.133-1.925-.172-2.884.091-1.921.033-3.868.037-5.792.007-4.06.12-8.153-.064-12.207.28-12.033.091-24.105.113-36.142l-.124-70.854zm141.449-68.46c.05 4.572 1.484 8.71 4.821 11.937a16.86 16.86 0 0 0 11.856 4.704 15.88 15.88 0 0 0 11.119-4.988c.74-.799 1.41-1.659 2.002-2.572 1.404-2.5 2.818-5.591 2.285-8.545l-.41-.142c-.727.916-.043 2.186-.906 3.154l-.339-.076c-.282-.901-.102-1.771.007-2.692-7.481 1.74-14.805 2.404-22.415 1.009-2.696-.495-5.332-1.284-8.02-1.789m160.616 68.149q.219 20.704.154 41.41l-.021 86.784c3.08.053 10.488.804 12.848-.697.4-.565.899-1.197.985-1.905.435-3.585.011-7.756.005-11.394l-.036-26.767-.003-87.363z"/><path fill="#CDD3DB" d="M384.655 71.21c5.522-.356 11.173-.156 16.711-.151 2.99.002 6.176-.269 9.144.032.875.089 1.968.245 2.697.768.569.408.644 2.922.682 3.676.387 7.794.075 15.76.087 23.569l.075 46.808.219 159.752c-3.294.015-12.96.512-15.539-.047-.541-.117-.87-.297-1.26-.676.214-2.331.04-4.793.03-7.137l-.041-14.094-.143-51.134-.103-161.261c-4.156.005-8.422.237-12.56-.105"/><path fill="#F6F8FD" fill-opacity=".161" d="M98.21 82.62c.017-.78 0-1.56-.008-2.342-.022-2.136-.633-6.964 1.19-8.492 1.564-1.309 12.199-.452 14.796-.343.537.409.946.67 1.587.912l.231.319c-.872.187-.508.336-1.084.771-.325.246-11.94.805-13.515.883-.826.04-1.394.553-2.02 1.035-.162 1.204-.336 2.424-.398 3.638-.112 2.2.186 4.417.136 6.621-.017.767-.561 11.685-.7 11.907-.322-4.958.052-9.947-.215-14.908"/><path fill="#E7E6E6" d="M114.188 71.444c2.09-.448 4.626-.209 6.776-.206l12.474.018 52.823-.028 123.654-.013 49.216-.007c8.503.002 17.023-.153 25.524.002 4.137.342 8.403.11 12.56.105l.102 161.26.142 51.135.041 14.094c.012 2.344.185 4.806-.029 7.137-17.238-13.407-33.491-16.589-54.687-17.885-.066-6.595-2.07-12.35-5.527-17.947-7.262-11.76-20.63-17.894-33.635-20.972 7.377-.662 15.109-.207 22.536-.2 4.337.003 8.777.155 13.028-.844 3.728-.875 7.238-2.6 10.079-5.186 5.209-4.742 7.904-11.321 8.181-18.28.238-5.99-.018-12.062-.013-18.062l.099-37.202q.108-13.871.074-27.743c-.01-4.817.379-10.082-.466-14.829-.712-3.991-3.046-8.173-5.805-11.111-4.49-4.781-10.427-7.373-16.946-7.516-9.688-.212-19.43-.005-29.122.007l-67.06.013-40.505-.091c-6.668-.023-16.23-.638-22.523.343-4.548.708-9.388 3.181-12.687 6.383-4.979 4.834-7.243 11.739-7.289 18.551l.024 65.406-.005 18.867c0 4.189-.315 8.654.454 12.782.788 4.225 3.423 8.827 6.454 11.847 6.763 6.738 14.665 6.518 23.521 6.52l14.006-.008-1.085.376c-.179.437-.2.244-.062.578l-1.686.11c-.788.131-1.646.155-2.263.706.582.456 1.308.434 2.025.356.423-.047.846-.115 1.266-.181l.165.17c.773.618 1.596.35 2.563.587-12.802 4.042-21.209 9.722-27.512 21.926-2.373 4.596-4.018 9.496-4.369 14.676-14.646.657-29.343 3.663-42.444 10.481-3.122 1.625-5.966 3.571-8.955 5.405.074-.443.177-.846.325-1.269l.165-.471a18 18 0 0 0-1.425-.798c.428-.09.821-.197 1.232-.346a31 31 0 0 1-1.111-.668c-1.146-.728-1.304-1.916-1.37-3.191-.266-5.121.362-10.494.403-15.657q.005-16.29-.248-32.58a5564 5564 0 0 1-.794-116.632c.106-12.91 1.138-25.823 1.111-38.743-.008-3.807.281-8.342-.503-12.018-.288-2.073-.077-4.424-.082-6.531.895-.31 1.688-.546 2.197-1.399-.534-.372-.766-.302-1.425-.316-.641-.242-1.05-.503-1.587-.912"/><path fill="#F6F8FD" fill-opacity=".439" d="M115.775 72.355c.659.014.891-.056 1.424.316-.508.852-1.301 1.09-2.197 1.399.006 2.107-.206 4.458.083 6.531l-.188 1.479c-.592-1.33-.355-5.372-.49-7.006-.242.088-.471.204-.709.302-2.578 1.068-6.188-.275-8.59 1.108.188.422.04.256.414.479.589.35 1.088.568 1.382 1.22-.198.604-.801.956-1.343 1.242-1.37.723-4.049-.724-4.437.931-.519 2.21.349 4.914-.084 7.212-1.076 2.895-1.07 6.78-1.337 9.86-.531 6.138-1.025 12.255-1.068 18.419-.06 8.657.414 17.547-.247 26.169a916 916 0 0 1-.06-16.244c.008-2.896.503-8.532-.283-11.17-.19-6.008-.005-12.083-.002-18.098.003-4.564-.286-9.353.167-13.883.267 4.961-.107 9.95.216 14.909.138-.223.681-11.141.699-11.908.05-2.204-.248-4.421-.136-6.621.062-1.214.236-2.434.397-3.638.627-.482 1.195-.995 2.021-1.035 1.575-.078 13.19-.638 13.515-.883.576-.435.212-.584 1.084-.771z"/><defs><linearGradient id="a" x1="184.384" x2="247.878" y1="383.479" y2="378.203" gradientUnits="userSpaceOnUse"><stop offset="0" stop-color="#FFFFFE" stop-opacity=".812"/><stop offset="1" stop-color="#fff" stop-opacity=".898"/></linearGradient></defs><path fill="url(#a)" d="M230.17 161.202c1.568 7.352.99 16.422 1.006 24.035.054 25.841-2.01 51.667-2.222 77.487-.285 77.758.244 155.517 1.589 233.265q.506 32.577.494 65.159c-.081 10.326-1.337 21.072-.805 31.314.132 2.55.448 4.927 2.739 6.382q1.097.691 2.222 1.336c-.821.297-1.607.512-2.462.692.979.503 1.918 1.007 2.85 1.595l-.332.943a15 15 0 0 0-.65 2.538c-.967.75-1.891 1.414-2.951 2.036 1.145-2.083 1.594-4.483.573-6.771-.265-.595-.363-.649-.744-1.066l-1.193-.179c-.99 3.506.164 7.179-1.848 10.234-2.899 2.499-20.169 1.28-24.489 1.015a20 20 0 0 1-1.062-.1c.752-.043 1.712-.028 2.427-.254 1.019-.324 1.845-1.428 2.139-2.426.395-1.338-.049-1.886-.691-2.974-1.405-.834-2.091-.774-3.659-.694.379-4.496-.877-8.442-1.17-12.888-.512-7.762-.53-15.841-.711-23.634-.147-6.321.649-12.666.535-19.009-.501-27.822-2.081-55.684-2.019-83.504l.296-200.516c.103-13.58-.386-27.454.249-40.998.199-4.253.75-8.473.909-12.734.177-4.717-.023-9.45.228-14.162.399-7.492.98-14.652.661-22.189.867-4.595-.869-10.004.168-14.423.778-3.311 6.134-.416 8.876-1.862 1.083-.572 2.289-1.275 2.686-2.483-.588-1.306-1.587-1.742-2.765-2.442-.749-.445-.453-.114-.828-.956 4.804-2.766 12.024-.081 17.181-2.216.475-.196.934-.429 1.417-.605.271 3.268-.203 11.352.979 14.012z" transform="scale(.5)"/><path fill="#F6F8FD" fill-opacity=".604" d="M98.045 114.602c.786 2.638.291 8.274.284 11.17q-.042 8.123.06 16.244c.66-8.622.186-17.512.246-26.169.043-6.163.537-12.281 1.069-18.419.267-3.08.26-6.965 1.336-9.86.159 3.768-.132 7.348-.331 11.094-.126 2.356-.026 4.722-.114 7.081-.08 2.13-.355 4.24-.454 6.367-.318 6.772-.074 13.709-.125 20.499l-.148 100.258c-.031 13.91.759 27.841 1.01 41.752.056 3.171-.341 6.344-.268 9.504.09 3.897.1 7.937.356 11.817.146 2.224.774 4.197.585 6.445-.851.079-2.005-.594-2.733-1.029q-.098-.062-.195-.126l-.415.14c-.666-4.071-.178-13.241-.18-17.755l-.07-39.37.019-86.938c.02-14.206-.336-28.51.068-42.705"/><path fill="#BBE8B7" d="M185.379 114.704c4.85-.257 9.647-.056 14.496-.024 8.45.057 16.919.107 25.369-.006-3.257 1.686-6.505 3.104-9.59 5.137-12.857 8.47-22.696 21.94-27.321 36.587a78 78 0 0 0-2.909 12.495c-.772 5.434-1.275 20.999-.52 26.507a13.2 13.2 0 0 0 1.383 4.416c1.63 3.069 4.39 5.122 7.695 6.088 2.181.638 4.403.673 6.651.52 3.021 7.695 6.812 14.121 12.075 20.477-7.073.096-14.153.057-21.227.071-2.619.005-6.082-.425-8.585.157-.699-2.539-2.024-4.066-3.808-5.917.477-5.601.139-11.439.14-17.07a3177 3177 0 0 0-.104-33.535q-.094-11.377-.007-22.756c.044-4.754.322-9.637.042-14.379 1.19-1.19 3.516-1.615 4.081-3.427.302-.969-.051-2.403-.591-3.23-.666-1.02-1.712-1.266-2.839-1.454.314-.782.777-1.498 1.264-2.184 3.612-5.089 7.924-7.324 13.977-8.312-3.208-.265-6.451.01-9.672-.161M285.498 114.537c10.827-.304 21.745-.02 32.585-.033 4.662-.006 15.691-.56 19.471.3.111 4.482.234 9.255-.183 13.718-1.554-1.16-3.294-2.665-5.371-2.395-.836.109-1.434.546-1.911 1.217-.535.752-.866 1.909-.72 2.828.371 2.34 3.555 3.285 4.918 4.969 1.051 1.297 1.815 2.813 2.969 4.026.645 8.84.27 17.919.307 26.79l.193 51.656c-2.553 2.524-7.008 5.952-8.052 9.376-9.97.38-20.093.032-30.08.03 5.202-6.342 8.525-12.781 11.287-20.458 2.466-.072 4.852-.263 7.176-1.158a14.67 14.67 0 0 0 8.14-7.931c2.595-6.12 1.168-26.064-.145-32.867a66.6 66.6 0 0 0-3.983-13.099 68.43 68.43 0 0 0-36.601-36.97"/><path fill="#fff" d="M162.502 224.816c-.397-11.039-.082-22.18-.07-33.228l.069-55.3c.032-6.377-.091-12.06 4.809-16.826 5.189-5.044 11.313-4.814 18.069-4.758 3.22.172 6.464-.104 9.672.16-6.052.989-10.364 3.224-13.976 8.313-.488.686-.951 1.401-1.265 2.183-3.736 1.24-7.087 3.369-8.883 7.034-.724 1.476-1.123 3.327-.498 4.91.288.73.779 1.417 1.555 1.68.99.335 2.129-.123 2.948-.677 1.745-1.181 2.613-3.417 4.227-4.835.28 4.742.002 9.625-.042 14.379q-.087 11.378.007 22.756a3177 3177 0 0 1 .105 33.535c-.002 5.631.336 11.469-.141 17.07-2.149-1.694-4.411-3.433-7.334-3.02-.694.098-1.502.362-1.98.904-.683.774-.598 2.196-.418 3.15.089.471.31.92.522 1.346-1.915 1.142-4.274 1.033-5.924 2.621-.658-.433-.994-.756-1.452-1.398"/><path fill="#A9C1EC" d="M252.243 114.92c15.926-1.554 32.515 4.898 44.738 14.9 12.808 10.481 21.274 25.072 22.885 41.654.458 4.706.386 9.396.379 14.118-.004 2.544.248 5.262-.243 7.765-.225 1.146-.68 2.242-1.413 3.159-1.408 1.759-3.344 2.46-5.417 3.096.401-5.525 1.022-20.657-.14-25.356-.575-2.321-1.761-4.412-3.305-6.222-2.963-3.474-6.804-5.165-11.151-6.242-1.012-.251-2.296-.317-3.247-.668 0-.259-.005-.514-.028-.773-.219-2.458-1.313-4.962-2.168-7.26-4.185-11.251-11.191-20.562-20.599-27.987-2.457-1.939-5.192-3.95-7.991-5.379-1.524-.777-11.917-4.424-12.028-4.527-.095-.088-.181-.185-.272-.277"/><path fill="#5DA258" d="M337.555 114.805c4.4 1.272 8.219 3.334 10.514 7.49 1.239 2.241 1.678 4.696 1.832 7.23.284 4.694.053 9.508.051 14.216l.017 26.571.028 35.733c.005 5.149.688 18.244-.64 22.706-1.236 4.154-4.156 7.827-7.997 9.843a13.7 13.7 0 0 1-5.058 1.544c-5.97.67-12.318.268-18.343.29l-36.018.09c7.186-3.46 12.229-7.737 17.683-13.499 9.987.002 20.11.35 30.08-.03.308.957.67 1.822 1.443 2.5.75.656 1.685.912 2.669.776 2.76-.381 6.662-4.452 8.236-6.688.825-1.172 1.397-2.676 1.072-4.121-.172-.764-.569-1.296-1.248-1.68-1.263-.715-2.796-.525-4.12-.163l-.193-51.656c-.036-8.871.338-17.95-.308-26.79.343.096.332.101.746.168 1.293.208 2.68.148 3.729-.721.73-.606 1.126-1.352 1.175-2.308.142-2.744-3.702-5.992-5.534-7.785.417-4.461.294-9.235.184-13.716"/><path fill="#CDD3DB" d="M243.673 115.888c2.825-.567 5.699-.793 8.57-.968.09.093.177.19.272.278.111.103 10.505 3.75 12.028 4.527 2.8 1.428 5.534 3.44 7.991 5.379 9.408 7.425 16.414 16.736 20.599 27.986.855 2.299 1.949 4.803 2.168 7.261.024.258.028.514.029.773-9.6-1.169-18.738-.292-27.397-5.54a27.4 27.4 0 0 1-5.622-4.429c-.991-1.029-3.954-4.918-5.055-5.29-.763-.258-2.102.564-2.665.992-3.279 2.494-5.056 5.877-9.246 8.463-9.728 6.003-18.108 3.939-28.337 6.068-3.897.811-7.472 2.398-10.982 4.224 3.637-9.908 8.133-18.186 15.841-25.576 12.583-12.064 28.267-15.903 45.246-15.554-5.424-3.845-11.865-6.096-18.314-7.574-1.619-.372-3.266-.536-4.875-.954z"/><path fill="#fff" d="M198.784 199.226c-1.614-.119-3.11-.216-4.514-1.125-1.208-.782-1.838-1.998-2.127-3.376-.66-3.136-.288-6.916-.29-10.129-.001-3.683-.157-7.364.163-11.039.94-10.804 5.156-21.869 11.097-30.9 9.509-14.453 23.768-23.324 40.56-26.77l.251.067c1.61.418 3.256.582 4.875.954 6.449 1.478 12.89 3.729 18.314 7.574-16.979-.349-32.663 3.49-45.245 15.554-7.708 7.39-12.205 15.668-15.841 25.576-2.961 2.635-6.127 4.94-8.075 8.492-.02 5.194-.785 21.298.832 25.121"/><path fill="#1A428C" d="M179.159 133.472c-1.614 1.418-2.482 3.654-4.227 4.835-.819.554-1.958 1.012-2.947.678-.778-.264-1.268-.95-1.556-1.681-.625-1.583-.226-3.434.498-4.91 1.796-3.665 5.147-5.794 8.883-7.034 1.127.189 2.173.436 2.839 1.455.54.827.893 2.261.591 3.23-.565 1.813-2.892 2.238-4.082 3.427M337.256 139.168c-1.154-1.214-1.918-2.73-2.968-4.028-1.363-1.683-4.548-2.628-4.92-4.968-.145-.919.186-2.076.72-2.828.478-.671 1.076-1.108 1.911-1.217 2.077-.27 3.817 1.236 5.371 2.395 1.832 1.793 5.677 5.04 5.536 7.784-.05.956-.446 1.702-1.176 2.308-1.049.87-2.437.93-3.729.721-.414-.067-.403-.072-.745-.168"/><path fill="#E7E6E6" d="M219.943 168.156c3.966-.561 7.963-.578 11.94-.989 9.586-.99 17.222-5.012 24.482-11.134 8.189 6.592 16.407 10.8 27.046 11.4 3.808.215 7.769.087 11.512.865 2.394 16.932 2.507 35.74-8.339 50.067-7.668 10.132-18.767 17.756-31.518 19.45-1.548.205-3.129.807-4.654.794.371.32.635.345 1.053.544.126.06.24.144.361.216-10.411-1.242-21.654-5.387-29.37-12.69-.346-1.581-1.26-3.284-1.873-4.792-1.189-2.93-2.329-5.848-3.292-8.86-3.684-11.518-3.608-25.993-.342-37.538.678-2.397 2.12-4.509 2.853-6.867zm4.323 22.814c-1.092.677-2.293 1.798-2.568 3.115-.173.832.1 1.553.618 2.189 1.625 1.99 4.683 2.95 7.155 3.129 2.817.202 5.52-.381 7.985-1.766 1.476-1.106 2.246-1.703 2.487-3.628.083-.662.026-1.411-.45-1.925-.706-.762-2.032-.858-2.998-.79-2.108.149-4.288 1.546-6.341 1.454-2.05-.091-3.796-1.64-5.888-1.778m49.118.024c-.918.954-1.765 2.06-1.789 3.451-.015.88.374 1.591.996 2.192 2.144 2.07 6.16 2.795 9.06 2.623 2.332-.138 4.361-.722 6.345-1.975.993-.904 1.678-1.556 1.745-2.956.04-.827-.108-1.657-.667-2.302-.577-.664-1.57-.92-2.423-.888-1.791.064-3.627 1.221-5.347 1.732-2.618-.624-5.223-2.139-7.92-1.877m-19.31 25.803c-.866.542-1.758 1.353-2.129 2.339-.208.553-.069 1.17.195 1.672.564 1.073 2.21 1.787 3.334 2.009 1.216.239 2.743.113 3.972-.02.813-.52 1.617-1.032 1.86-2.043.209-.87-.017-2.052-.555-2.771-.59-.789-1.565-1.113-2.509-1.218-1.352-.15-2.809-.014-4.169.032"/><path fill="#CDD3DB" d="M205.245 176.767c3.516-4.834 8.929-7.483 14.698-8.612l-.14.467c-.734 2.358-2.176 4.47-2.854 6.866-3.266 11.546-3.342 26.02.342 37.539.963 3.012 2.103 5.93 3.292 8.86.613 1.508 1.526 3.211 1.874 4.792a35 35 0 0 1-2.51-2.307c-7.47-7.52-13.538-18.504-14.627-29.164-.588-5.76-.102-12.572-.075-18.441M294.924 168.298c3.649.713 7.434 1.873 9.64 5.12.808 1.19 1.282 2.519 1.517 3.933.786 4.723.219 18.536-.772 23.073-2.707 12.408-10.556 24.112-21.312 30.951-8.875 5.642-21.422 9.876-32.043 8.036-.044-.008-.085-.029-.128-.042-.12-.072-.234-.155-.361-.215-.418-.2-.681-.225-1.053-.544 1.525.012 3.106-.59 4.654-.796 12.751-1.692 23.85-9.317 31.518-19.448 10.846-14.328 10.733-33.137 8.34-50.068"/><path fill="#1A428C" d="M237.456 197.637c-2.465 1.385-5.167 1.968-7.984 1.766-2.474-.178-5.531-1.139-7.156-3.13-.518-.635-.791-1.356-.618-2.187.274-1.318 1.476-2.439 2.568-3.116 2.093.138 3.839 1.686 5.888 1.779 2.053.091 4.233-1.306 6.341-1.455.965-.068 2.292.028 2.998.79.476.514.533 1.263.45 1.925-.241 1.925-1.012 2.522-2.487 3.628M287.996 197.285c-1.984 1.253-4.012 1.837-6.345 1.975-2.9.172-6.916-.552-9.06-2.623-.622-.6-1.011-1.311-.996-2.192.024-1.39.871-2.497 1.789-3.451 2.697-.262 5.301 1.254 7.92 1.877 1.72-.51 3.556-1.668 5.348-1.733.852-.03 1.845.225 2.422.89.558.644.707 1.474.666 2.302-.067 1.398-.752 2.05-1.744 2.955M259.446 222.797c-1.23.133-2.756.259-3.972.02-1.124-.222-2.77-.936-3.334-2.01-.263-.501-.403-1.118-.195-1.671.371-.986 1.263-1.797 2.129-2.34 1.36-.046 2.816-.181 4.168-.031.943.105 1.92.429 2.509 1.218.538.719.764 1.9.555 2.771-.243 1.01-1.047 1.523-1.86 2.043M329.704 226.989c1.043-3.424 5.499-6.852 8.052-9.376 1.324-.362 2.857-.552 4.12.163.679.384 1.077.916 1.248 1.68.325 1.445-.248 2.949-1.073 4.121-1.573 2.236-5.475 6.307-8.235 6.689-.983.136-1.919-.121-2.668-.777-.775-.678-1.136-1.543-1.444-2.5M169.878 223.592c-.212-.427-.433-.875-.522-1.346-.18-.954-.265-2.376.418-3.15.477-.542 1.286-.806 1.98-.904 2.923-.413 5.185 1.326 7.334 3.02 1.784 1.85 3.109 3.378 3.808 5.918-.435 1.107-.8 2.046-1.804 2.77a3.14 3.14 0 0 1-2.354.558c-2.037-.349-3.142-2.233-4.254-3.768-1.144-1.252-2.913-2.036-4.369-2.905z"/><path fill="#E7E6E6" d="m169.878 223.592.238.193-.213.165a13 13 0 0 0-1.488 1.353c-.691.738-1.305.894-2.246 1.136l.081.311c-.78-.024-1.548-.317-2.297-.537 1.65-1.588 4.01-1.478 5.924-2.621"/><path fill="#D6F1D3" d="M170.116 223.785c1.455.869 3.224 1.653 4.368 2.905-2.327.488-5.87.507-8.234.06l-.082-.311c.941-.242 1.555-.398 2.246-1.136a13 13 0 0 1 1.489-1.353z"/><path fill="#5DA258" d="M162.502 224.816c.458.64.794.964 1.451 1.397.75.22 1.517.513 2.297.537 2.363.447 5.907.428 8.234-.06 1.112 1.535 2.217 3.42 4.254 3.768a3.14 3.14 0 0 0 2.353-.559c1.005-.724 1.37-1.662 1.805-2.77 2.504-.582 5.966-.151 8.585-.157 7.075-.014 14.154.025 21.227-.07 6.301 6.296 8.952 9.349 17.066 13.606a1174 1174 0 0 0-36.139-.206c-5.75.023-13.846.672-19.233-.389-2.71-.534-5.306-1.996-7.268-3.934a15.88 15.88 0 0 1-4.632-11.164"/><path fill="#E7E6E6" d="M269.51 253.43a19 19 0 0 1-2.002 2.572 15.88 15.88 0 0 1-11.119 4.988 16.86 16.86 0 0 1-11.856-4.704c-3.337-3.227-4.771-7.365-4.821-11.937 2.688.505 5.324 1.294 8.02 1.789 7.61 1.395 14.934.731 22.415-1.009-.11.921-.289 1.791-.007 2.692l.339.076c.863-.968.179-2.238.906-3.154l.41.142c.533 2.954-.881 6.044-2.285 8.546"/><path fill="#fff" d="M199.657 247.784c3.983-.02 7.996.056 11.967-.277-3.511 1.356-7.393 2.048-11.044 2.978-.967-.236-1.79.031-2.564-.587.78-.172 1.511-.284 2.183-.744-.442-.427-1.088-.35-1.69-.416-.137-.334-.116-.141.063-.578z"/><path fill="#F6F8FD" fill-opacity=".447" d="m196.824 248.848 1.685-.11c.603.066 1.248-.011 1.69.416-.672.46-1.403.572-2.183.745l-.163-.17c-.305-.327-.683-.598-1.03-.881"/><path fill="#F6F8FD" fill-opacity=".29" d="M197.853 249.729c-.421.066-.844.134-1.267.18-.717.079-1.443.101-2.025-.355.617-.551 1.475-.575 2.262-.706.347.283.725.554 1.03.881"/><path fill="#CDD3DB" d="M272.622 260.834c2.998-3.212 5.046-6.812 6.45-10.966 6.438 1.05 12.586 2.696 18.881 4.373 12.45 3.317 24.258 6.001 32.315 17.136 3.318 4.586 5.073 9.81 5.873 15.376l-22.853-.008c.03-1.855-.78-4.129-1.539-5.817-4.558-10.139-15.935-15.851-26.37-17.751-4.062-.74-8.695-.77-12.558-2.263q-.1-.038-.199-.08"/><path fill="#fff" d="M236.639 258.175c-.143.067-.284.137-.428.202-2.674 1.207-6.374 1.267-9.229 2.007-9.901 2.565-20.983 8.245-25.084 18.2-1.035 2.509-1.545 5.158-1.932 7.833-3.95.005-18.967-.548-21.616.284-.588.046-1.427.222-1.971-.018-.208-.091-.217-.125-.255-.358-.135-.813.32-1.99.531-2.781 1.151-4.333 2.594-8.232 5.134-11.955 7.925-11.612 18.696-13.64 31.429-16.911 6.45-1.657 12.946-3.35 19.49-4.587 1.07 2.902 2.27 5.47 3.93 8.084"/><path fill="#E7E6E6" d="M199.966 286.417c.387-2.675.897-5.324 1.931-7.833 4.102-9.955 15.184-15.635 25.085-18.2 2.855-.74 6.555-.8 9.23-2.007.143-.065.285-.135.427-.202 3.806 5.08 9.453 8.656 15.782 9.553 6.127.868 12.55-.603 17.474-4.425a27 27 0 0 0 2.727-2.47q.099.041.2.081c3.862 1.494 8.495 1.524 12.556 2.263 10.437 1.9 21.814 7.612 26.371 17.751.759 1.688 1.569 3.962 1.538 5.817l-134.937-.044c2.649-.833 17.667-.279 21.616-.284"/><path fill="#D6F1D3" d="M144.51 298.37c17.682-5.516 35.585-4.584 53.868-4.472l38.9.11 96.115.03c6.001 7.181 11.708 15.695 13.933 24.918 1.283 5.321.898 10.789.895 16.214l.004 17.753-.054 65.332H206.553l-44.662-.026-14.825.024c-2.317 0-4.773.168-7.068-.064q.427-43.072-.035-86.143c.254-6.127-.766-15.435.424-21.019l.961-2.202c.631-.738 1.019-1.627 1.718-2.352 1.722-1.784 4.757-3.82 5.895-5.954.188-.353.21-.582.024-.964-.889-1.82-2.649-.47-4.11-1.029-.123-.047-.243-.103-.365-.156"/><path fill="#BBE8B7" d="M333.393 294.038c10.127.178 19.908.611 29.826 2.858 4.111 5.352 7.65 10.813 9.007 17.525 1.128 5.589.805 11.466.799 17.142l-.034 20.961-.01 80.446-199.461-.146-38.162.043c-2.376.017-14.814.385-16.113.034-.181-.049-.325-.187-.488-.281l-.235-1.208.024-12.923c6.918-.907 14.462-.347 21.451-.3 2.296.232 4.752.063 7.069.064l14.825-.024 44.662.026h141.618l.054-65.332-.004-17.752c.003-5.426.388-10.894-.896-16.215-2.224-9.223-7.931-17.737-13.932-24.918"/><path fill="#5DA258" d="M363.219 296.896c10.512 2.067 22.531 6.42 30.233 14.082l-.199 129.806-274.728-.145-.003-9.227.235 1.208c.163.094.307.232.488.281 1.299.35 13.737-.017 16.113-.034l38.162-.043 199.461.146.01-80.446.034-20.961c.006-5.676.33-11.553-.8-17.142-1.356-6.712-4.895-12.173-9.007-17.525"/><path fill="#fff" fill-opacity=".718" d="M139.193 300.002c1.748-.632 3.528-1.129 5.317-1.632.122.053.242.109.365.156 1.461.56 3.221-.791 4.11 1.029.186.382.164.611-.024.964-1.138 2.134-4.173 4.17-5.895 5.954-.699.724-1.087 1.614-1.718 2.352-.618.171-.316.122-.903.163-.428-.409-.554-.675-.727-1.24.225-1.78 2.387-2.76 3.655-3.789.57-.462 1.181-1 1.245-1.747l-1.034-.654c.056-.3.023-.582.007-.887-1.168-1.303-2.872.043-4.399-.67"/><path fill="#F6F8FD" fill-opacity=".847" d="M114.218 305.101c1.006-1.527.429-3.364.924-5.117l.597.09c.19.208.239.235.371.532.511 1.144.287 2.344-.286 3.386-.526.39-1.046.767-1.606 1.109"/><path fill="#fff" fill-opacity=".557" d="M118.724 311.026c6.458-4.705 12.973-8.249 20.468-11.024 1.527.712 3.231-.635 4.399.669.016.305.049.587-.007.887-.076.069-.155.135-.228.207-.311.299-.513.605-.744.965-2.632.753-5.698 1.133-8.095 2.506l-.14.256c.993.372 2.383-.058 3.164.482-.314.501-.59.75-1.07 1.091-.94.065-2.251.338-3.131.034l.232-.991-.294-.248c-1.036.257-2.248.829-3.304.628l-.248-.28c.774-.306 1.675-.224 2.22-.846-.198-.555-.156-.56-.68-.817-1.017.229-1.697.943-2.255 1.792-.221.338-.311.661-.39 1.051l-.792-1.112c-1.838.121-2.17 1.502-3.728 1.956-1.031.38-2.101 1.69-2.608 2.66-.23.44-.135.94.08 1.37.135.272.473.596.666.811-.256 1.158-1.75 2.432-2.571 3.303l-.055-.205c-.232-.922-.062-2.62-.504-3.312-.422 1.62-.456 3.543-.312 5.208-.039 1.905-.065 3.805-.233 5.704-.104-4.231-.177-8.525.16-12.745"/><path fill="#fff" fill-opacity=".451" d="m127.83 306.276.791 1.112c.078-.39.168-.713.39-1.05.558-.85 1.238-1.564 2.255-1.793.524.257.482.262.68.817-.545.623-1.446.54-2.22.846l.248.28c1.056.201 2.268-.37 3.304-.627l.294.247-.232.99c.88.305 2.19.032 3.13-.033.482-.34.757-.59 1.071-1.091-.781-.54-2.17-.11-3.165-.482l.14-.256c2.398-1.373 5.464-1.753 8.096-2.506.23-.36.433-.666.744-.966.073-.07.152-.137.228-.206l1.034.654c-.064.747-.674 1.285-1.245 1.747-1.268 1.029-3.43 2.01-3.655 3.79.173.563.299.83.727 1.239.588-.041.286.008.903-.163l-.961 2.202c-.702-.125-1.224-.373-1.841.148-2.1 1.771-2.223 10.326-2.17 13.034-1.172-.548-2.418-1.081-3.452-1.868-1.976-1.504-4.019-4.802-6.873-3.729-1.279.48-1.972 1.774-2.849 2.73-.894.055-1.784.112-2.68.118-.646-.635-.571-1.49-.803-2.348.249-.863.018-1.505-.034-2.369-.008-.123-.011-.245-.017-.368.82-.87 2.315-2.144 2.57-3.302-.192-.215-.53-.54-.665-.81-.215-.431-.31-.931-.08-1.37.507-.97 1.577-2.28 2.608-2.661-.227.567-.442.775-.248 1.382.67.115.999-.028 1.557-.428 1.099-.79 2.152-1.589 2.42-2.91"/><path fill="#F6F8FD" fill-opacity=".439" d="M124.101 308.232c1.558-.454 1.89-1.835 3.728-1.956-.267 1.321-1.32 2.12-2.419 2.91-.558.4-.887.543-1.556.428-.195-.606.02-.814.247-1.382"/><path fill="#fff" fill-opacity=".318" d="M136.377 324.21c-.054-2.709.07-11.264 2.169-13.035.618-.522 1.139-.274 1.841-.148-1.19 5.584-.17 14.892-.424 21.02-.663-4.646.611-14.607-.369-18.111-.131-.47-.3-.703-.714-.96.05 1.134.213 2.529-.055 3.627-.281 1.156-.772 2.097-.902 3.321-.445 4.188-.363 8.31-1.155 12.478-.06-2.103.251-4.321-.088-6.395-.347.028-.19-.009-.568.144-1.273.514-6.433-5.375-8.478-5.502-1.398-.086-3.234 1.642-4.375 2.395-1.073-.186-2.169-.152-3.255-.165l-.01 3.873-.055-.242-.086-.402c-.371-1.67-.465-3.27-.546-4.973l.412-2.023c.232.857.157 1.712.803 2.347.895-.005 1.786-.062 2.68-.117.877-.955 1.57-2.25 2.849-2.73 2.854-1.073 4.897 2.225 6.873 3.73 1.034.786 2.28 1.319 3.452 1.868"/><path fill="#F6F8FD" fill-opacity=".435" d="M118.797 318.067c-.144-1.666-.11-3.588.312-5.208.442.692.272 2.39.505 3.312q.026.103.054.204l.016.368c.053.865.284 1.506.035 2.369l-.412 2.023c-.197-.92-.17-1.925-.211-2.864z"/><path fill="#5DA258" d="m400.461 440.693.02-86.785q.065-20.707-.153-41.41l13.932.068.002 87.364.037 26.765c.006 3.639.43 7.81-.005 11.395-.086.708-.584 1.34-.985 1.906-2.36 1.5-9.769.75-12.848.697"/><defs><linearGradient id="b" x1="245.454" x2="272.81" y1="836.399" y2="624.829" gradientUnits="userSpaceOnUse"><stop offset="0" stop-color="#fff" stop-opacity="0"/><stop offset="1" stop-color="#fff" stop-opacity=".075"/></linearGradient></defs><path fill="url(#b)" d="m237.593 636.134.599.407c.082 1.878.029 3.888.422 5.729.162 3.407.349 6.607 1.091 9.945l.172.806.111.482.02-7.745c2.172.025 4.364-.043 6.51.33 2.283-1.506 5.954-4.962 8.75-4.789 4.089.254 14.411 12.032 16.956 11.004.757-.306.441-.233 1.136-.289.679 4.148.055 8.583.175 12.789 1.585-8.336 1.421-16.58 2.311-24.955.26-2.448 1.241-4.329 1.804-6.643.535-2.196.21-4.985.11-7.254.828.515 1.165.981 1.428 1.921 1.96 7.008-.588 26.931.737 36.221.617 57.426.641 114.858.07 172.285-13.978-.095-29.067-1.214-42.903.6-.783-21.92-.185-44.032-.159-65.974l.194-123.462c.337-3.798.389-7.598.466-11.408" transform="scale(.5)"/><path fill="#BBE8B7" fill-opacity=".718" d="m98.291 417.689.341 1.371.371.108.212-.138c.638-.41 1.103-.632 1.844-.791-.439.531-.462.588-.527 1.275.64.885 1.447.944 2.47 1.107 1.618.258 3.872.557 5.295-.41.298-.619.26-.635.032-1.305-.063-.187-.139-.37-.212-.555 1.222.264 2.102.773 3.151 1.412.186 4.054.072 8.148.065 12.207-1.715 1.659-6.747 1.17-9.181 1.118-.857-.019-1.474-.026-2.103-.63l-.042-.453c-.083-.848-.304-1.423-.687-2.173-.1.868-.08 1.719-.065 2.592l-.16.114c-.427-.79-.055-3.055-.422-3.411-.205 1.625-.201 3.269-.407 4.88-.135-5.425-.052-10.892.025-16.318"/><path fill="#9BD797" d="M101.059 418.239c2.33-.019 4.743-.168 7.058.113.073.184.148.367.212.554.229.67.266.686-.032 1.305-1.423.966-3.677.668-5.294.41-1.024-.163-1.831-.221-2.471-1.107.065-.687.088-.744.527-1.276"/><path fill="#5DA258" fill-opacity=".706" d="M98.266 434.007c.206-1.611.202-3.255.406-4.88.368.356-.004 2.62.423 3.411l.16-.114c-.015-.873-.034-1.724.065-2.592.383.75.605 1.325.688 2.173l.041.453c.629.604 1.246.611 2.102.63 2.435.052 7.468.541 9.182-1.118-.004 1.924.055 3.871-.037 5.792-1.743-.046-3.746-.276-5.312.62l-.224.536c.293.673.628 1.17 1.207 1.632-2.332.103-4.885.308-7.181-.179 1.055-.09 1.852-.04 2.727-.726.156-.402.295-.515.149-.953-.498-1.496-3.041-2.815-4.396-3.434-.055-.407-.012-.84 0-1.251"/><path fill="#9BD797" fill-opacity=".008" d="M106.968 440.55c-.58-.462-.915-.96-1.208-1.632l.224-.536c1.567-.896 3.569-.666 5.312-.62.04.959.046 1.933.172 2.884-1.493-.034-3.008-.124-4.5-.096"/></svg>