<svg xmlns="http://www.w3.org/2000/svg" width="360" height="400" fill="none"><path fill="#FEFEFE" d="M205.188 55.722c1.218-.044 2.423-.08 3.642-.029.524.51 1.031 1.005 1.366 1.664 1.364 2.684 1.211 13.41 1.9 13.797.121.069.572.08.711.075 1.084-.032 2.181-.323 3.258-.445 1.299-.147 2.683-.093 3.991-.057 2.658.074 5.29.457 7.917.846 13.215 1.957 24.625 7.225 34.839 15.825 2.058 1.733 3.555 3.586 5.097 5.773.696.986 1.372 2.343 2.273 3.11 4.71-1.261 7.591-.256 11.752 2.167 9.184 5.35 13.507 12.366 16.128 22.453 2.2 8.467 2.937 17.75 4.131 26.437.565 4.115 1.155 8.206 1.655 12.331.294 2.423.68 4.778.625 7.23-.114 5.006-.631 9.682-3.207 14.095-2.632 4.508-7.367 8.818-12.468 10.217-.139.038-.279.068-.419.1.029 3.522.198 7.128-.09 10.636-.828 10.089-4.963 20.189-12.093 27.488-.49.501-.993 1.048-1.563 1.455-2.484 3.123-9.17 7.964-12.705 9.904-2.098 1.151-4.286 2.172-6.481 3.122-.962.416-5.444 1.907-5.911 2.49-.404.503-.354 2.439-.395 3.091a60.5 60.5 0 0 1-1.351 9.556c-1.195 5.363-2.661 10.822-4.779 15.901-8.801 21.093-26.593 38.972-50.089 41.714-8.411.981-20.299-.064-27.962-3.862-1.492-.082-4.478-1.78-5.834-2.542-12.772-7.182-22.617-17.23-30.12-29.774-1.751-2.927-3.558-5.862-4.818-9.042-.906-2.29-1.448-4.79-2.111-7.166-9.147 1.038-20.55.594-29.016-3.195-10.019-4.485-16.865-9.213-23.434-18.126-1.36-1.845-2.776-3.713-3.854-5.742-1.048-1.971-1.88-4.167-2.709-6.245-1.172-2.94-1.655-6.069-2.788-8.996-.538-.135-.787-.016-1.319.125-.27.072-.467.133-.746.13-4.332-.06-9.988-3.212-12.919-6.292-2.452-2.579-4.326-5.8-5.55-9.131-1.814-4.938-2.403-9.977-3.18-15.134-1.453-9.643-2.668-19.302-2.434-29.07-.208-4.152-.454-12.137.276-16.1.913-4.963 3.915-10.823 7.31-14.54 2.752-3.014 6.03-4.956 10.155-5.12l.383-.014c.993-2.985 1.9-6.011 3.348-8.815 5.524-10.696 16.52-20.487 27.21-25.873 5.018-2.527 10.3-4.274 15.711-5.737a96 96 0 0 1 7.282-1.68c1.122-.21 2.289-.275 3.395-.543.448-.108.775-.221 1.086-.578-.055-.978-.521-1.882-.811-2.81-.957-3.053-1.185-5.613-.132-8.66 1.482-1.156 3.35-2.365 5.317-2.158 1.043.108 1.916.709 2.52 1.546 1.444 2.003 2.232 8.48 1.908 10.952 4.758-1.075 9.96-1.444 14.82-1.962l25.281-2.513c3.074-.305 6.192-1.02 9.234-1.577a269 269 0 0 1 10.545-1.692c6.02-.872 12.049-1.8 18.084-2.555 2.328-.29 4.705-.255 7.014-.658-1.413-3.204-2.856-9.448-1.49-12.746.542-1.31 1.503-2.215 2.614-3.051"/><path fill="#FEFEFE" d="m276.612 222.858.222.343c.636-.845 2.289-2.965 2.62-3.848.511-1.364 1.317-2.682 1.96-3.991a37 37 0 0 0 2.438-6.32c.815-2.925.661-9.043 1.817-11.036l.534-.079c.255 1.194-.89 2.044.009 3.074.466.045.465.034.854-.23.102-.688.271-1.423.289-2.116 1.594 4.076-1.004 10.887-2.009 14.99-.981 4.006-4.646 9.624-7.266 12.891-1.091 1.362-2.898 2.707-3.447 4.354-2.484 3.123-9.171 7.964-12.706 9.904-2.097 1.151-4.285 2.172-6.48 3.122-.962.416-5.445 1.907-5.912 2.49-.403.503-.353 2.439-.395 3.091a60.6 60.6 0 0 1-1.35 9.556c-1.195 5.363-2.661 10.822-4.78 15.901-8.8 21.093-26.593 38.972-50.088 41.714-8.412.981-20.3-.064-27.962-3.862 1.607-.316 3.656 1.683 5.202 1.315.099-.412.298-4.276.225-4.6-.016-.069-.116-.353-.205-.42-.632-.471-3.985-1.394-5.158-1.983l.005-.352a113 113 0 0 1-3.604-1.936c-13.127-7.451-22.949-18.608-30.374-31.612-1.696-2.971-3.571-5.971-4.481-9.289a818 818 0 0 0 15.847-1.928c3.308-.41 6.682-.7 9.961-1.289-1.993-.892-5.168.764-7.366.48-.602-.077-.835-.307-1.179-.781l.337-1.31a3.8 3.8 0 0 0-.503-.789c-.296-.358-.227-.295-.21-.718 2.299-.746 5.204-.861 7.62-1.24l.052-.273.308.1.13-.045-.344.129-.155-.218-.542.004a56.3 56.3 0 0 1 9.315-1.334c2.641-.151 5.305-.14 7.933-.465 11.692-1.448 23.308-3.38 35.005-4.812 5.161-.006 12.422-1.483 17.673-2.263 8.45-1.397 17.144-2.484 25.422-4.71 3.403-.915 6.618-2.143 9.928-3.321 2.547-1.137 5.013-2.35 7.429-3.747.125-.206.447-.373.645-.513a81 81 0 0 0 10.066-8.697c.733-1.142 1.795-2.29 2.67-3.331"/><path fill="url(#a)" d="m276.612 222.858.222.343c.636-.845 2.289-2.965 2.62-3.848.511-1.364 1.317-2.682 1.96-3.991a37 37 0 0 0 2.438-6.32c.815-2.925.661-9.043 1.817-11.036l.534-.079c.255 1.194-.89 2.044.009 3.074.466.045.465.034.854-.23.102-.688.271-1.423.289-2.116 1.594 4.076-1.004 10.887-2.009 14.99-.981 4.006-4.646 9.624-7.266 12.891-1.091 1.362-2.898 2.707-3.447 4.354-2.484 3.123-9.171 7.964-12.706 9.904-2.097 1.151-4.285 2.172-6.48 3.122-.962.416-5.445 1.907-5.912 2.49-.403.503-.353 2.439-.395 3.091a60.6 60.6 0 0 1-1.35 9.556c-1.195 5.363-2.661 10.822-4.78 15.901-8.8 21.093-26.593 38.972-50.088 41.714-8.412.981-20.3-.064-27.962-3.862 1.607-.316 3.656 1.683 5.202 1.315.099-.412.298-4.276.225-4.6-.016-.069-.116-.353-.205-.42-.632-.471-3.985-1.394-5.158-1.983l.005-.352c3.759 1.307 7.436 2.765 11.328 3.663 12.572 2.903 25.878-.319 36.622-7.079 4.855-3.055 9.03-6.921 12.751-11.272 11.144-13.03 15.902-28.357 19.65-44.759-5.465 1.83-14.186 2.861-20.042 3.735a1064 1064 0 0 1-31.913 4.428c-4.858.579-9.747.855-14.601 1.466-5.989.755-11.96 1.803-17.935 2.683-2.799.412-5.689.963-8.511 1.081-1.993-.892-5.168.764-7.366.48-.602-.077-.835-.307-1.179-.781l.337-1.31a3.8 3.8 0 0 0-.503-.789c-.296-.358-.227-.295-.21-.718 2.299-.746 5.204-.861 7.62-1.24l.052-.273.308.1.13-.045-.344.129-.155-.218-.542.004a56.3 56.3 0 0 1 9.315-1.334c2.641-.151 5.305-.14 7.933-.465 11.692-1.448 23.308-3.38 35.005-4.812 5.161-.006 12.422-1.483 17.673-2.263 8.45-1.397 17.144-2.484 25.422-4.71 3.403-.915 6.618-2.143 9.928-3.321 2.547-1.137 5.013-2.35 7.429-3.747.125-.206.447-.373.645-.513a81 81 0 0 0 10.066-8.697c.733-1.142 1.795-2.29 2.67-3.331"/><path fill="#0B51A4" d="M273.943 226.189c-.152.556-.306 1.204-.624 1.693-1.368 2.102-5.174 5.171-7.359 6.463-.665.393-1.329.458-2.084.541a81 81 0 0 0 10.067-8.697M255.803 239.146c2.547-1.137 5.013-2.35 7.428-3.747-.82 1.438-2.44 2.76-4.009 3.259-.221.07-.429.096-.657.123l.878-.405c-1.148.275-2.476.842-3.64.77"/><path fill="url(#b)" d="M172.763 265.781a17.88 17.88 0 0 1 22.351-4.274 17.88 17.88 0 0 1 9.08 18.463 17.88 17.88 0 0 1-33.059 6.321 17.88 17.88 0 0 1 1.628-20.51"/><path fill="#186BCC" d="M183.625 261.992c1.331-.28 3.368-.323 4.659.116l.234-.043c4.153.817 7.835 2.913 10.193 6.485 2.245 3.401 2.795 7.327 2.132 11.297l-.306 1.215-.781 1.916c-1.325 2.684-2.99 4.548-5.468 6.235-1.169.554-2.578 1.001-3.665 1.66-1.363.376-2.608.593-4.032.454-2.328-.152-4.351-.478-6.507-1.38-.864-1.14-6.522-7.94-7.355-8.269-1.21-3.309-.925-6.886.098-10.191.51-1.325 1.286-2.541 2.001-3.764l1.075-1.167c1.64-2.523 4.971-3.778 7.722-4.564"/><path fill="#71E879" d="M175.903 266.556c-.012.106-.02.212-.035.318-.052.378-.146.646-.294.992l.195.272c1.57.463 2.535 1.44 3.694 2.528-.109 1.22-.079 2.278.3 3.448.954 1.74 2.204 2.797 4.15 3.321 1.158.312 2.373.473 3.561.263 1.464 1.149 2.909 2.271 4.207 3.613-.383.845-.768 1.433-1.408 2.1-.511.34-.984.672-1.568.878l-.194.057c-.98.279-2.732.707-3.715.261-1.528-.694-1.82-3.635-3.99-3.582-.593.342-.777.798-.944 1.438-.265 1.015-.174 1.893.374 2.798.956 1.58 3.016 2.485 4.749 2.862.87.189 1.751.203 2.637.219 1.84-.284 3.221-.849 4.847-1.728.948.829 1.506 1.35 1.819 2.599-1.169.555-2.578 1.001-3.665 1.66-1.363.376-2.608.593-4.032.455-2.328-.153-4.351-.479-6.507-1.38-.864-1.141-6.522-7.941-7.355-8.27-1.21-3.309-.925-6.885.098-10.19.51-1.325 1.286-2.542 2.001-3.765z"/><path fill="#9DEFA0" d="M175.902 266.556q-.015.159-.034.318a3.6 3.6 0 0 1-.294.992l.195.272c1.57.463 2.535 1.44 3.694 2.528-.109 1.22-.079 2.278.3 3.448-.853-.741-2.264-1.065-2.854-2.058l-.398-.199c-.935-.463-1.692-.814-2.741-.44-.371.132-.541.154-.943.071.51-1.325 1.285-2.542 2-3.765z"/><path fill="#F5FAEF" d="M175.902 266.556q-.015.159-.034.318a3.6 3.6 0 0 1-.294.992l.195.272c-.316.416-.415.562-.312 1.124.194 1.057 1.617 1.776 1.452 2.794l-.398-.199c-.935-.463-1.692-.814-2.741-.44-.371.132-.541.154-.943.071.51-1.325 1.285-2.542 2-3.765zM186.591 291.328c.305-.892-.173-2.189.19-2.818l.695.013c.996.877 2.182 1.429 3.147 2.35-1.363.376-2.608.593-4.032.455"/><path fill="#8AEA90" d="M188.705 284.289c-1.035-1.298-3.084-2.508-3.669-4.053l.185-.232c2.125-.019 2.838 2.771 4.671 3.315.126.037.254.061.381.092-.511.34-.984.671-1.568.878"/><path fill="#71E879" d="M188.517 262.065c4.154.817 7.835 2.913 10.193 6.485 2.246 3.401 2.796 7.327 2.133 11.297-1.509-.863-2.57-2.336-3.953-3.388a441 441 0 0 1-9.765-8.989c.94.077 1.833.504 2.708.839.248.426.514.82.799 1.22.48.205.485.226.981.08.458-.538.567-1.192.571-1.885.008-1.132-.294-1.728-1.087-2.515-.278-.425-.424-.629-.927-.793a5.5 5.5 0 0 1-.926-.384c-.18-.842-.32-1.327-.96-1.924z"/><path fill="#9DEFA0" d="M185.107 267.701c.674-.174 1.325-.199 2.018-.231a441 441 0 0 0 9.765 8.989c1.383 1.052 2.444 2.525 3.953 3.388l-.306 1.215-.781 1.916c-1.597-1.266-3.121-3.16-4.918-4.074a8 8 0 0 0-.512-1.075c-1.061-1.847-2.845-2.808-4.841-3.355-1.706-2.082-4.586-3.017-6.083-5.343.51-.57 1.087-.982 1.705-1.43"/><path fill="#F5FAEF" d="M185.107 267.701c.674-.174 1.325-.199 2.019-.231a444 444 0 0 0 9.764 8.989l-.687.608c-3.592-3.248-7.569-6.034-11.096-9.366"/><path fill="#DBFCC9" d="M196.89 276.459c1.383 1.052 2.444 2.525 3.953 3.388l-.306 1.215c-1.525-1.192-2.93-2.659-4.334-3.995z"/><path fill="#FEFEFE" d="M183.625 261.992c.521.597.192 2.02.555 2.894-2.944 1.418-3.513 2.86-4.717 5.78-1.159-1.089-2.124-2.065-3.694-2.528l-.195-.272c.148-.346.242-.614.294-.992q.02-.159.034-.318c1.64-2.523 4.972-3.778 7.723-4.564M194.838 278.904c1.797.914 3.321 2.808 4.918 4.074-1.325 2.684-2.99 4.548-5.468 6.235-.313-1.249-.871-1.77-1.819-2.599l1.443-1.11.044-.068c1.198-2.009 1.44-4.29.882-6.532"/><path fill="#F5FAEF" d="M183.403 269.131c1.496 2.327 4.376 3.261 6.083 5.343l-4.431-.274c-.468-.089-.908-.187-1.329-.421-.637-.355-1.038-.847-1.212-1.571-.256-1.069.39-2.188.889-3.077"/><path fill="#8AEA90" d="M183.625 261.992c1.331-.28 3.368-.323 4.659.116.64.597.78 1.082.96 1.924.319.168.584.272.926.384.503.164.649.368.927.793-2.477-.771-4.417-1.285-6.917-.323-.362-.874-.034-2.297-.555-2.894"/><path fill="#5F94D7" d="m185.055 274.2 4.431.274c1.995.547 3.779 1.508 4.84 3.355.2.347.364.704.512 1.075.558 2.242.316 4.523-.882 6.532l-.043.068c-.137-.306-.128-.197-.132-.488-.008-.941-.295-6.334-.247-6.593.064-.349.157-.598.059-.959-.783-2.861-6.7-1.963-8.325-3.1-.073-.052-.142-.11-.213-.164"/><path fill="#F5FAEF" d="M187.475 277.698c1.234.017 2.576.286 3.478 1.199.629.637.782 1.334.74 2.201l-.012.213c-1.298-1.342-2.743-2.464-4.206-3.613"/><path fill="#5F94D7" d="M172.763 265.781a17.88 17.88 0 0 1 22.352-4.274c-2.19.501-5.215-1.973-6.562-.678.987.333 2.905-.177 3.573.63-.997-.018-2.944-.271-3.791.165.137.402.043.274.183.441l-.233.043c-1.292-.439-3.329-.396-4.66-.116-2.751.786-6.082 2.041-7.722 4.564l-1.075 1.167c.347-1.406 1.578-2.701 2.766-3.481.232-.153.131-.034.253-.339-.311-.571-.306-.635-.893-.893-1.769.162-2.376 2.041-3.858 2.646-.11.045-.222.083-.333.125"/><path fill="#F5FAEF" d="M172.729 281.678c.833.329 6.491 7.129 7.356 8.27-3.508-1.709-6-4.632-7.356-8.27"/><path fill="url(#c)" d="M205.188 55.722c1.218-.044 2.423-.08 3.642-.029.524.51 1.031 1.005 1.366 1.664 1.364 2.684 1.211 13.41 1.9 13.797.121.069.572.08.711.075 1.084-.032 2.181-.323 3.258-.445 1.299-.147 2.683-.093 3.991-.057 2.658.074 5.29.457 7.917.846 13.215 1.957 24.625 7.225 34.839 15.825 2.058 1.733 3.555 3.586 5.097 5.773.696.986 1.372 2.343 2.273 3.11 4.71-1.261 7.591-.256 11.752 2.167 9.184 5.35 13.507 12.366 16.128 22.453 2.2 8.467 2.937 17.75 4.131 26.437.565 4.115 1.155 8.206 1.655 12.331.294 2.423.68 4.778.625 7.23-.114 5.006-.631 9.682-3.207 14.095-2.632 4.508-7.367 8.818-12.468 10.217-.139.038-.279.068-.419.1.029 3.522.198 7.128-.09 10.636-.828 10.089-4.963 20.189-12.093 27.488-.49.501-.993 1.048-1.563 1.455.549-1.647 2.356-2.992 3.448-4.354 2.619-3.267 6.284-8.885 7.265-12.891 1.005-4.102 3.603-10.914 2.009-14.99-.018.693-.187 1.428-.289 2.116-.389.264-.388.275-.853.23-.9-1.03.245-1.88-.01-3.073l-.534.078c-1.156 1.993-1.002 8.111-1.817 11.037a37 37 0 0 1-2.438 6.32c-.643 1.308-1.449 2.626-1.96 3.99-.331.883-1.984 3.003-2.62 3.848l-.221-.343c6.591-9.875 7.186-13.692 8.213-25.15-1.802 3.426-3.2 6.96-5.247 10.283-6.129 9.95-16.526 17.306-27.514 21.044l-.41-.197c.886-.524 2.123-.573 2.884-1.209-.421-.712-1.038-1.628-1.12-2.46-.03-.309.098-.365.271-.593 1.065-.275 2.373-.908 2.938-1.853 1.303-1.193 3.756-2.259 5.325-3.252 3.993-2.526 8.068-5.923 11.123-9.528 5.293-6.25 9.767-14.351 10.475-22.614.283-3.306.007-6.649-.147-9.956-.171-3.699-.3-7.412-.613-11.102-.481-5.682-1.315-11.361-2.055-17.015-2.485-18.973-7.285-49.697-22.723-62.565-3.047-2.54-6.551-4.435-10.107-6.157-13.548-6.56-26.558-7.088-41.233-6.016-9.288.679-18.489 2.004-27.701 3.34-11.567 1.68-23.171 3.294-34.808 4.36-6.5.595-13.128 1.74-19.609 2.634-19.723 2.717-39.298 5.973-54.751 19.578-2.23 1.963-4.408 3.996-6.306 6.288-3.14 3.793-5.004 7.968-6.462 12.636-3.614 11.565-3.269 22.652-2.11 34.566-.472 1.866-.552 5.965.24 7.744.103.229.318.473.468.665-.266.606-.556.936-.36 1.585l.252.214c.238-.229.167-.102.25-.357-.082 1.335-.204 2.688.255 3.973v.577l-.217.197c-.525-.173-.995-.41-1.541-.209-.382.517-.407 1.022-.49 1.639l-.035.282-.392-1.329c-.184.803-.055 1.765-.035 2.593-1.212-3.252-1.511-8.748-1.761-12.308-.08-1.14.002-4.252-.424-5.151-.095-.201-.27-.354-.404-.531-.817-4.918-.32-10.82-.262-15.806.046-3.867-.328-8.164.517-11.943-2.974 1.525-5.102 3.273-7.467 5.64-1.72 2.676-3.436 5.293-4.714 8.218-1.815 5.476-2.527 11.252-2.476 17.01.022 2.468.23 4.978.168 7.439-.61 2.267.835 5.543-.212 7.479-.28.519-.42 1.07-.72 1.578-1.383-1.471-.668-11.67-1.01-14.277l-.428-.236c-.208-4.152-.454-12.137.276-16.1.913-4.963 3.915-10.823 7.31-14.54 2.752-3.014 6.03-4.956 10.155-5.12l.383-.014c.993-2.985 1.9-6.011 3.348-8.815 5.524-10.696 16.52-20.487 27.21-25.873 5.018-2.527 10.3-4.274 15.711-5.737a96 96 0 0 1 7.282-1.68c1.122-.21 2.289-.275 3.395-.543.448-.108.775-.221 1.086-.578-.055-.978-.521-1.882-.811-2.81-.957-3.053-1.185-5.613-.132-8.66 1.482-1.156 3.35-2.365 5.317-2.158 1.043.108 1.916.709 2.52 1.546 1.444 2.003 2.232 8.48 1.908 10.952 4.758-1.075 9.96-1.444 14.82-1.962l25.281-2.513c3.074-.305 6.192-1.02 9.234-1.577a269 269 0 0 1 10.545-1.692c6.02-.872 12.049-1.8 18.084-2.555 2.328-.29 4.705-.255 7.014-.658-1.413-3.204-2.856-9.448-1.49-12.746.542-1.31 1.503-2.215 2.614-3.051"/><path fill="#186BCC" d="M38.806 143.613c-.082-.208-.194-.454-.228-.68-.222-1.49 1.422-4.186 2.275-5.399.747-1.062 1.343-1.899 2.667-2.139-1.72 2.676-3.436 5.293-4.714 8.218"/><path fill="#FEFEFE" d="M271.826 99.524c5.692.132 10.54 2.893 14.433 6.963 9.827 10.274 12.879 35.832 14.124 49.614.361 3.995.93 7.871.819 11.902-.106 3.871-.79 6.638-2.324 10.169a21 21 0 0 1-1.47 2.607l-.609.92c-.59.645-1.171 1.299-1.773 1.933l-.663.547c-.537.484-1.064.976-1.649 1.403l-1.633 1.158c-.973.607-1.935 1.081-2.988 1.533-.155-2.047-.24-4.069-.202-6.122-.058-1.662-.047-3.32-.029-4.982l-.057-.355c-.282-1.707-.157-3.587-.179-5.32l-.22-1.953c-.295-.953-.251-2.285-.327-3.292-1.396-13.895-2.971-28.838-6.536-42.339-.992-3.756-2.354-7.441-3.58-11.126-1.524-4.576-2.864-8.969-5.137-13.26"/><path fill="#8AEA90" d="M287.626 171.494c1.109.699 2.007 1.785 2.909 2.732 1.453 1.782 4.676 6.303 6.265 7.473-.59.645-1.172 1.299-1.774 1.934l-.663.546c-.537.484-1.064.976-1.648 1.403l-1.634 1.158c-.973.607-1.935 1.081-2.988 1.533-.155-2.047-.24-4.069-.202-6.122-.058-1.662-.046-3.32-.029-4.982l-.057-.355c-.282-1.707-.157-3.586-.179-5.32"/><path fill="#8AEA90" d="M287.862 177.169c1.888 1.79 4.816 5.749 6.5 7.01-.536.484-1.063.976-1.648 1.403l-1.633 1.158c-.974.607-1.935 1.081-2.988 1.533-.156-2.047-.241-4.069-.202-6.122-.058-1.662-.047-3.32-.029-4.982"/><path fill="#71E879" d="m287.89 182.151.121.063c1.204 1.489 2.363 2.703 3.07 4.526-.974.607-1.936 1.081-2.988 1.533-.156-2.047-.241-4.069-.203-6.122"/><path fill="#9DEFA0" d="M288.011 182.214c.051-.475.014-.773.298-1.171 1.475 1.188 2.501 2.831 3.98 4.043.288.235.17.125.425.496l-1.633 1.158c-.707-1.823-1.865-3.037-3.07-4.526M287.805 176.814c.023-.548-.032-1.088.23-1.578 1.838 1.75 5.337 6.217 6.991 8.396l-.663.547c-1.685-1.262-4.613-5.22-6.501-7.01z"/><path fill="#8AEA90" d="M287.079 166.249c1.865.515 7.433 6.787 8.927 8.536.921 1.079 1.805 2.488 2.871 3.387a21 21 0 0 1-1.47 2.607l-.608.92c-1.588-1.17-4.811-5.691-6.264-7.473-.902-.947-1.8-2.033-2.909-2.732l-.221-1.953c-.295-.953-.25-2.285-.326-3.292"/><path fill="#9DEFA0" d="m290.535 174.226.891-.122c1.977 2.117 3.779 4.844 5.982 6.676l-.608.919c-1.589-1.17-4.812-5.691-6.265-7.473"/><path fill="#DBFCC9" d="m287.406 169.541.339-.015a238 238 0 0 1 3.681 4.578l-.891.122c-.902-.947-1.8-2.033-2.909-2.732z"/><path fill="#71E879" d="m114.482 73.19.347.157c1.218 1.383 1.207 4.814 1.721 6.621.273.96.527 1.27 1.413 1.743.341.181.616.305.889.583-.705.355-1.65.407-2.427.533-1.106.061-2.265.341-3.36.53-.031-2.19-1.138-6.83-.473-8.626.35-.948 1.025-1.145 1.89-1.541M206.972 58.174c.423.106.461.15.756.442.858 2.158 1.468 9.894 1.296 12.385-.527.325-1.018.242-1.63.262l-.175-.035c-.672-.755-2.01-9.724-1.993-11.24.533-.73 1.016-1.277 1.746-1.814"/><path fill="url(#d)" d="M50.988 129.755c-.846 3.779-.472 8.076-.518 11.942-.058 4.987-.555 10.889.263 15.807.134.177.308.33.403.531.426.899.344 4.011.424 5.151.25 3.56.549 9.056 1.76 12.308-.02-.828-.148-1.79.036-2.593l.392 1.329.036-.282c.082-.618.107-1.122.489-1.639.546-.201 1.016.036 1.54.208l.218-.196v-.577c.355.448.423.955.545 1.498l-.21.464c-.216-.264-.32-.495-.441-.814-.158.609-.066 1.13.015 1.741l.186.266c.148-.267.279-.519.4-.801q.029.118.063.232c.147.482.352.936.665 1.331.941 2.873.83 6.301 1.343 9.294.818 5.254 1.507 10.548 2.622 15.749.882 4.115 2.087 8.2 3.229 12.252.891 2.712 1.59 5.529 2.624 8.186 3.014 7.758 8.673 15.927 16.256 19.793 2.13 1.086 4.419 1.979 6.678 2.762 4.448 1.443 9.033 1.886 13.543 2.989.452.044.897.079 1.342.175-1.037.16-5.26.154-5.762.467-.134.084-.2.245-.3.367.106.856.389 1.459.125 2.318.4.417.75.479 1.324.484 1.256.01 2.511-.173 3.766-.123 1.426.056 2.832.438 4.239.674-1.16.05-2.354.048-3.506.175l1.822.149c1.209.011 2.397.018 3.598.174l.209.978-1.186.14c.148.344.331.662.516.987 1.823 1.48 6.57 4.421 7.662 6.128 1.439-.005 3.003.133 4.403-.231.961 0 1.993-.109 2.937-.278 8.645-.608 17.23-1.894 25.788-3.219l.542-.004.155.218.344-.129-.13.045-.308-.1-.052.273c-2.416.379-5.321.494-7.62 1.24-.016.423-.086.36.21.718.208.254.36.492.503.789l-.337 1.31c.345.474.578.704 1.18.781 2.197.283 5.373-1.372 7.365-.48-3.279.589-6.653.878-9.96 1.289a819 819 0 0 1-15.848 1.928c.91 3.318 2.785 6.318 4.481 9.289 7.425 13.004 17.247 24.161 30.374 31.612q1.784 1 3.604 1.936l-.005.352c1.173.589 4.527 1.512 5.158 1.983.089.066.189.351.206.42.073.324-.127 4.188-.225 4.6-1.547.368-3.596-1.631-5.203-1.315-1.492-.082-4.478-1.78-5.834-2.542-12.772-7.182-22.617-17.23-30.12-29.774-1.751-2.927-3.558-5.862-4.818-9.043-.906-2.289-1.448-4.789-2.111-7.165-9.147 1.038-20.55.594-29.016-3.195-10.019-4.485-16.865-9.213-23.434-18.126-1.36-1.845-2.776-3.713-3.854-5.742-1.048-1.971-1.88-4.167-2.709-6.245-1.172-2.94-1.655-6.069-2.788-8.996-.538-.136-.787-.016-1.319.125-.27.072-.467.133-.746.129-4.332-.06-9.988-3.211-12.919-6.291-2.452-2.579-4.326-5.8-5.55-9.131-1.814-4.938-2.403-9.977-3.18-15.134-1.453-9.643-2.668-19.302-2.434-29.07l.427.236c.343 2.607-.372 12.806 1.01 14.277.302-.508.442-1.059.721-1.578 1.047-1.936-.398-5.212.212-7.479.063-2.462-.146-4.971-.168-7.439-.051-5.758.66-11.534 2.476-17.01 1.278-2.925 2.994-5.542 4.714-8.218 2.365-2.367 4.493-4.115 7.467-5.64"/><path fill="#FEFEFE" d="M50.988 129.755c-.846 3.779-.472 8.076-.518 11.942-.058 4.987-.555 10.889.263 15.807.235 8.04 1.629 16.102 2.795 24.046.866 5.901 1.556 11.839 2.515 17.724.444 2.728 1.064 5.42 1.583 8.133.13.495.27.98.346 1.487-.092.025-.192.031-.276.076-.219.115-.374.331-.595.442-1.8.902-13.831-11.923-16.533-13.218l-.286.245c-.239-1.298-.322-2.64-.451-3.954-2.085-7.511-2.512-16.63-3.333-24.423.063-2.462-.146-4.971-.168-7.439-.051-5.758.66-11.534 2.476-17.01 1.279-2.925 2.994-5.542 4.714-8.218 2.365-2.367 4.493-4.115 7.468-5.64"/><path fill="#9DEFA0" d="M39.83 192.485c3.562 1.882 16.382 14.729 17.796 14.923.13.495.27.98.346 1.486-.092.025-.192.031-.276.076-.22.115-.374.331-.595.442-1.801.902-13.832-11.923-16.533-13.218l-.286.245c-.239-1.298-.323-2.64-.451-3.954"/><path fill="#8AEA90" d="m40.282 196.439.286-.245c2.701 1.295 14.732 14.12 16.533 13.218.22-.111.376-.327.595-.442.084-.045.184-.051.276-.076.415 1.897.944 3.732 1.512 5.586.347.99.945 2.886.47 3.886-.894.318-2.016-.079-2.915-.292-.31-.601-.729-1.051-1.18-1.551a250 250 0 0 1-5.689-4.971c-1.825-1.668-5.07-5.249-7.233-6.223a32 32 0 0 1-1.276-3.339c-.534-1.138-.697-2.574-.948-3.802z"/><path fill="url(#e)" d="m40.282 196.439.286-.245c2.701 1.295 14.732 14.12 16.533 13.218.22-.111.376-.327.595-.442.084-.045.184-.051.276-.076.415 1.897.944 3.732 1.512 5.586-.082.128-.226.238-.336.343-.765-.253-2.693-2.72-3.457-3.475-2.27-2.243-12.812-12.457-14.978-13.16z"/><path fill="url(#f)" d="M41.661 201.99c1.057.413 12.414 11.827 14.91 13.967l-.712.566a252 252 0 0 1-5.689-4.971c-1.825-1.668-5.07-5.249-7.233-6.223a32 32 0 0 1-1.276-3.339"/><path fill="#9DEFA0" d="M56.57 215.957c1.03.726 2.078 1.635 3.29 2.023l.094.386c-.894.318-2.016-.079-2.915-.292-.31-.601-.728-1.051-1.18-1.551z"/><path fill="#FEFEFE" d="m97.39 250.681 3.932.479c1.134.023 2.326.126 3.455.063l1.822.15c1.209.01 2.397.017 3.598.173l.209.978-1.186.14c.148.344.331.662.516.987 1.823 1.48 6.57 4.422 7.662 6.128-2.354.136-4.743.217-7.094.025a21 21 0 0 1-3.24-.372c-1.262-2.228-9.445-6.978-10.048-8.453z"/><path fill="#8AEA90" d="M101.322 251.16c1.134.022 2.326.126 3.455.063l1.822.149c1.208.011 2.397.018 3.598.174l.209.978-1.186.14c.148.344.331.662.516.987 1.823 1.48 6.57 4.421 7.661 6.128-2.353.136-4.742.217-7.093.025q2.084-.027 4.167-.116c-3.593-1.544-10.95-8.147-13.149-8.528"/><path fill="#F5FAEF" d="M106.599 251.373c1.208.01 2.397.017 3.598.173l.208.978-1.185.14c.148.344.331.662.516.987-1.026-.683-2.307-1.372-3.137-2.278"/><path fill="#9DEFA0" d="M91.362 249.562c1.665.316 4.524.526 6.027 1.119l-.373.298c.603 1.475 8.786 6.225 10.048 8.453-1.823.031-3.663-.285-5.458-.564l-2.77-.675c-.55-1.295-6.305-5.528-7.862-6.912l.885-.72c-.2-.289-.342-.68-.497-.999"/><path fill="#F5FAEF" d="M91.859 250.561c3.628 2.711 7.228 5.478 10.934 8.083-.416.135-.75.205-1.187.223l-2.77-.674c-.55-1.295-6.305-5.529-7.862-6.912z"/><path fill="#FEFEFE" d="M70.164 236.874c3.456 3.534 8.534 7.399 13.08 9.486-.164.564-.24.647.06 1.186 1.158 2.082 6.797 6.025 7.244 7.235l-.27.227c-8.434-3.797-15.207-9.899-20.475-17.425z"/><path fill="#8AEA90" d="M83.243 246.36c1.597.712 3.464 1.32 4.97 2.161q1.571.531 3.15 1.041c.155.318.297.71.496.998l-.885.72c1.557 1.384 7.313 5.618 7.863 6.913-2.852-.604-5.964-1.886-8.559-3.186l.27-.227c-.447-1.21-6.086-5.152-7.245-7.235-.299-.538-.223-.621-.06-1.185"/><path fill="#DBFCC9" d="M88.213 248.521q1.57.532 3.149 1.041c.155.319.297.71.497.999l-.885.72c-.924-.707-2.443-1.64-2.761-2.76"/><path fill="#8AEA90" d="M42.938 205.329c2.162.974 5.408 4.555 7.233 6.223a250 250 0 0 0 5.688 4.971c.452.5.87.95 1.18 1.551-1.584-.383-3.136-1.021-4.585-1.763-4.467-2.288-7.974-6.183-9.516-10.982"/><path fill="#0B51A4" d="M58.597 184.956c.818 5.253 1.506 10.547 2.621 15.748.883 4.115 2.088 8.2 3.23 12.252a7 7 0 0 1-.573-.644c-2.712-3.525-4.109-15.085-4.726-19.675-.258-1.921-.804-4.23-.58-6.156.053-.467.066-.882.039-1.351zM90.006 243.697c4.448 1.443 9.032 1.886 13.543 2.989-1.34.062-2.674.118-4.014.03-1.913-.126-8.43-.995-9.603-2.329z"/><path fill="#D1E5F9" d="M67.419 233.669c1.035.875 1.92 2.129 2.745 3.205l-.361.709c-.905-1.234-1.63-2.584-2.384-3.914"/><path fill="#FEFEFE" d="M252.065 229.035c10.988-3.738 21.385-11.094 27.514-21.044 2.047-3.323 3.446-6.857 5.247-10.283-1.026 11.458-1.621 15.275-8.213 25.15-.875 1.041-1.938 2.189-2.67 3.331a81 81 0 0 1-10.067 8.697c-.198.14-.52.307-.645.513-2.415 1.397-4.881 2.61-7.428 3.747-3.31 1.178-6.526 2.407-9.929 3.322-8.278 2.225-16.972 3.312-25.422 4.709-5.251.781-12.511 2.257-17.672 2.263-11.698 1.432-23.314 3.364-35.006 4.813-2.628.325-5.291.313-7.933.464-3.05.175-6.335.639-9.315 1.334-8.558 1.325-17.143 2.612-25.788 3.219-.944.169-1.976.278-2.937.278-1.4.365-2.964.226-4.403.231-1.092-1.706-5.838-4.648-7.662-6.128-.185-.325-.368-.643-.516-.987l1.186-.14-.209-.978c.919-.005 1.884-.073 2.798.003 6.371-.135 12.674-.668 19.02-1.18 3.737-.301 7.508-.476 11.231-.918 9.922-1.179 19.815-2.827 29.695-4.313 6.523-.982 13.09-1.689 19.6-2.734a488 488 0 0 0 37.234-7.433c7.508-1.76 15.076-3.091 22.29-5.936"/><path fill="#9DEFA0" d="M110.197 251.546c.919-.005 1.884-.074 2.798.003.854.826 2.208 1.294 3.24 1.905 2.823 1.672 5.996 3.55 8.405 5.763.027.025.065.035.098.053-.944.169-1.976.278-2.937.278-1.4.364-2.964.226-4.403.231-1.092-1.707-5.838-4.648-7.662-6.128-.185-.325-.368-.643-.516-.987l1.186-.14z"/><path fill="#FEFEFE" d="M110.406 252.524c1.697.615 9.987 5.514 11.27 6.584l.125.44c-1.4.365-2.964.226-4.403.231-1.092-1.706-5.838-4.648-7.662-6.128-.185-.325-.368-.643-.516-.987z"/><path fill="#D1E5F9" d="M202.779 249.44c2.327-.915 14.581-3.586 16.649-2.704.344.146.673.303 1.024.441-5.251.781-12.511 2.257-17.673 2.263"/><path fill="url(#g)" d="M104.891 246.861c8.905.674 17.885.194 26.773-.51 13.324-1.055 26.557-2.874 39.801-4.642 19.106-2.55 38.426-4.797 57.175-9.395 9.754-2.393 18.874-5.385 27.988-9.592-.566.946-1.873 1.579-2.938 1.854-.173.228-.301.284-.271.593.082.832.698 1.748 1.12 2.46-.761.636-1.998.685-2.884 1.208l.41.198c-7.214 2.845-14.783 4.176-22.29 5.936a488 488 0 0 1-37.234 7.433c-6.51 1.045-13.077 1.752-19.6 2.733-9.88 1.487-19.773 3.135-29.695 4.314-3.723.442-7.494.617-11.231.918-6.346.512-12.649 1.045-19.02 1.18-.914-.077-1.879-.008-2.798-.003-1.201-.156-2.39-.163-3.598-.174l-1.822-.149c1.152-.127 2.346-.125 3.505-.175-1.406-.236-2.812-.618-4.238-.674-1.255-.05-2.51.133-3.766.123-.575-.005-.924-.067-1.324-.484.264-.859-.019-1.462-.126-2.318.1-.122.167-.283.3-.367.504-.313 4.726-.307 5.763-.467"/><path fill="#186BCC" d="M54.927 157.92c.698 5.903 1.782 11.836 2.328 17.741-.314-.395-.519-.849-.666-1.331-.024-.076-.042-.154-.063-.232-.12.282-.252.534-.4.801l-.186-.266c-.081-.611-.173-1.132-.015-1.741.122.319.225.55.442.814l.209-.464c-.121-.543-.19-1.05-.544-1.498-.46-1.285-.338-2.638-.255-3.973-.084.255-.013.128-.251.357l-.251-.214c-.197-.649.093-.979.36-1.585-.15-.192-.366-.437-.468-.665-.792-1.779-.712-5.878-.24-7.744"/><path fill="#0B51A4" d="M153.631 221.087c-5.981.089-11.941.067-17.92.025-7.838-.055-15.971.089-23.63-1.81-3.574-.886-7.231-2.496-10.516-4.165-2.532-1.286-5.194-2.806-7.326-4.701-4.344-3.861-7.792-10.959-9.535-16.379-1.27-3.946-2.567-8.111-3.494-12.151-3.597-15.681-5.892-39.145 1.735-53.797 3.723-7.152 9.702-11.854 17.323-14.244 8.114-2.545 18.882-3.635 27.408-5.034 4.887-.802 9.727-1.875 14.607-2.72 4.082-.707 8.197-1.185 12.295-1.78 3.783-.549 7.553-1.219 11.345-1.708 6.382-.824 12.794-.914 19.198-1.414 13.319-1.041 26.395-2.755 39.755-1.405 2.136.216 4.442.301 6.509.878 1.256.351 2.48.922 3.629 1.53 9.238 4.88 14.199 14.813 17.187 24.407 3.934 12.625 5.554 25.672 5.426 38.873-.074 7.598-.545 15.726-4.208 22.586-1.055 1.976-2.58 3.68-4.093 5.313-5.905 6.366-12.702 9.87-20.577 13.171-2.345.982-4.716 2.035-7.153 2.763-3.09 1.326-6.46 2.146-9.698 3.022a268.3 268.3 0 0 1-44.839 7.831c-4.426.417-8.979.966-13.428.909"/><path fill="#186BCC" d="m153.631 221.088-.084-.255c.234-.122 14.212-1.114 15.979-1.296a244 244 0 0 0 29.462-4.584c.596-.126 1.233-.086 1.826-.234.694-.173 1.346-.466 2.047-.631 2.582-.609 5.189-1.084 7.736-1.831-.081-.223-.043-.09-.093-.406 1.211-.613 2.631-.032 3.889-.77-.435.005-.737.042-1.145-.135l.379-.315c.389-.018 1.293.145 1.612.045 2.466-.771 2.877-2.367 6.357-1.351-3.09 1.326-6.46 2.146-9.699 3.022a268 268 0 0 1-44.838 7.831c-4.426.417-8.979.966-13.428.91"/><path fill="#FEFEFE" d="M236.961 107.328c1.54 1.066 2.872 2.243 4.065 3.694 4.098 4.988 6.525 11.63 8.278 17.777a119.9 119.9 0 0 1 4.077 43.978c-.96 9.99-5.29 18.053-13.033 24.393-6.199 5.076-15.291 7.055-22.854 9.238-8.063 2.327-16.118 4.891-24.355 6.534-18.238 3.64-37.069 4.255-55.613 3.947-6.399-.107-12.787-.128-19.16-.783-2.396-.246-4.828-.455-7.177-1.011-5.588-1.321-11.942-4.646-15.585-9.174-4.686-5.823-6.876-12.187-9-19.217-3.99-13.207-6.469-28.622-4.906-42.401.967-8.525 4.048-16.867 10.981-22.326 6.241-4.913 26.622-8.064 35.155-9.58 8.469-1.505 16.827-3.346 25.34-4.671 13.551-2.111 27.437-3.392 41.117-4.297 10.008-.663 20.254-1.227 30.248-.072.677-.179 1.43-.421 2.134-.443 2.428-.075 6.165.999 8.25 2.262.943.571 1.655 1.093 2.038 2.152"/><path fill="#044492" d="M224.539 103.357c.677-.179 1.43-.421 2.133-.443 2.429-.075 6.166.999 8.25 2.262.943.571 1.655 1.093 2.039 2.152-4.068-1.939-7.972-3.258-12.422-3.971"/><path fill="#186BCC" d="M123.588 136.777c1.232-.104 2.436-.157 3.654.119 4.341.983 6.697 4.939 8.92 8.414a10 10 0 0 0-1.126-.041c-1.941.082-4.043 1.283-5.278 2.748a7.66 7.66 0 0 0-1.771 5.713c.16 1.457.852 2.89 2.034 3.787.962.73 2.172 1.003 3.361.819 2.706-.418 4.328-2.561 5.774-4.658.612 7.552 1.357 12.558-1.633 19.9-.31.604-.621 1.228-1.01 1.786-1.282 1.837-3.106 3.486-5.382 3.873-2.667.453-6.039-.701-8.204-2.275-4.959-3.605-7.487-10.915-8.429-16.718-1.002-6.176-1.004-14.426 2.857-19.725 1.627-2.232 3.551-3.327 6.233-3.742"/><path fill="#FEFEFE" d="M122.943 165.675c.42.073.876.159 1.243.389.662.414 1.154 1.287 1.311 2.035.171.814.002 1.716-.504 2.383-.555.731-1.222.843-2.088.972-1.129-.575-2.207-1.46-2.625-2.701-.19-.564-.193-1.214.126-1.734.566-.921 1.555-1.127 2.537-1.344"/><path fill="#186BCC" d="M205.48 128.984c.4.005.795.043 1.192.087 4.141.455 6.219 3.493 8.608 6.466l-.03.175a12 12 0 0 0-.767.011c-2.025.101-3.813 1.424-5.093 2.91-1.492 1.731-2.428 3.926-2.202 6.24.113 1.166.542 2.318 1.485 3.064 1.116.882 2.728 1.012 4.084.787 2.414-.399 4.764-3.211 6.101-5.085 1.613 7.913 2.088 15.564-1.412 23.056-.329.536-.656 1.081-1.034 1.583-1.264 1.679-3.091 3.037-5.218 3.291-3.005.36-6.264-.855-8.552-2.77-5.337-4.465-7.597-12.699-8.192-19.349-.496-5.558-.052-12.833 3.781-17.277 2.034-2.357 4.278-2.967 7.249-3.189"/><path fill="#FEFEFE" d="M201.327 157.777c.232-.024.363-.044.608-.04.759.011 1.39.316 1.912.865.593.624.863 1.431.819 2.286-.054 1.035-.434 1.537-1.191 2.205-.204.02-.265.03-.49.028-.883-.009-1.486-.34-2.069-.987-.591-.655-.838-1.501-.761-2.375.082-.929.498-1.381 1.172-1.982"/><path fill="#044492" d="M314.994 186.923q.08-.011.162-.019c2.062-.166 4.107.079 5.7 1.52 3.076 2.783 3.707 9.312 3.843 13.27.915.172 1.841.366 2.733.633 4.629 1.382 8.098 4.172 10.355 8.459 2.301 4.368 4.124 10.95 2.489 15.82-.641 1.91-2.055 3.73-3.761 4.806-2.726 1.719-5.676.881-8.365 2.095-1.879.848-3.536 2.301-5.246 3.445-2.075 1.388-4.233 2.598-6.451 3.738-4.327 1.917-9.752 3.419-14.522 2.991-2.407-.216-4.379-1.264-5.892-3.152-1.547-1.931-2.305-4.178-2.032-6.647.5-4.54 4-8.048 6.415-11.691 3.031-4.57 8.365-13.146 9.31-18.33.951-5.222.827-13.337 5.262-16.938"/><path fill="#FEFEFE" d="M298.501 235.211c.696-6.242 9.931-16.639 12.856-22.591 2.905-5.914 2.26-12.356 3.853-18.531.335-1.298.645-2.834 1.879-3.556.366-.049.622-.084.973.078 2.286 1.05 2.548 5.613 2.528 7.809-.01 1.054-.278 2.644.045 3.627.299.906-.206 1.014-.825 1.594-2.293 2.152-3.335 4.693-4.159 7.677-1.5 5.431-.959 10.151 1.843 15.066 1.621 1.897 3.213 3.536 5.437 4.72-6.727 3.915-15.246 8.719-23.334 7.762l-.324-.037q-.097-.011-.194-.025c-.314-1.034-.852-2.53-.578-3.593"/><path fill="#9DEFA0" d="M317.494 226.384c1.621 1.897 3.213 3.536 5.437 4.72-6.727 3.915-15.246 8.719-23.334 7.762l-.324-.037q-.097-.011-.194-.025c-.314-1.034-.852-2.53-.578-3.593l.191.612.207.089c5.107-2.231 9.917-4.66 14.806-7.333 1.175-.643 2.814-1.313 3.789-2.195"/><path fill="#FEFEFE" d="M323.191 205.104c2.235-.528 4.01-.14 5.971 1.091 4.238 2.661 7.137 7.915 8.122 12.713.358 1.745.5 3.613.169 5.373-.054 1.055-.471 2.226-1.068 3.096-.803 1.168-2.022 1.834-3.399 2.085-2.937.537-6.197-.643-8.572-2.335-3.068-2.186-5.356-5.496-5.974-9.242-.543-3.294.501-7.067 2.454-9.743.673-1.109 1.452-2.057 2.297-3.038"/><path fill="#9DEFA0" d="M337.453 224.281c-.054 1.055-.471 2.227-1.068 3.097-.803 1.167-2.022 1.833-3.399 2.085-2.937.536-6.197-.644-8.572-2.336-3.068-2.186-5.356-5.496-5.974-9.242-.543-3.294.501-7.067 2.454-9.742 1.898 5.436 3.396 11.63 7.95 15.507 2.691-1.086 4.496-3.169 6.349-5.329.316 1.476.679 4.8 1.944 5.76.099.075.21.133.316.2"/><path fill="url(#h)" d="M103.355 269.894c.611-.001 1.308.16 1.841.457.953.533 1.999 1.81 2.823 2.572 2.868 2.652 5.675 5.405 8.569 8.019 1.58 1.428 3.539 2.72 4.942 4.31.69.78.991 1.664 1.311 2.632-3.789 8.455-13.704 19.132-21.229 24.534-3 2.154-6.35 3.951-9.735 5.411-3.07.987-5.92 1.606-9.171 1.149-2.694-.379-6.472-1.509-8.124-3.792-1.155-1.597-1.35-3.591-1.051-5.492 1.962-12.498 14.356-23.794 22.81-32.444 2.32-2.376 4.349-5.389 7.014-7.356"/><path fill="#FEFEFE" d="M84.143 314.099c-1.47-.173-4.111-.654-5.132-1.77-.29-.318-.369-.642-.332-1.078.094-1.102.59-2.31.94-3.356 3.099-9.252 10.156-16.704 16.602-23.771 2.663-2.92 5.3-5.92 8.199-8.61.801.736 1.502 1.512 2.211 2.335l.158.133c3.681 3.134 6.661 6.779 11.064 9.025-5.543 9.006-19.564 24.218-30.065 26.741-1.237.296-2.42.17-3.645.351"/><path fill="#71E879" d="m106.631 277.849.158.133c3.68 3.134 6.66 6.779 11.064 9.025-5.544 9.006-19.564 24.218-30.065 26.741-1.237.296-2.42.17-3.645.351q.003-.087.01-.174c.263-2.734 4.638-5.165 6.713-6.836a43 43 0 0 0 15.765-29.24"/><defs><linearGradient id="a" x1="251.464" x2="167.145" y1="270.325" y2="218.605" gradientUnits="userSpaceOnUse"><stop stop-color="#054B9F"/><stop offset="1" stop-color="#3281E3"/></linearGradient><linearGradient id="b" x1="190.444" x2="182.595" y1="294.131" y2="261.437" gradientUnits="userSpaceOnUse"><stop stop-color="#1268C9"/><stop offset="1" stop-color="#488AD6"/></linearGradient><linearGradient id="c" x1="215.034" x2="125.584" y1="247.084" y2="64.201" gradientUnits="userSpaceOnUse"><stop stop-color="#003985"/><stop offset="1" stop-color="#0E529F"/></linearGradient><linearGradient id="d" x1="86.929" x2="116.5" y1="260.711" y2="230.951" gradientUnits="userSpaceOnUse"><stop stop-color="#01367F"/><stop offset="1" stop-color="#0A5FBF"/></linearGradient><linearGradient id="e" x1="48.204" x2="52.12" y1="206.465" y2="203.312" gradientUnits="userSpaceOnUse"><stop stop-color="#ECFDE7"/><stop offset="1" stop-color="#FEFAFA"/></linearGradient><linearGradient id="f" x1="47.808" x2="50.305" y1="210.468" y2="208.501" gradientUnits="userSpaceOnUse"><stop stop-color="#FEFDF2"/><stop offset="1" stop-color="#D1FECB"/></linearGradient><linearGradient id="g" x1="176.171" x2="177.462" y1="235.559" y2="244.192" gradientUnits="userSpaceOnUse"><stop stop-color="#00489D"/><stop offset="1" stop-color="#2676DA"/></linearGradient><linearGradient id="h" x1="122.537" x2="72.158" y1="291.443" y2="296.894" gradientUnits="userSpaceOnUse"><stop stop-color="#003D8B"/><stop offset="1" stop-color="#0558B5"/></linearGradient></defs></svg>