<?xml version="1.0" encoding="utf-8" ?><svg xmlns="http://www.w3.org/2000/svg" xmlns:xlink="http://www.w3.org/1999/xlink" width="50" height="50" viewBox="0 0 50 50"><path fill="#242424" transform="scale(2.07536 2.07536)" d="M10.927 3.09615C13.6371 2.50015 16.319 4.20732 16.9262 6.91492C17.5335 9.62252 15.8374 12.3115 13.1324 12.93C10.4114 13.5521 7.70313 11.8439 7.09233 9.12036C6.48153 6.39683 8.20093 3.69565 10.927 3.09615Z"/><path fill="#242424" transform="scale(2.07536 2.07536)" d="M10.2866 14.1061C11.5974 13.9845 12.8733 13.9643 14.173 14.2098C16.3455 14.6201 18.52 15.5866 19.8021 17.4702C20.1639 18.0018 20.4686 18.3155 20.3436 18.9715C19.0277 20.1353 15.8005 20.0392 14.0823 20.1965C12.9246 20.2655 11.7639 20.2675 10.606 20.2027C8.72836 20.1155 4.91449 20.2259 3.61006 18.7945C3.50664 18.2476 3.51764 18.0528 3.83628 17.5868C5.09801 15.7416 8.15555 14.5072 10.2866 14.1061Z"/></svg>